<svg width="80" height="50" fill="none" xmlns="http://www.w3.org/2000/svg"><path fill-rule="evenodd" clip-rule="evenodd" d="M6.283 3.425h33.314v8.311H8.75L6.283 3.425z" fill="#E02828"/><path fill-rule="evenodd" clip-rule="evenodd" d="m18.18 14.362 20.412 2.832 3.288-5.458H8.75l9.43 2.626z" fill="#881822"/><path fill-rule="evenodd" clip-rule="evenodd" d="M9.434 14.111h33.314v8.311h-30.78l-2.534-8.311z" fill="#E02828"/><path fill-rule="evenodd" clip-rule="evenodd" d="m20.942 25.642 20.801 2.123 3.288-5.457H11.97l8.973 3.334z" fill="#881822"/><path fill-rule="evenodd" clip-rule="evenodd" d="M12.722 24.888h33.291V33.2H15.691l-2.969-8.312zM73.642 3.425H40.328v8.311h30.848l2.466-8.311z" fill="#E02828"/><path fill-rule="evenodd" clip-rule="evenodd" d="m61.745 14.362-20.413 2.832-3.288-5.458h33.132l-9.43 2.626z" fill="#881822"/><path fill-rule="evenodd" clip-rule="evenodd" d="M70.49 14.111H37.178v8.311h30.78l2.534-8.311z" fill="#E02828"/><path fill-rule="evenodd" clip-rule="evenodd" d="M58.983 25.756 38.18 27.879l-3.288-5.457h33.063l-8.973 3.334z" fill="#AA3839"/><path fill-rule="evenodd" clip-rule="evenodd" d="M67.203 25.025H33.889v8.312h30.345l2.969-8.312z" fill="#BF4046"/><path fill-rule="evenodd" clip-rule="evenodd" d="M58.983 25.642 38.18 27.765l-3.288-5.457h33.063l-8.973 3.334z" fill="#881822"/><path fill-rule="evenodd" clip-rule="evenodd" d="M67.203 24.888H33.889V33.2h30.345l2.969-8.312z" fill="#E02828"/><path d="M52.315 34.638c-8.197-4.247-16.394-4.247-24.591 0 4.932 3.22 6.53 6.44 4.795 9.681-.845 1.53 15.71 1.416 14.91-.205-1.576-3.151.069-6.325 4.886-9.476z" fill="#AD1F24"/><path d="M45.374 38.246H34.551c-6.12 0-11.211-4.727-11.668-10.846L20.988 1.85A1.716 1.716 0 0 1 22.701 0h34.523c1.005 0 1.804.845 1.713 1.85L57.042 27.4c-.457 6.12-5.549 10.846-11.668 10.846zM56.494 41.968H23.43a2.577 2.577 0 0 0-2.58 2.58v3.767c0 .89.73 1.644 1.644 1.644h34.98c.891 0 1.645-.73 1.645-1.644v-3.767a2.577 2.577 0 0 0-2.58-2.58h-.046z" fill="#FA412D"/></svg>