<svg xmlns="http://www.w3.org/2000/svg" class="utility-cogwheel" aria-hidden="true" width="28.75" height="28.75" viewBox="0 0 32 32"><path d="M7.967 22.8 9.133 24c.234.233.5.267.734.033l1.8-1.466c.233-.234.533-.267.833-.134l1.4.567q.45.2.5.7l.233 2.3c.034.333.2.5.534.5H16.9c.333 0 .5-.167.533-.5l.167-2.3a.8.8 0 0 1 .5-.7l1.433-.567c.3-.133.6-.1.834.134l1.766 1.466c.234.234.5.2.734-.033l1.166-1.2c.234-.233.267-.5.034-.733L22.6 20.333c-.233-.233-.267-.533-.133-.833l.566-1.433a.8.8 0 0 1 .7-.5l2.267-.2c.333-.034.5-.2.5-.534V15.1c0-.333-.167-.5-.5-.533l-2.267-.134a.8.8 0 0 1-.7-.5l-.566-1.433c-.134-.3-.1-.6.133-.867L24.033 9.9c.234-.267.2-.533-.033-.767l-1.2-1.166c-.233-.234-.5-.267-.733-.034L20.333 9.4c-.233.233-.533.267-.833.167l-1.467-.6c-.3-.1-.466-.334-.5-.667l-.1-2.3c-.033-.333-.2-.5-.533-.5h-1.733c-.334 0-.5.167-.534.5L14.4 8.3a.8.8 0 0 1-.5.7l-1.4.567c-.3.133-.6.1-.833-.134l-1.734-1.5c-.233-.233-.5-.2-.733.034L8 9.133c-.233.234-.267.5-.033.734l1.466 1.766c.234.234.267.534.134.834L9 13.9a.8.8 0 0 1-.7.5l-2.3.167c-.333.033-.5.2-.5.533v1.733c0 .334.167.5.5.534l2.3.233q.5.05.7.5l.567 1.4c.133.3.1.6-.134.833l-1.5 1.734c-.233.233-.2.5.034.733m8.066-2.933c-2.1 0-3.866-1.8-3.866-3.867 0-2.133 1.766-3.867 3.866-3.867S19.9 13.867 19.9 16c0 2.067-1.767 3.867-3.867 3.867"></path></svg>