<svg xmlns="http://www.w3.org/2000/svg" class="square-fill-question" aria-hidden="true" width="28.75" height="28.75" viewBox="0 0 32 32"><path d="M11 26h10c3.7 0 5-1.3 5-5V11c0-3.7-1.3-5-5-5H11c-3.7 0-5 1.3-5 5v10c0 3.7 1.3 5 5 5m4.533-8.367c-.733 0-1-.266-1-1.033v-.967c0-.733.267-1 1.034-1h.366c1.7 0 2.567-.133 2.567-1.2 0-1.233-1.067-1.6-2.067-1.6-1.3 0-2.433.767-3.133 1.4-.5.5-.867.5-1.367-.1l-.566-.7c-.467-.566-.434-.966.066-1.533.9-.833 2.634-2.067 4.9-2.067C19 8.833 21.5 10.4 21.5 13.4c0 1.7-1.067 4.233-5.567 4.233zm.467 5.2c-1.133 0-1.833-.7-1.833-1.833s.7-1.833 1.833-1.833 1.833.7 1.833 1.833-.7 1.833-1.833 1.833"></path></svg>