<svg xmlns="http://www.w3.org/2000/svg" id="yt-ringo2-svg" class="external-icon" width="104" height="18" viewBox="0 0 104 18"><defs><clipPath id="clip0_161_5084"><rect width="104" height="18"></rect></clipPath></defs><g clip-path="url(#clip0_161_5084)"><path d="M13.0363 18C13.0363 18 21.2125 18 23.2406 17.46C24.3825 17.154 25.2413 16.272 25.5427 15.183C26.1 13.185 26.1 8.982 26.1 8.982C26.1 8.982 26.1 4.806 25.5427 2.826C25.2413 1.71 24.3825 0.846 23.2406 0.549C21.2125 0 13.0363 0 13.0363 0C13.0363 0 4.87833 0 2.8594 0.549C1.73574 0.846 0.858733 1.71 0.538992 2.826C0 4.806 0 8.982 0 8.982C0 8.982 0 13.185 0.538992 15.183C0.858733 16.272 1.73574 17.154 2.8594 17.46C4.87833 18 13.0363 18 13.0363 18Z" fill="#FF0000"></path><path d="M17.1 8.99999L10.35 5.17499V12.825L17.1 8.99999Z" fill="white"></path><path d="M104 0V18" stroke="grey" stroke-width="0.5"></path><g id="youtube-paths"><path d="M34.2685 18.0201V12.4901L37.7785 1.00012H34.9185L33.5885 6.23012C33.2885 7.42012 33.0785 8.62012 32.8885 9.49012H32.8085C32.6785 8.71012 32.4385 7.44012 32.1285 6.21012L30.8385 1.00012H27.9785L31.4385 12.4901V18.0201H34.2685Z"></path><path d="M41.1004 5.17012C37.8304 5.17012 36.9204 7.19012 36.9204 10.7901V12.6301C36.9204 15.9801 37.5604 18.2101 41.0404 18.2101C44.4304 18.2101 45.1804 16.1301 45.1804 12.6301V10.7901C45.1804 7.38012 44.4604 5.17012 41.1004 5.17012ZM42.2804 13.6401C42.2804 15.2601 42.0604 16.2901 41.0504 16.2901C40.0404 16.2901 39.8404 15.2401 39.8404 13.6401V9.72012C39.8404 8.33012 40.0004 7.10012 41.0504 7.10012C42.1404 7.10012 42.2804 8.40012 42.2804 9.72012V13.6401Z"></path><path d="M49.2713 18.2001C50.6413 18.2001 51.6013 17.7001 52.3613 16.6401H52.3913L52.4913 18.0001H54.7213V5.41012H51.8513V15.4101C51.5813 15.9001 51.0213 16.2101 50.4413 16.2101C49.6913 16.2101 49.5313 15.6101 49.5313 14.6501V5.41012H46.6513V14.8101C46.6513 16.8201 47.2413 18.2001 49.2713 18.2001Z"></path><path d="M59.9757 18.0001V3.25012H63.0257V1.00012H54.1257V3.25012H57.1657V18.0001H59.9757Z"></path><path d="M64.9315 18.2001C66.3015 18.2001 67.2615 17.7001 68.0215 16.6401H68.0515L68.1515 18.0001H70.3815V5.41012H67.5115V15.4101C67.2415 15.9001 66.6815 16.2101 66.1015 16.2101C65.3515 16.2101 65.1915 15.6101 65.1915 14.6501V5.41012H62.3115V14.8101C62.3115 16.8201 62.9015 18.2001 64.9315 18.2001Z"></path><path d="M77.7426 5.13012C76.4526 5.13012 75.5626 5.68012 74.9726 6.52012H74.9226C74.9926 5.39012 75.0226 4.52012 75.0226 3.71012V0.370117H72.2626V18.0001H74.6126L74.8226 16.9501H74.8626C75.4526 17.7001 76.3626 18.1801 77.5726 18.1801C79.9226 18.1801 80.5826 15.9001 80.5826 12.7101V10.7001C80.5826 7.23012 80.1626 5.13012 77.7426 5.13012ZM77.7026 12.5401C77.7026 14.8801 77.4826 16.1701 76.3326 16.1701C75.8326 16.1701 75.3326 15.9601 75.0226 15.5101V8.29012C75.2926 7.61012 75.8626 7.13012 76.4626 7.13012C77.5526 7.13012 77.7026 8.47012 77.7026 10.8901V12.5401Z"></path><path d="M89.8204 10.5001C89.8204 7.47012 89.5104 5.19012 85.9804 5.19012C82.6704 5.19012 81.9204 7.39012 81.9204 10.6201V12.8201C81.9204 15.9101 82.5904 18.2101 85.9004 18.2101C88.4404 18.2101 89.9004 16.9901 89.7104 14.2801L87.2404 14.1401C87.2204 15.5901 86.9804 16.2901 85.9604 16.2901C84.7704 16.2901 84.7404 15.1301 84.7404 13.3001V12.6501H89.8204V10.5001ZM85.9204 7.08012C87.0704 7.08012 87.1204 8.21012 87.1204 10.0701V10.9801H84.7404V10.0701C84.7404 8.23012 84.7804 7.08012 85.9204 7.08012Z"></path></g></g></svg>