<svg xmlns="http://www.w3.org/2000/svg" class="local-door-left-exit" aria-hidden="true" width="28.75" height="28.75" viewBox="0 0 32 32"><path d="M3.133 16.467 7.067 20.4c.566.567.933.433.933-.4v-8c0-.833-.367-.967-.933-.4l-3.934 3.933c-.333.334-.333.6 0 .934m3.234 1L17.1 17.5c.633 0 .867-.3.867-1.133v-.734c0-.833-.234-1.133-.867-1.133H6.367zM17.967 24H13c-1 0-1 0-1-1v-3.567h-2V23c0 2.233.767 3 3 3h4.967zM12 12.567V9c0-1 0-1 1-1h10c1 0 1 0 1 1v14c0 1 0 1-1 1h-1.4v2H23c2.233 0 3-.767 3-3V9c0-2.233-.767-3-3-3H13c-2.233 0-3 .767-3 3v3.567zM21.267 28.9l3.466-2.133C25.667 26.2 26 25.6 26 24.5V9.667c0-2.234-.667-2.6-2.567-1.434l-2.166 1.334c-.934.566-1.267 1.166-1.267 2.266v16.334c0 1.1.333 1.3 1.267.733"></path></svg>