<svg xmlns="http://www.w3.org/2000/svg" id="yt-ringo2-red-svg" class="external-icon" width="111" height="18" viewBox="0 0 111 18"><defs><clipPath id="clip0_161_5078"><rect width="111" height="18"></rect></clipPath></defs><g clip-path="url(#clip0_161_5078)"><path d="M13.0363 18C13.0363 18 21.2125 18 23.2406 17.46C24.3825 17.154 25.2413 16.272 25.5427 15.183C26.1 13.185 26.1 8.982 26.1 8.982C26.1 8.982 26.1 4.806 25.5427 2.826C25.2413 1.71 24.3825 0.846 23.2406 0.549C21.2125 0 13.0363 0 13.0363 0C13.0363 0 4.87833 0 2.8594 0.549C1.73574 0.846 0.858733 1.71 0.538992 2.826C0 4.806 0 8.982 0 8.982C0 8.982 0 13.185 0.538992 15.183C0.858733 16.272 1.73574 17.154 2.8594 17.46C4.87833 18 13.0363 18 13.0363 18Z" fill="#FF0000"></path><path d="M17.1 8.99999L10.35 5.17499V12.825L17.1 8.99999Z" fill="white"></path><path d="M111 0V18" stroke="grey" stroke-width="0.5"></path><g id="youtube-paths"><path d="M30.125 0.570001V17.57H32.915V11.57H33.505C37.045 11.57 38.715 9.57 38.715 6.14V5.45C38.715 1.77 37.005 0.570001 33.765 0.570001H30.125ZM35.775 6.2C35.775 8.6 35.025 9.55 33.455 9.55H32.915V2.64H33.505C35.365 2.64 35.775 3.37 35.775 5.7V6.2Z"></path><path d="M39.858 17.57H42.628V8.71C43.118 7.96 44.178 7.77 45.418 8.01L45.568 4.78C45.388 4.74 45.188 4.72 45.018 4.72C43.728 4.72 42.768 5.69 42.288 7.26H42.228L42.048 4.98H39.858V17.57Z"></path><path d="M53.832 10.07C53.832 7.04 53.522 4.76 49.992 4.76C46.682 4.76 45.932 6.96 45.932 10.19V12.39C45.932 15.48 46.602 17.78 49.912 17.78C52.452 17.78 53.912 16.56 53.722 13.85L51.252 13.71C51.232 15.16 50.992 15.86 49.972 15.86C48.782 15.86 48.752 14.7 48.752 12.87V12.22H53.832V10.07ZM49.932 6.65C51.082 6.65 51.132 7.78 51.132 9.64V10.55H48.752V9.64C48.752 7.8 48.792 6.65 49.932 6.65Z"></path><path d="M58.2905 17.57V7.5C58.6605 6.99 59.1805 6.72 59.7205 6.72C60.5105 6.72 60.7105 7.4 60.7105 8.26V17.57H63.5905L63.5705 7.55C63.9205 7.02 64.4405 6.72 65.0105 6.72C65.7505 6.72 66.0305 7.29 66.0305 8.26V17.57H68.9005V8.06C68.9005 5.96 68.1805 4.74 66.3405 4.74C65.0805 4.74 64.0805 5.22 63.2705 6.09C62.9305 5.26 62.2505 4.74 61.0505 4.74C59.7505 4.74 58.6505 5.29 57.8905 6.19H57.8505L57.6705 4.98H55.4205V17.57H58.2905Z"></path><path d="M72.1117 3.55C73.1317 3.55 73.5717 3.23 73.5717 1.89C73.5717 0.670001 73.1317 0.25 72.1117 0.25C71.1217 0.25 70.6517 0.61 70.6517 1.89C70.6517 3.23 71.1217 3.55 72.1117 3.55ZM70.7317 17.57H73.4717V4.98H70.7317V17.57Z"></path><path d="M77.9275 17.77C79.2975 17.77 80.2575 17.27 81.0175 16.21H81.0475L81.1475 17.57H83.3775V4.98H80.5075V14.98C80.2375 15.47 79.6775 15.78 79.0975 15.78C78.3475 15.78 78.1875 15.18 78.1875 14.22V4.98H75.3075V14.38C75.3075 16.39 75.8975 17.77 77.9275 17.77Z"></path><path d="M88.1186 17.57V7.5C88.4886 6.99 89.0086 6.72 89.5486 6.72C90.3386 6.72 90.5386 7.4 90.5386 8.26V17.57H93.4186L93.3986 7.55C93.7486 7.02 94.2686 6.72 94.8386 6.72C95.5786 6.72 95.8586 7.29 95.8586 8.26V17.57H98.7286V8.06C98.7286 5.96 98.0086 4.74 96.1686 4.74C94.9086 4.74 93.9086 5.22 93.0986 6.09C92.7586 5.26 92.0786 4.74 90.8786 4.74C89.5786 4.74 88.4786 5.29 87.7186 6.19H87.6786L87.4986 4.98H85.2486V17.57H88.1186Z"></path></g></g></svg>