<svg width="624" height="399" viewBox="0 0 624 399" fill="none" xmlns="http://www.w3.org/2000/svg">
<g clip-path="url(#clip0_500_116881)">
<g opacity="0.4">
<rect x="153" y="49.5" width="300" height="300" rx="150" fill="#468254"/>
</g>
<g opacity="0.4">
<rect x="177" y="73.5" width="252" height="252" rx="126" fill="#468254"/>
</g>
<g opacity="0.4">
<rect x="201" y="97.5" width="204" height="204" rx="102" fill="#468254"/>
</g>
<g opacity="0.4">
<rect x="225" y="121.5" width="156" height="156" rx="78" fill="#468254"/>
</g>
<g opacity="0.4">
<rect x="249" y="145.5" width="108" height="108" rx="54" fill="#468254"/>
</g>
<g filter="url(#filter0_d_500_116881)">
<rect x="232.5" y="268.5" width="120" height="100.5" rx="6" fill="white" shape-rendering="crispEdges"/>
<rect x="255.375" y="280.5" width="74.25" height="49.5" rx="1.5" fill="white" stroke="#E7E7E7" stroke-width="2.25"/>
<rect x="258" y="312" width="45" height="15" rx="1.5" fill="#559F5E"/>
<path d="M261 317.25H278.077M261 320.25H282M261 323.25H278.077" stroke="white" stroke-width="0.75"/>
<circle cx="261" cy="286.125" r="1.875" fill="#E7E7E7"/>
<circle cx="267" cy="286.125" r="1.875" fill="#E7E7E7"/>
<circle cx="273" cy="286.125" r="1.875" fill="#E7E7E7"/>
<rect x="285.75" y="318.75" width="13.5" height="3.75" rx="0.75" fill="#006FA7"/>
<path d="M244.854 353H246.33V349.58H250.314V348.332H246.33V345.848H250.782V344.6H244.854V353ZM253.346 344.6H251.906V353H253.346V344.6ZM257.536 353.144C257.784 353.144 258.02 353.12 258.244 353.072C258.468 353.032 258.676 352.972 258.868 352.892C259.068 352.804 259.252 352.696 259.42 352.568C259.588 352.44 259.736 352.292 259.864 352.124C260 351.948 260.112 351.752 260.2 351.536C260.296 351.32 260.368 351.084 260.416 350.828C260.464 350.572 260.488 350.296 260.488 350C260.488 349.704 260.464 349.428 260.416 349.172C260.368 348.916 260.296 348.68 260.2 348.464C260.112 348.248 260 348.056 259.864 347.888C259.736 347.712 259.588 347.56 259.42 347.432C259.252 347.304 259.068 347.2 258.868 347.12C258.676 347.032 258.468 346.968 258.244 346.928C258.02 346.88 257.784 346.856 257.536 346.856C257.288 346.856 257.052 346.88 256.828 346.928C256.604 346.968 256.392 347.032 256.192 347.12C256 347.2 255.82 347.304 255.652 347.432C255.484 347.56 255.332 347.712 255.196 347.888C255.068 348.056 254.956 348.248 254.86 348.464C254.772 348.68 254.704 348.916 254.656 349.172C254.608 349.428 254.584 349.704 254.584 350C254.584 350.296 254.608 350.572 254.656 350.828C254.704 351.084 254.772 351.32 254.86 351.536C254.956 351.752 255.068 351.948 255.196 352.124C255.332 352.292 255.484 352.44 255.652 352.568C255.82 352.696 256 352.804 256.192 352.892C256.392 352.972 256.604 353.032 256.828 353.072C257.052 353.12 257.288 353.144 257.536 353.144ZM257.536 351.992C257.096 351.992 256.74 351.828 256.468 351.5C256.204 351.164 256.072 350.664 256.072 350C256.072 349.336 256.204 348.84 256.468 348.512C256.74 348.176 257.096 348.008 257.536 348.008C257.976 348.008 258.328 348.176 258.592 348.512C258.864 348.84 259 349.336 259 350C259 350.664 258.864 351.164 258.592 351.5C258.328 351.828 257.976 351.992 257.536 351.992ZM267.115 353C267.075 352.912 267.039 352.832 267.007 352.76C266.975 352.68 266.947 352.612 266.923 352.556C266.907 352.492 266.887 352.432 266.863 352.376C266.847 352.32 266.831 352.268 266.815 352.22C266.807 352.172 266.799 352.124 266.791 352.076C266.783 352.02 266.775 351.968 266.767 351.92C266.767 351.864 266.763 351.808 266.755 351.752C266.755 351.688 266.755 351.624 266.755 351.56C266.755 351.488 266.755 351.408 266.755 351.32V348.764C266.755 348.14 266.523 347.668 266.059 347.348C265.603 347.02 264.979 346.856 264.187 346.856C263.387 346.856 262.755 347.012 262.291 347.324C261.835 347.636 261.607 348.104 261.607 348.728H263.059C263.067 348.48 263.171 348.292 263.371 348.164C263.571 348.036 263.843 347.972 264.187 347.972C264.547 347.972 264.823 348.036 265.015 348.164C265.215 348.284 265.315 348.476 265.315 348.74C265.315 348.82 265.303 348.896 265.279 348.968C265.255 349.032 265.215 349.088 265.159 349.136C265.111 349.184 265.055 349.228 264.991 349.268C264.927 349.308 264.851 349.344 264.763 349.376C264.683 349.4 264.595 349.424 264.499 349.448C264.403 349.464 264.299 349.48 264.187 349.496C264.083 349.512 263.975 349.528 263.863 349.544C263.751 349.56 263.635 349.576 263.515 349.592C263.403 349.608 263.291 349.628 263.179 349.652C263.067 349.676 262.955 349.7 262.843 349.724C262.731 349.748 262.619 349.78 262.507 349.82C262.403 349.86 262.303 349.904 262.207 349.952C262.111 350 262.019 350.056 261.931 350.12C261.851 350.184 261.779 350.256 261.715 350.336C261.651 350.416 261.591 350.508 261.535 350.612C261.487 350.716 261.451 350.832 261.427 350.96C261.403 351.08 261.391 351.216 261.391 351.368C261.391 351.944 261.575 352.38 261.943 352.676C262.319 352.972 262.779 353.12 263.323 353.12C263.771 353.12 264.167 353.024 264.511 352.832C264.863 352.632 265.131 352.356 265.315 352.004L265.663 353H267.115ZM262.867 351.2C262.867 351.112 262.879 351.032 262.903 350.96C262.927 350.88 262.963 350.812 263.011 350.756C263.059 350.692 263.111 350.636 263.167 350.588C263.231 350.54 263.303 350.496 263.383 350.456C263.463 350.416 263.547 350.38 263.635 350.348C263.723 350.316 263.815 350.284 263.911 350.252C264.007 350.22 264.103 350.192 264.199 350.168C264.295 350.136 264.391 350.108 264.487 350.084C264.591 350.052 264.691 350.02 264.787 349.988C264.883 349.948 264.975 349.908 265.063 349.868C265.151 349.828 265.235 349.784 265.315 349.736V350.492C265.315 350.988 265.167 351.368 264.871 351.632C264.583 351.896 264.255 352.028 263.887 352.028C263.567 352.028 263.315 351.964 263.131 351.836C262.955 351.7 262.867 351.488 262.867 351.2ZM269.983 350.996V348.152H271.483V347H269.983V345.44H268.555V347H267.619V348.152H268.555V351.26C268.555 351.908 268.703 352.36 268.999 352.616C269.303 352.872 269.735 353 270.295 353H271.483V351.848H270.763C270.499 351.848 270.303 351.788 270.175 351.668C270.047 351.54 269.983 351.316 269.983 350.996ZM273.983 344.6H272.543V345.944H273.983V344.6ZM273.983 347H272.543V353H273.983V347ZM276.876 347H275.496V353H276.936V349.556C276.936 349.052 277.052 348.676 277.284 348.428C277.524 348.172 277.84 348.044 278.232 348.044C278.6 348.044 278.888 348.152 279.096 348.368C279.304 348.584 279.408 348.92 279.408 349.376V353H280.848V349.172C280.848 348.38 280.66 347.796 280.284 347.42C279.916 347.044 279.436 346.856 278.844 346.856C278.396 346.856 278 346.96 277.656 347.168C277.312 347.376 277.052 347.68 276.876 348.08V347ZM284.489 352.616C284.929 352.616 285.325 352.52 285.677 352.328C286.037 352.128 286.321 351.84 286.529 351.464V352.928C286.529 353.384 286.401 353.744 286.145 354.008C285.897 354.28 285.521 354.416 285.017 354.416C284.513 354.416 284.137 354.28 283.889 354.008C283.649 353.744 283.529 353.408 283.529 353H282.089C282.089 353.776 282.357 354.392 282.893 354.848C283.429 355.312 284.137 355.544 285.017 355.544C285.905 355.544 286.617 355.316 287.153 354.86C287.697 354.404 287.969 353.76 287.969 352.928V347H286.577V348.104C286.369 347.696 286.081 347.388 285.713 347.18C285.353 346.964 284.945 346.856 284.489 346.856C283.785 346.856 283.201 347.104 282.737 347.6C282.281 348.096 282.053 348.808 282.053 349.736C282.053 350.664 282.281 351.376 282.737 351.872C283.201 352.368 283.785 352.616 284.489 352.616ZM285.041 351.512C284.585 351.512 284.221 351.364 283.949 351.068C283.677 350.772 283.541 350.328 283.541 349.736C283.541 349.144 283.677 348.7 283.949 348.404C284.221 348.108 284.585 347.96 285.041 347.96C285.497 347.96 285.857 348.108 286.121 348.404C286.393 348.7 286.529 349.144 286.529 349.736C286.529 350.328 286.393 350.772 286.121 351.068C285.857 351.364 285.497 351.512 285.041 351.512ZM299.041 353C298.913 352.84 298.821 352.64 298.765 352.4C298.709 352.16 298.681 351.86 298.681 351.5V350.588C298.681 350.012 298.549 349.572 298.285 349.268C298.021 348.956 297.649 348.768 297.169 348.704C297.665 348.584 298.061 348.368 298.357 348.056C298.653 347.744 298.801 347.32 298.801 346.784C298.801 346.08 298.525 345.54 297.973 345.164C297.429 344.788 296.709 344.6 295.813 344.6H292.081V353H293.557V349.652H296.113C296.497 349.652 296.773 349.748 296.941 349.94C297.109 350.132 297.193 350.424 297.193 350.816V352.1C297.193 352.284 297.205 352.456 297.229 352.616C297.261 352.768 297.313 352.896 297.385 353H299.041ZM295.693 345.848C296.197 345.848 296.581 345.952 296.845 346.16C297.117 346.36 297.253 346.684 297.253 347.132C297.253 347.572 297.117 347.896 296.845 348.104C296.581 348.312 296.197 348.416 295.693 348.416H293.557V345.848H295.693ZM302.981 353.144C303.229 353.144 303.465 353.12 303.689 353.072C303.913 353.032 304.121 352.972 304.313 352.892C304.513 352.804 304.697 352.696 304.865 352.568C305.033 352.44 305.181 352.292 305.309 352.124C305.445 351.948 305.557 351.752 305.645 351.536C305.741 351.32 305.813 351.084 305.861 350.828C305.909 350.572 305.933 350.296 305.933 350C305.933 349.704 305.909 349.428 305.861 349.172C305.813 348.916 305.741 348.68 305.645 348.464C305.557 348.248 305.445 348.056 305.309 347.888C305.181 347.712 305.033 347.56 304.865 347.432C304.697 347.304 304.513 347.2 304.313 347.12C304.121 347.032 303.913 346.968 303.689 346.928C303.465 346.88 303.229 346.856 302.981 346.856C302.733 346.856 302.497 346.88 302.273 346.928C302.049 346.968 301.837 347.032 301.637 347.12C301.445 347.2 301.265 347.304 301.097 347.432C300.929 347.56 300.777 347.712 300.641 347.888C300.513 348.056 300.401 348.248 300.305 348.464C300.217 348.68 300.149 348.916 300.101 349.172C300.053 349.428 300.029 349.704 300.029 350C300.029 350.296 300.053 350.572 300.101 350.828C300.149 351.084 300.217 351.32 300.305 351.536C300.401 351.752 300.513 351.948 300.641 352.124C300.777 352.292 300.929 352.44 301.097 352.568C301.265 352.696 301.445 352.804 301.637 352.892C301.837 352.972 302.049 353.032 302.273 353.072C302.497 353.12 302.733 353.144 302.981 353.144ZM302.981 351.992C302.541 351.992 302.185 351.828 301.913 351.5C301.649 351.164 301.517 350.664 301.517 350C301.517 349.336 301.649 348.84 301.913 348.512C302.185 348.176 302.541 348.008 302.981 348.008C303.421 348.008 303.773 348.176 304.037 348.512C304.309 348.84 304.445 349.336 304.445 350C304.445 350.664 304.309 351.164 304.037 351.5C303.773 351.828 303.421 351.992 302.981 351.992ZM307.112 350.876C307.112 351.644 307.292 352.216 307.652 352.592C308.02 352.96 308.492 353.144 309.068 353.144C309.5 353.144 309.88 353.048 310.208 352.856C310.536 352.656 310.788 352.368 310.964 351.992V353H312.356V347H310.916V350.492C310.916 350.972 310.8 351.336 310.568 351.584C310.344 351.832 310.048 351.956 309.68 351.956C309.32 351.956 309.04 351.852 308.84 351.644C308.648 351.428 308.552 351.104 308.552 350.672V347H307.112V350.876ZM315.232 347H313.852V353H315.292V349.556C315.292 349.052 315.408 348.676 315.64 348.428C315.88 348.172 316.196 348.044 316.588 348.044C316.956 348.044 317.244 348.152 317.452 348.368C317.66 348.584 317.764 348.92 317.764 349.376V353H319.204V349.172C319.204 348.38 319.016 347.796 318.64 347.42C318.272 347.044 317.792 346.856 317.2 346.856C316.752 346.856 316.356 346.96 316.012 347.168C315.668 347.376 315.408 347.68 315.232 348.08V347ZM324.932 353H326.324V344.6H324.884V348.092C324.676 347.684 324.392 347.376 324.032 347.168C323.68 346.96 323.284 346.856 322.844 346.856C322.14 346.856 321.556 347.124 321.092 347.66C320.636 348.188 320.408 348.968 320.408 350C320.408 351.032 320.636 351.816 321.092 352.352C321.556 352.88 322.14 353.144 322.844 353.144C323.3 353.144 323.708 353.032 324.068 352.808C324.436 352.576 324.724 352.244 324.932 351.812V353ZM323.396 348.008C323.852 348.008 324.212 348.176 324.476 348.512C324.748 348.84 324.884 349.336 324.884 350C324.884 350.664 324.748 351.164 324.476 351.5C324.212 351.828 323.852 351.992 323.396 351.992C322.94 351.992 322.576 351.828 322.304 351.5C322.032 351.164 321.896 350.664 321.896 350C321.896 349.336 322.032 348.84 322.304 348.512C322.576 348.176 322.94 348.008 323.396 348.008ZM333.244 351.176H331.768C331.712 351.424 331.58 351.628 331.372 351.788C331.172 351.948 330.884 352.028 330.508 352.028C330.076 352.028 329.72 351.892 329.44 351.62C329.16 351.348 329.008 350.94 328.984 350.396H333.34C333.348 350.332 333.352 350.268 333.352 350.204C333.352 350.14 333.352 350.072 333.352 350C333.352 349.736 333.332 349.492 333.292 349.268C333.26 349.036 333.208 348.824 333.136 348.632C333.064 348.432 332.976 348.252 332.872 348.092C332.776 347.924 332.664 347.776 332.536 347.648C332.416 347.512 332.28 347.396 332.128 347.3C331.976 347.204 331.812 347.124 331.636 347.06C331.468 346.988 331.288 346.936 331.096 346.904C330.912 346.872 330.716 346.856 330.508 346.856C330.26 346.856 330.024 346.88 329.8 346.928C329.576 346.968 329.364 347.032 329.164 347.12C328.972 347.2 328.792 347.304 328.624 347.432C328.456 347.56 328.304 347.712 328.168 347.888C328.04 348.056 327.928 348.248 327.832 348.464C327.744 348.672 327.676 348.904 327.628 349.16C327.58 349.416 327.556 349.696 327.556 350C327.556 350.304 327.58 350.584 327.628 350.84C327.676 351.096 327.744 351.332 327.832 351.548C327.928 351.756 328.04 351.948 328.168 352.124C328.304 352.292 328.456 352.44 328.624 352.568C328.792 352.696 328.972 352.804 329.164 352.892C329.364 352.972 329.576 353.032 329.8 353.072C330.024 353.12 330.26 353.144 330.508 353.144C331.252 353.144 331.872 352.968 332.368 352.616C332.872 352.256 333.164 351.776 333.244 351.176ZM330.508 347.972C330.892 347.972 331.208 348.092 331.456 348.332C331.712 348.564 331.864 348.916 331.912 349.388H329.008C329.064 348.916 329.224 348.564 329.488 348.332C329.76 348.092 330.1 347.972 330.508 347.972ZM338.866 353H340.258V344.6H338.818V348.092C338.61 347.684 338.326 347.376 337.966 347.168C337.614 346.96 337.218 346.856 336.778 346.856C336.074 346.856 335.49 347.124 335.026 347.66C334.57 348.188 334.342 348.968 334.342 350C334.342 351.032 334.57 351.816 335.026 352.352C335.49 352.88 336.074 353.144 336.778 353.144C337.234 353.144 337.642 353.032 338.002 352.808C338.37 352.576 338.658 352.244 338.866 351.812V353ZM337.33 348.008C337.786 348.008 338.146 348.176 338.41 348.512C338.682 348.84 338.818 349.336 338.818 350C338.818 350.664 338.682 351.164 338.41 351.5C338.146 351.828 337.786 351.992 337.33 351.992C336.874 351.992 336.51 351.828 336.238 351.5C335.966 351.164 335.83 350.664 335.83 350C335.83 349.336 335.966 348.84 336.238 348.512C336.51 348.176 336.874 348.008 337.33 348.008Z" fill="#1E2D25"/>
</g>
<g filter="url(#filter1_d_500_116881)">
<rect x="100.5" y="268.5" width="120" height="100.5" rx="6" fill="white" shape-rendering="crispEdges"/>
<rect x="123.375" y="280.5" width="74.25" height="49.5" rx="1.5" fill="white" stroke="#E7E7E7" stroke-width="2.25"/>
<rect x="123.75" y="314.25" width="45" height="15" rx="1.5" fill="#559F5E"/>
<path d="M126.75 319.5H143.827M126.75 322.5H147.75M126.75 325.5H143.827" stroke="white" stroke-width="0.75"/>
<circle cx="129" cy="286.125" r="1.875" fill="#E7E7E7"/>
<circle cx="135" cy="286.125" r="1.875" fill="#E7E7E7"/>
<circle cx="141" cy="286.125" r="1.875" fill="#E7E7E7"/>
<rect x="151.5" y="321" width="13.5" height="3.75" rx="0.75" fill="#006FA7"/>
<path d="M127.286 353H128.762V349.58H132.746V348.332H128.762V345.848H133.214V344.6H127.286V353ZM135.778 344.6H134.338V353H135.778V344.6ZM139.967 353.144C140.215 353.144 140.451 353.12 140.675 353.072C140.899 353.032 141.107 352.972 141.299 352.892C141.499 352.804 141.683 352.696 141.851 352.568C142.019 352.44 142.167 352.292 142.295 352.124C142.431 351.948 142.543 351.752 142.631 351.536C142.727 351.32 142.799 351.084 142.847 350.828C142.895 350.572 142.919 350.296 142.919 350C142.919 349.704 142.895 349.428 142.847 349.172C142.799 348.916 142.727 348.68 142.631 348.464C142.543 348.248 142.431 348.056 142.295 347.888C142.167 347.712 142.019 347.56 141.851 347.432C141.683 347.304 141.499 347.2 141.299 347.12C141.107 347.032 140.899 346.968 140.675 346.928C140.451 346.88 140.215 346.856 139.967 346.856C139.719 346.856 139.483 346.88 139.259 346.928C139.035 346.968 138.823 347.032 138.623 347.12C138.431 347.2 138.251 347.304 138.083 347.432C137.915 347.56 137.763 347.712 137.627 347.888C137.499 348.056 137.387 348.248 137.291 348.464C137.203 348.68 137.135 348.916 137.087 349.172C137.039 349.428 137.015 349.704 137.015 350C137.015 350.296 137.039 350.572 137.087 350.828C137.135 351.084 137.203 351.32 137.291 351.536C137.387 351.752 137.499 351.948 137.627 352.124C137.763 352.292 137.915 352.44 138.083 352.568C138.251 352.696 138.431 352.804 138.623 352.892C138.823 352.972 139.035 353.032 139.259 353.072C139.483 353.12 139.719 353.144 139.967 353.144ZM139.967 351.992C139.527 351.992 139.171 351.828 138.899 351.5C138.635 351.164 138.503 350.664 138.503 350C138.503 349.336 138.635 348.84 138.899 348.512C139.171 348.176 139.527 348.008 139.967 348.008C140.407 348.008 140.759 348.176 141.023 348.512C141.295 348.84 141.431 349.336 141.431 350C141.431 350.664 141.295 351.164 141.023 351.5C140.759 351.828 140.407 351.992 139.967 351.992ZM149.546 353C149.506 352.912 149.47 352.832 149.438 352.76C149.406 352.68 149.378 352.612 149.354 352.556C149.338 352.492 149.318 352.432 149.294 352.376C149.278 352.32 149.262 352.268 149.246 352.22C149.238 352.172 149.23 352.124 149.222 352.076C149.214 352.02 149.206 351.968 149.198 351.92C149.198 351.864 149.194 351.808 149.186 351.752C149.186 351.688 149.186 351.624 149.186 351.56C149.186 351.488 149.186 351.408 149.186 351.32V348.764C149.186 348.14 148.954 347.668 148.49 347.348C148.034 347.02 147.41 346.856 146.618 346.856C145.818 346.856 145.186 347.012 144.722 347.324C144.266 347.636 144.038 348.104 144.038 348.728H145.49C145.498 348.48 145.602 348.292 145.802 348.164C146.002 348.036 146.274 347.972 146.618 347.972C146.978 347.972 147.254 348.036 147.446 348.164C147.646 348.284 147.746 348.476 147.746 348.74C147.746 348.82 147.734 348.896 147.71 348.968C147.686 349.032 147.646 349.088 147.59 349.136C147.542 349.184 147.486 349.228 147.422 349.268C147.358 349.308 147.282 349.344 147.194 349.376C147.114 349.4 147.026 349.424 146.93 349.448C146.834 349.464 146.73 349.48 146.618 349.496C146.514 349.512 146.406 349.528 146.294 349.544C146.182 349.56 146.066 349.576 145.946 349.592C145.834 349.608 145.722 349.628 145.61 349.652C145.498 349.676 145.386 349.7 145.274 349.724C145.162 349.748 145.05 349.78 144.938 349.82C144.834 349.86 144.734 349.904 144.638 349.952C144.542 350 144.45 350.056 144.362 350.12C144.282 350.184 144.21 350.256 144.146 350.336C144.082 350.416 144.022 350.508 143.966 350.612C143.918 350.716 143.882 350.832 143.858 350.96C143.834 351.08 143.822 351.216 143.822 351.368C143.822 351.944 144.006 352.38 144.374 352.676C144.75 352.972 145.21 353.12 145.754 353.12C146.202 353.12 146.598 353.024 146.942 352.832C147.294 352.632 147.562 352.356 147.746 352.004L148.094 353H149.546ZM145.298 351.2C145.298 351.112 145.31 351.032 145.334 350.96C145.358 350.88 145.394 350.812 145.442 350.756C145.49 350.692 145.542 350.636 145.598 350.588C145.662 350.54 145.734 350.496 145.814 350.456C145.894 350.416 145.978 350.38 146.066 350.348C146.154 350.316 146.246 350.284 146.342 350.252C146.438 350.22 146.534 350.192 146.63 350.168C146.726 350.136 146.822 350.108 146.918 350.084C147.022 350.052 147.122 350.02 147.218 349.988C147.314 349.948 147.406 349.908 147.494 349.868C147.582 349.828 147.666 349.784 147.746 349.736V350.492C147.746 350.988 147.598 351.368 147.302 351.632C147.014 351.896 146.686 352.028 146.318 352.028C145.998 352.028 145.746 351.964 145.562 351.836C145.386 351.7 145.298 351.488 145.298 351.2ZM152.415 350.996V348.152H153.915V347H152.415V345.44H150.987V347H150.051V348.152H150.987V351.26C150.987 351.908 151.135 352.36 151.431 352.616C151.735 352.872 152.167 353 152.727 353H153.915V351.848H153.195C152.931 351.848 152.735 351.788 152.607 351.668C152.479 351.54 152.415 351.316 152.415 350.996ZM156.415 344.6H154.975V345.944H156.415V344.6ZM156.415 347H154.975V353H156.415V347ZM159.308 347H157.928V353H159.368V349.556C159.368 349.052 159.484 348.676 159.716 348.428C159.956 348.172 160.272 348.044 160.664 348.044C161.032 348.044 161.32 348.152 161.528 348.368C161.736 348.584 161.84 348.92 161.84 349.376V353H163.28V349.172C163.28 348.38 163.092 347.796 162.716 347.42C162.348 347.044 161.868 346.856 161.276 346.856C160.828 346.856 160.432 346.96 160.088 347.168C159.744 347.376 159.484 347.68 159.308 348.08V347ZM166.92 352.616C167.36 352.616 167.756 352.52 168.108 352.328C168.468 352.128 168.752 351.84 168.96 351.464V352.928C168.96 353.384 168.832 353.744 168.576 354.008C168.328 354.28 167.952 354.416 167.448 354.416C166.944 354.416 166.568 354.28 166.32 354.008C166.08 353.744 165.96 353.408 165.96 353H164.52C164.52 353.776 164.788 354.392 165.324 354.848C165.86 355.312 166.568 355.544 167.448 355.544C168.336 355.544 169.048 355.316 169.584 354.86C170.128 354.404 170.4 353.76 170.4 352.928V347H169.008V348.104C168.8 347.696 168.512 347.388 168.144 347.18C167.784 346.964 167.376 346.856 166.92 346.856C166.216 346.856 165.632 347.104 165.168 347.6C164.712 348.096 164.484 348.808 164.484 349.736C164.484 350.664 164.712 351.376 165.168 351.872C165.632 352.368 166.216 352.616 166.92 352.616ZM167.472 351.512C167.016 351.512 166.652 351.364 166.38 351.068C166.108 350.772 165.972 350.328 165.972 349.736C165.972 349.144 166.108 348.7 166.38 348.404C166.652 348.108 167.016 347.96 167.472 347.96C167.928 347.96 168.288 348.108 168.552 348.404C168.824 348.7 168.96 349.144 168.96 349.736C168.96 350.328 168.824 350.772 168.552 351.068C168.288 351.364 167.928 351.512 167.472 351.512ZM174.512 353H175.988V349.58H179.972V348.332H175.988V345.848H180.44V344.6H174.512V353ZM183.005 344.6H181.565V353H183.005V344.6ZM189.906 353C189.866 352.912 189.83 352.832 189.798 352.76C189.766 352.68 189.738 352.612 189.714 352.556C189.698 352.492 189.678 352.432 189.654 352.376C189.638 352.32 189.622 352.268 189.606 352.22C189.598 352.172 189.59 352.124 189.582 352.076C189.574 352.02 189.566 351.968 189.558 351.92C189.558 351.864 189.554 351.808 189.546 351.752C189.546 351.688 189.546 351.624 189.546 351.56C189.546 351.488 189.546 351.408 189.546 351.32V348.764C189.546 348.14 189.314 347.668 188.85 347.348C188.394 347.02 187.77 346.856 186.978 346.856C186.178 346.856 185.546 347.012 185.082 347.324C184.626 347.636 184.398 348.104 184.398 348.728H185.85C185.858 348.48 185.962 348.292 186.162 348.164C186.362 348.036 186.634 347.972 186.978 347.972C187.338 347.972 187.614 348.036 187.806 348.164C188.006 348.284 188.106 348.476 188.106 348.74C188.106 348.82 188.094 348.896 188.07 348.968C188.046 349.032 188.006 349.088 187.95 349.136C187.902 349.184 187.846 349.228 187.782 349.268C187.718 349.308 187.642 349.344 187.554 349.376C187.474 349.4 187.386 349.424 187.29 349.448C187.194 349.464 187.09 349.48 186.978 349.496C186.874 349.512 186.766 349.528 186.654 349.544C186.542 349.56 186.426 349.576 186.306 349.592C186.194 349.608 186.082 349.628 185.97 349.652C185.858 349.676 185.746 349.7 185.634 349.724C185.522 349.748 185.41 349.78 185.298 349.82C185.194 349.86 185.094 349.904 184.998 349.952C184.902 350 184.81 350.056 184.722 350.12C184.642 350.184 184.57 350.256 184.506 350.336C184.442 350.416 184.382 350.508 184.326 350.612C184.278 350.716 184.242 350.832 184.218 350.96C184.194 351.08 184.182 351.216 184.182 351.368C184.182 351.944 184.366 352.38 184.734 352.676C185.11 352.972 185.57 353.12 186.114 353.12C186.562 353.12 186.958 353.024 187.302 352.832C187.654 352.632 187.922 352.356 188.106 352.004L188.454 353H189.906ZM185.658 351.2C185.658 351.112 185.67 351.032 185.694 350.96C185.718 350.88 185.754 350.812 185.802 350.756C185.85 350.692 185.902 350.636 185.958 350.588C186.022 350.54 186.094 350.496 186.174 350.456C186.254 350.416 186.338 350.38 186.426 350.348C186.514 350.316 186.606 350.284 186.702 350.252C186.798 350.22 186.894 350.192 186.99 350.168C187.086 350.136 187.182 350.108 187.278 350.084C187.382 350.052 187.482 350.02 187.578 349.988C187.674 349.948 187.766 349.908 187.854 349.868C187.942 349.828 188.026 349.784 188.106 349.736V350.492C188.106 350.988 187.958 351.368 187.662 351.632C187.374 351.896 187.046 352.028 186.678 352.028C186.358 352.028 186.106 351.964 185.922 351.836C185.746 351.7 185.658 351.488 185.658 351.2ZM192.774 350.996V348.152H194.274V347H192.774V345.44H191.346V347H190.41V348.152H191.346V351.26C191.346 351.908 191.494 352.36 191.79 352.616C192.094 352.872 192.526 353 193.086 353H194.274V351.848H193.554C193.29 351.848 193.094 351.788 192.966 351.668C192.838 351.54 192.774 351.316 192.774 350.996Z" fill="#1E2D25"/>
</g>
<g filter="url(#filter2_d_500_116881)">
<rect x="230.25" y="141.75" width="120" height="115.5" rx="6" fill="#F8F8F8" shape-rendering="crispEdges"/>
<rect x="253.125" y="153.75" width="74.25" height="49.5" rx="1.5" fill="white" stroke="#E7E7E7" stroke-width="2.25"/>
<rect x="255.75" y="182.25" width="27" height="18.75" rx="1.5" fill="#559F5E"/>
<path d="M258.75 185.25H275.827M258.75 188.25H279.75M258.75 191.25H275.827" stroke="white" stroke-width="0.75"/>
<circle cx="258.75" cy="159.375" r="1.875" fill="#E7E7E7"/>
<circle cx="264.75" cy="159.375" r="1.875" fill="#E7E7E7"/>
<circle cx="270.75" cy="159.375" r="1.875" fill="#E7E7E7"/>
<rect x="258.75" y="194.25" width="13.5" height="3.75" rx="0.75" fill="#006FA7"/>
<path d="M268.749 226.25H270.225V222.83H274.209V221.582H270.225V219.098H274.677V217.85H268.749V226.25ZM277.241 217.85H275.801V226.25H277.241V217.85ZM281.43 226.394C281.678 226.394 281.914 226.37 282.138 226.322C282.362 226.282 282.57 226.222 282.762 226.142C282.962 226.054 283.146 225.946 283.314 225.818C283.482 225.69 283.63 225.542 283.758 225.374C283.894 225.198 284.006 225.002 284.094 224.786C284.19 224.57 284.262 224.334 284.31 224.078C284.358 223.822 284.382 223.546 284.382 223.25C284.382 222.954 284.358 222.678 284.31 222.422C284.262 222.166 284.19 221.93 284.094 221.714C284.006 221.498 283.894 221.306 283.758 221.138C283.63 220.962 283.482 220.81 283.314 220.682C283.146 220.554 282.962 220.45 282.762 220.37C282.57 220.282 282.362 220.218 282.138 220.178C281.914 220.13 281.678 220.106 281.43 220.106C281.182 220.106 280.946 220.13 280.722 220.178C280.498 220.218 280.286 220.282 280.086 220.37C279.894 220.45 279.714 220.554 279.546 220.682C279.378 220.81 279.226 220.962 279.09 221.138C278.962 221.306 278.85 221.498 278.754 221.714C278.666 221.93 278.598 222.166 278.55 222.422C278.502 222.678 278.478 222.954 278.478 223.25C278.478 223.546 278.502 223.822 278.55 224.078C278.598 224.334 278.666 224.57 278.754 224.786C278.85 225.002 278.962 225.198 279.09 225.374C279.226 225.542 279.378 225.69 279.546 225.818C279.714 225.946 279.894 226.054 280.086 226.142C280.286 226.222 280.498 226.282 280.722 226.322C280.946 226.37 281.182 226.394 281.43 226.394ZM281.43 225.242C280.99 225.242 280.634 225.078 280.362 224.75C280.098 224.414 279.966 223.914 279.966 223.25C279.966 222.586 280.098 222.09 280.362 221.762C280.634 221.426 280.99 221.258 281.43 221.258C281.87 221.258 282.222 221.426 282.486 221.762C282.758 222.09 282.894 222.586 282.894 223.25C282.894 223.914 282.758 224.414 282.486 224.75C282.222 225.078 281.87 225.242 281.43 225.242ZM291.009 226.25C290.969 226.162 290.933 226.082 290.901 226.01C290.869 225.93 290.841 225.862 290.817 225.806C290.801 225.742 290.781 225.682 290.757 225.626C290.741 225.57 290.725 225.518 290.709 225.47C290.701 225.422 290.693 225.374 290.685 225.326C290.677 225.27 290.669 225.218 290.661 225.17C290.661 225.114 290.657 225.058 290.649 225.002C290.649 224.938 290.649 224.874 290.649 224.81C290.649 224.738 290.649 224.658 290.649 224.57V222.014C290.649 221.39 290.417 220.918 289.953 220.598C289.497 220.27 288.873 220.106 288.081 220.106C287.281 220.106 286.649 220.262 286.185 220.574C285.729 220.886 285.501 221.354 285.501 221.978H286.953C286.961 221.73 287.065 221.542 287.265 221.414C287.465 221.286 287.737 221.222 288.081 221.222C288.441 221.222 288.717 221.286 288.909 221.414C289.109 221.534 289.209 221.726 289.209 221.99C289.209 222.07 289.197 222.146 289.173 222.218C289.149 222.282 289.109 222.338 289.053 222.386C289.005 222.434 288.949 222.478 288.885 222.518C288.821 222.558 288.745 222.594 288.657 222.626C288.577 222.65 288.489 222.674 288.393 222.698C288.297 222.714 288.193 222.73 288.081 222.746C287.977 222.762 287.869 222.778 287.757 222.794C287.645 222.81 287.529 222.826 287.409 222.842C287.297 222.858 287.185 222.878 287.073 222.902C286.961 222.926 286.849 222.95 286.737 222.974C286.625 222.998 286.513 223.03 286.401 223.07C286.297 223.11 286.197 223.154 286.101 223.202C286.005 223.25 285.913 223.306 285.825 223.37C285.745 223.434 285.673 223.506 285.609 223.586C285.545 223.666 285.485 223.758 285.429 223.862C285.381 223.966 285.345 224.082 285.321 224.21C285.297 224.33 285.285 224.466 285.285 224.618C285.285 225.194 285.469 225.63 285.837 225.926C286.213 226.222 286.673 226.37 287.217 226.37C287.665 226.37 288.061 226.274 288.405 226.082C288.757 225.882 289.025 225.606 289.209 225.254L289.557 226.25H291.009ZM286.761 224.45C286.761 224.362 286.773 224.282 286.797 224.21C286.821 224.13 286.857 224.062 286.905 224.006C286.953 223.942 287.005 223.886 287.061 223.838C287.125 223.79 287.197 223.746 287.277 223.706C287.357 223.666 287.441 223.63 287.529 223.598C287.617 223.566 287.709 223.534 287.805 223.502C287.901 223.47 287.997 223.442 288.093 223.418C288.189 223.386 288.285 223.358 288.381 223.334C288.485 223.302 288.585 223.27 288.681 223.238C288.777 223.198 288.869 223.158 288.957 223.118C289.045 223.078 289.129 223.034 289.209 222.986V223.742C289.209 224.238 289.061 224.618 288.765 224.882C288.477 225.146 288.149 225.278 287.781 225.278C287.461 225.278 287.209 225.214 287.025 225.086C286.849 224.95 286.761 224.738 286.761 224.45ZM293.878 224.246V221.402H295.378V220.25H293.878V218.69H292.45V220.25H291.514V221.402H292.45V224.51C292.45 225.158 292.598 225.61 292.894 225.866C293.198 226.122 293.63 226.25 294.19 226.25H295.378V225.098H294.658C294.394 225.098 294.198 225.038 294.07 224.918C293.942 224.79 293.878 224.566 293.878 224.246ZM297.878 217.85H296.438V219.194H297.878V217.85ZM297.878 220.25H296.438V226.25H297.878V220.25ZM300.771 220.25H299.391V226.25H300.831V222.806C300.831 222.302 300.947 221.926 301.179 221.678C301.419 221.422 301.735 221.294 302.127 221.294C302.495 221.294 302.783 221.402 302.991 221.618C303.199 221.834 303.303 222.17 303.303 222.626V226.25H304.743V222.422C304.743 221.63 304.555 221.046 304.179 220.67C303.811 220.294 303.331 220.106 302.739 220.106C302.291 220.106 301.895 220.21 301.551 220.418C301.207 220.626 300.947 220.93 300.771 221.33V220.25ZM308.383 225.866C308.823 225.866 309.219 225.77 309.571 225.578C309.931 225.378 310.215 225.09 310.423 224.714V226.178C310.423 226.634 310.295 226.994 310.039 227.258C309.791 227.53 309.415 227.666 308.911 227.666C308.407 227.666 308.031 227.53 307.783 227.258C307.543 226.994 307.423 226.658 307.423 226.25H305.983C305.983 227.026 306.251 227.642 306.787 228.098C307.323 228.562 308.031 228.794 308.911 228.794C309.799 228.794 310.511 228.566 311.047 228.11C311.591 227.654 311.863 227.01 311.863 226.178V220.25H310.471V221.354C310.263 220.946 309.975 220.638 309.607 220.43C309.247 220.214 308.839 220.106 308.383 220.106C307.679 220.106 307.095 220.354 306.631 220.85C306.175 221.346 305.947 222.058 305.947 222.986C305.947 223.914 306.175 224.626 306.631 225.122C307.095 225.618 307.679 225.866 308.383 225.866ZM308.935 224.762C308.479 224.762 308.115 224.614 307.843 224.318C307.571 224.022 307.435 223.578 307.435 222.986C307.435 222.394 307.571 221.95 307.843 221.654C308.115 221.358 308.479 221.21 308.935 221.21C309.391 221.21 309.751 221.358 310.015 221.654C310.287 221.95 310.423 222.394 310.423 222.986C310.423 223.578 310.287 224.022 310.015 224.318C309.751 224.614 309.391 224.762 308.935 224.762ZM252.547 241.25C252.419 241.09 252.327 240.89 252.271 240.65C252.215 240.41 252.187 240.11 252.187 239.75V238.838C252.187 238.262 252.055 237.822 251.791 237.518C251.527 237.206 251.155 237.018 250.675 236.954C251.171 236.834 251.567 236.618 251.863 236.306C252.159 235.994 252.307 235.57 252.307 235.034C252.307 234.33 252.031 233.79 251.479 233.414C250.935 233.038 250.215 232.85 249.319 232.85H245.587V241.25H247.063V237.902H249.619C250.003 237.902 250.279 237.998 250.447 238.19C250.615 238.382 250.699 238.674 250.699 239.066V240.35C250.699 240.534 250.711 240.706 250.735 240.866C250.767 241.018 250.819 241.146 250.891 241.25H252.547ZM249.199 234.098C249.703 234.098 250.087 234.202 250.351 234.41C250.623 234.61 250.759 234.934 250.759 235.382C250.759 235.822 250.623 236.146 250.351 236.354C250.087 236.562 249.703 236.666 249.199 236.666H247.063V234.098H249.199ZM256.487 241.394C256.735 241.394 256.971 241.37 257.195 241.322C257.419 241.282 257.627 241.222 257.819 241.142C258.019 241.054 258.203 240.946 258.371 240.818C258.539 240.69 258.687 240.542 258.815 240.374C258.951 240.198 259.063 240.002 259.151 239.786C259.247 239.57 259.319 239.334 259.367 239.078C259.415 238.822 259.439 238.546 259.439 238.25C259.439 237.954 259.415 237.678 259.367 237.422C259.319 237.166 259.247 236.93 259.151 236.714C259.063 236.498 258.951 236.306 258.815 236.138C258.687 235.962 258.539 235.81 258.371 235.682C258.203 235.554 258.019 235.45 257.819 235.37C257.627 235.282 257.419 235.218 257.195 235.178C256.971 235.13 256.735 235.106 256.487 235.106C256.239 235.106 256.003 235.13 255.779 235.178C255.555 235.218 255.343 235.282 255.143 235.37C254.951 235.45 254.771 235.554 254.603 235.682C254.435 235.81 254.283 235.962 254.147 236.138C254.019 236.306 253.907 236.498 253.811 236.714C253.723 236.93 253.655 237.166 253.607 237.422C253.559 237.678 253.535 237.954 253.535 238.25C253.535 238.546 253.559 238.822 253.607 239.078C253.655 239.334 253.723 239.57 253.811 239.786C253.907 240.002 254.019 240.198 254.147 240.374C254.283 240.542 254.435 240.69 254.603 240.818C254.771 240.946 254.951 241.054 255.143 241.142C255.343 241.222 255.555 241.282 255.779 241.322C256.003 241.37 256.239 241.394 256.487 241.394ZM256.487 240.242C256.047 240.242 255.691 240.078 255.419 239.75C255.155 239.414 255.023 238.914 255.023 238.25C255.023 237.586 255.155 237.09 255.419 236.762C255.691 236.426 256.047 236.258 256.487 236.258C256.927 236.258 257.279 236.426 257.543 236.762C257.815 237.09 257.951 237.586 257.951 238.25C257.951 238.914 257.815 239.414 257.543 239.75C257.279 240.078 256.927 240.242 256.487 240.242ZM260.618 239.126C260.618 239.894 260.798 240.466 261.158 240.842C261.526 241.21 261.998 241.394 262.574 241.394C263.006 241.394 263.386 241.298 263.714 241.106C264.042 240.906 264.294 240.618 264.47 240.242V241.25H265.862V235.25H264.422V238.742C264.422 239.222 264.306 239.586 264.074 239.834C263.85 240.082 263.554 240.206 263.186 240.206C262.826 240.206 262.546 240.102 262.346 239.894C262.154 239.678 262.058 239.354 262.058 238.922V235.25H260.618V239.126ZM268.738 235.25H267.358V241.25H268.798V237.806C268.798 237.302 268.914 236.926 269.146 236.678C269.386 236.422 269.702 236.294 270.094 236.294C270.462 236.294 270.75 236.402 270.958 236.618C271.166 236.834 271.27 237.17 271.27 237.626V241.25H272.71V237.422C272.71 236.63 272.522 236.046 272.146 235.67C271.778 235.294 271.298 235.106 270.706 235.106C270.258 235.106 269.862 235.21 269.518 235.418C269.174 235.626 268.914 235.93 268.738 236.33V235.25ZM278.438 241.25H279.83V232.85H278.39V236.342C278.182 235.934 277.898 235.626 277.538 235.418C277.186 235.21 276.79 235.106 276.35 235.106C275.646 235.106 275.062 235.374 274.598 235.91C274.142 236.438 273.914 237.218 273.914 238.25C273.914 239.282 274.142 240.066 274.598 240.602C275.062 241.13 275.646 241.394 276.35 241.394C276.806 241.394 277.214 241.282 277.574 241.058C277.942 240.826 278.23 240.494 278.438 240.062V241.25ZM276.902 236.258C277.358 236.258 277.718 236.426 277.982 236.762C278.254 237.09 278.39 237.586 278.39 238.25C278.39 238.914 278.254 239.414 277.982 239.75C277.718 240.078 277.358 240.242 276.902 240.242C276.446 240.242 276.082 240.078 275.81 239.75C275.538 239.414 275.402 238.914 275.402 238.25C275.402 237.586 275.538 237.09 275.81 236.762C276.082 236.426 276.446 236.258 276.902 236.258ZM286.75 239.426H285.274C285.218 239.674 285.086 239.878 284.878 240.038C284.678 240.198 284.39 240.278 284.014 240.278C283.582 240.278 283.226 240.142 282.946 239.87C282.666 239.598 282.514 239.19 282.49 238.646H286.846C286.854 238.582 286.858 238.518 286.858 238.454C286.858 238.39 286.858 238.322 286.858 238.25C286.858 237.986 286.838 237.742 286.798 237.518C286.766 237.286 286.714 237.074 286.642 236.882C286.57 236.682 286.482 236.502 286.378 236.342C286.282 236.174 286.17 236.026 286.042 235.898C285.922 235.762 285.786 235.646 285.634 235.55C285.482 235.454 285.318 235.374 285.142 235.31C284.974 235.238 284.794 235.186 284.602 235.154C284.418 235.122 284.222 235.106 284.014 235.106C283.766 235.106 283.53 235.13 283.306 235.178C283.082 235.218 282.87 235.282 282.67 235.37C282.478 235.45 282.298 235.554 282.13 235.682C281.962 235.81 281.81 235.962 281.674 236.138C281.546 236.306 281.434 236.498 281.338 236.714C281.25 236.922 281.182 237.154 281.134 237.41C281.086 237.666 281.062 237.946 281.062 238.25C281.062 238.554 281.086 238.834 281.134 239.09C281.182 239.346 281.25 239.582 281.338 239.798C281.434 240.006 281.546 240.198 281.674 240.374C281.81 240.542 281.962 240.69 282.13 240.818C282.298 240.946 282.478 241.054 282.67 241.142C282.87 241.222 283.082 241.282 283.306 241.322C283.53 241.37 283.766 241.394 284.014 241.394C284.758 241.394 285.378 241.218 285.874 240.866C286.378 240.506 286.67 240.026 286.75 239.426ZM284.014 236.222C284.398 236.222 284.714 236.342 284.962 236.582C285.218 236.814 285.37 237.166 285.418 237.638H282.514C282.57 237.166 282.73 236.814 282.994 236.582C283.266 236.342 283.606 236.222 284.014 236.222ZM292.372 241.25H293.764V232.85H292.324V236.342C292.116 235.934 291.832 235.626 291.472 235.418C291.12 235.21 290.724 235.106 290.284 235.106C289.58 235.106 288.996 235.374 288.532 235.91C288.076 236.438 287.848 237.218 287.848 238.25C287.848 239.282 288.076 240.066 288.532 240.602C288.996 241.13 289.58 241.394 290.284 241.394C290.74 241.394 291.148 241.282 291.508 241.058C291.876 240.826 292.164 240.494 292.372 240.062V241.25ZM290.836 236.258C291.292 236.258 291.652 236.426 291.916 236.762C292.188 237.09 292.324 237.586 292.324 238.25C292.324 238.914 292.188 239.414 291.916 239.75C291.652 240.078 291.292 240.242 290.836 240.242C290.38 240.242 290.016 240.078 289.744 239.75C289.472 239.414 289.336 238.914 289.336 238.25C289.336 237.586 289.472 237.09 289.744 236.762C290.016 236.426 290.38 236.258 290.836 236.258ZM304.092 238.034C304.044 238.698 303.812 239.21 303.396 239.57C302.988 239.922 302.44 240.098 301.752 240.098C300.968 240.098 300.336 239.842 299.856 239.33C299.376 238.818 299.136 238.058 299.136 237.05C299.136 236.042 299.376 235.282 299.856 234.77C300.336 234.258 300.968 234.002 301.752 234.002C302.44 234.002 302.988 234.182 303.396 234.542C303.812 234.894 304.044 235.402 304.092 236.066H305.628C305.564 235.002 305.18 234.178 304.476 233.594C303.78 233.002 302.872 232.706 301.752 232.706C301.496 232.706 301.248 232.726 301.008 232.766C300.768 232.798 300.532 232.85 300.3 232.922C300.076 232.986 299.86 233.07 299.652 233.174C299.452 233.278 299.26 233.402 299.076 233.546C298.892 233.69 298.724 233.85 298.572 234.026C298.42 234.202 298.284 234.398 298.164 234.614C298.044 234.83 297.94 235.066 297.852 235.322C297.772 235.57 297.708 235.838 297.66 236.126C297.62 236.414 297.6 236.722 297.6 237.05C297.6 237.378 297.62 237.686 297.66 237.974C297.708 238.262 297.772 238.534 297.852 238.79C297.94 239.038 298.044 239.27 298.164 239.486C298.284 239.702 298.42 239.898 298.572 240.074C298.724 240.25 298.892 240.41 299.076 240.554C299.26 240.698 299.452 240.822 299.652 240.926C299.86 241.03 300.076 241.118 300.3 241.19C300.532 241.254 300.768 241.302 301.008 241.334C301.248 241.374 301.496 241.394 301.752 241.394C302.872 241.394 303.78 241.102 304.476 240.518C305.18 239.926 305.564 239.098 305.628 238.034H304.092ZM309.584 241.394C309.832 241.394 310.068 241.37 310.292 241.322C310.516 241.282 310.724 241.222 310.916 241.142C311.116 241.054 311.3 240.946 311.468 240.818C311.636 240.69 311.784 240.542 311.912 240.374C312.048 240.198 312.16 240.002 312.248 239.786C312.344 239.57 312.416 239.334 312.464 239.078C312.512 238.822 312.536 238.546 312.536 238.25C312.536 237.954 312.512 237.678 312.464 237.422C312.416 237.166 312.344 236.93 312.248 236.714C312.16 236.498 312.048 236.306 311.912 236.138C311.784 235.962 311.636 235.81 311.468 235.682C311.3 235.554 311.116 235.45 310.916 235.37C310.724 235.282 310.516 235.218 310.292 235.178C310.068 235.13 309.832 235.106 309.584 235.106C309.336 235.106 309.1 235.13 308.876 235.178C308.652 235.218 308.44 235.282 308.24 235.37C308.048 235.45 307.868 235.554 307.7 235.682C307.532 235.81 307.38 235.962 307.244 236.138C307.116 236.306 307.004 236.498 306.908 236.714C306.82 236.93 306.752 237.166 306.704 237.422C306.656 237.678 306.632 237.954 306.632 238.25C306.632 238.546 306.656 238.822 306.704 239.078C306.752 239.334 306.82 239.57 306.908 239.786C307.004 240.002 307.116 240.198 307.244 240.374C307.38 240.542 307.532 240.69 307.7 240.818C307.868 240.946 308.048 241.054 308.24 241.142C308.44 241.222 308.652 241.282 308.876 241.322C309.1 241.37 309.336 241.394 309.584 241.394ZM309.584 240.242C309.144 240.242 308.788 240.078 308.516 239.75C308.252 239.414 308.12 238.914 308.12 238.25C308.12 237.586 308.252 237.09 308.516 236.762C308.788 236.426 309.144 236.258 309.584 236.258C310.024 236.258 310.376 236.426 310.64 236.762C310.912 237.09 311.048 237.586 311.048 238.25C311.048 238.914 310.912 239.414 310.64 239.75C310.376 240.078 310.024 240.242 309.584 240.242ZM316.836 236.51C316.94 236.51 317.032 236.518 317.112 236.534C317.2 236.542 317.276 236.554 317.34 236.57V235.25C317.276 235.234 317.204 235.222 317.124 235.214C317.052 235.198 316.968 235.19 316.872 235.19C316.456 235.19 316.092 235.31 315.78 235.55C315.468 235.782 315.24 236.146 315.096 236.642V235.25H313.776V241.25H315.216V238.178C315.216 237.61 315.364 237.19 315.66 236.918C315.964 236.646 316.356 236.51 316.836 236.51ZM319.749 235.25H318.369V241.25H319.809V237.806C319.809 237.302 319.925 236.926 320.157 236.678C320.397 236.422 320.713 236.294 321.105 236.294C321.473 236.294 321.761 236.402 321.969 236.618C322.177 236.834 322.281 237.17 322.281 237.626V241.25H323.721V237.422C323.721 236.63 323.533 236.046 323.157 235.67C322.789 235.294 322.309 235.106 321.717 235.106C321.269 235.106 320.873 235.21 320.529 235.418C320.185 235.626 319.925 235.93 319.749 236.33V235.25ZM330.59 239.426H329.114C329.058 239.674 328.926 239.878 328.718 240.038C328.518 240.198 328.23 240.278 327.854 240.278C327.422 240.278 327.066 240.142 326.786 239.87C326.506 239.598 326.354 239.19 326.33 238.646H330.686C330.694 238.582 330.698 238.518 330.698 238.454C330.698 238.39 330.698 238.322 330.698 238.25C330.698 237.986 330.678 237.742 330.638 237.518C330.606 237.286 330.554 237.074 330.482 236.882C330.41 236.682 330.322 236.502 330.218 236.342C330.122 236.174 330.01 236.026 329.882 235.898C329.762 235.762 329.626 235.646 329.474 235.55C329.322 235.454 329.158 235.374 328.982 235.31C328.814 235.238 328.634 235.186 328.442 235.154C328.258 235.122 328.062 235.106 327.854 235.106C327.606 235.106 327.37 235.13 327.146 235.178C326.922 235.218 326.71 235.282 326.51 235.37C326.318 235.45 326.138 235.554 325.97 235.682C325.802 235.81 325.65 235.962 325.514 236.138C325.386 236.306 325.274 236.498 325.178 236.714C325.09 236.922 325.022 237.154 324.974 237.41C324.926 237.666 324.902 237.946 324.902 238.25C324.902 238.554 324.926 238.834 324.974 239.09C325.022 239.346 325.09 239.582 325.178 239.798C325.274 240.006 325.386 240.198 325.514 240.374C325.65 240.542 325.802 240.69 325.97 240.818C326.138 240.946 326.318 241.054 326.51 241.142C326.71 241.222 326.922 241.282 327.146 241.322C327.37 241.37 327.606 241.394 327.854 241.394C328.598 241.394 329.218 241.218 329.714 240.866C330.218 240.506 330.51 240.026 330.59 239.426ZM327.854 236.222C328.238 236.222 328.554 236.342 328.802 236.582C329.058 236.814 329.21 237.166 329.258 237.638H326.354C326.41 237.166 326.57 236.814 326.834 236.582C327.106 236.342 327.446 236.222 327.854 236.222ZM335 236.51C335.104 236.51 335.196 236.518 335.276 236.534C335.364 236.542 335.44 236.554 335.504 236.57V235.25C335.44 235.234 335.368 235.222 335.288 235.214C335.216 235.198 335.132 235.19 335.036 235.19C334.62 235.19 334.256 235.31 333.944 235.55C333.632 235.782 333.404 236.146 333.26 236.642V235.25H331.94V241.25H333.38V238.178C333.38 237.61 333.528 237.19 333.824 236.918C334.128 236.646 334.52 236.51 335 236.51Z" fill="#1E2D25"/>
<rect x="231" y="142.5" width="118.5" height="114" rx="5.25" stroke="#FF9900" stroke-width="1.5" shape-rendering="crispEdges"/>
</g>
<g filter="url(#filter3_d_500_116881)">
<rect x="99" y="30" width="120" height="100.5" rx="6" fill="white" shape-rendering="crispEdges"/>
<rect x="121.875" y="42" width="74.25" height="49.5" rx="1.5" fill="white" stroke="#E7E7E7" stroke-width="2.25"/>
<rect x="135.75" y="55.5" width="46.5" height="27" rx="1.5" fill="#559F5E"/>
<path d="M141.375 62.625H169.125M141.375 66.375H175.5M141.375 70.125H169.125" stroke="white" stroke-width="0.75"/>
<circle cx="127.5" cy="47.625" r="1.875" fill="#E7E7E7"/>
<circle cx="133.5" cy="47.625" r="1.875" fill="#E7E7E7"/>
<circle cx="139.5" cy="47.625" r="1.875" fill="#E7E7E7"/>
<rect x="141" y="74.25" width="13.5" height="3.75" rx="0.75" fill="#006FA7"/>
<path d="M120.846 111.284C120.798 111.948 120.566 112.46 120.15 112.82C119.742 113.172 119.194 113.348 118.506 113.348C117.722 113.348 117.09 113.092 116.61 112.58C116.13 112.068 115.89 111.308 115.89 110.3C115.89 109.292 116.13 108.532 116.61 108.02C117.09 107.508 117.722 107.252 118.506 107.252C119.194 107.252 119.742 107.432 120.15 107.792C120.566 108.144 120.798 108.652 120.846 109.316H122.382C122.318 108.252 121.934 107.428 121.23 106.844C120.534 106.252 119.626 105.956 118.506 105.956C118.25 105.956 118.002 105.976 117.762 106.016C117.522 106.048 117.286 106.1 117.054 106.172C116.83 106.236 116.614 106.32 116.406 106.424C116.206 106.528 116.014 106.652 115.83 106.796C115.646 106.94 115.478 107.1 115.326 107.276C115.174 107.452 115.038 107.648 114.918 107.864C114.798 108.08 114.694 108.316 114.606 108.572C114.526 108.82 114.462 109.088 114.414 109.376C114.374 109.664 114.354 109.972 114.354 110.3C114.354 110.628 114.374 110.936 114.414 111.224C114.462 111.512 114.526 111.784 114.606 112.04C114.694 112.288 114.798 112.52 114.918 112.736C115.038 112.952 115.174 113.148 115.326 113.324C115.478 113.5 115.646 113.66 115.83 113.804C116.014 113.948 116.206 114.072 116.406 114.176C116.614 114.28 116.83 114.368 117.054 114.44C117.286 114.504 117.522 114.552 117.762 114.584C118.002 114.624 118.25 114.644 118.506 114.644C119.626 114.644 120.534 114.352 121.23 113.768C121.934 113.176 122.318 112.348 122.382 111.284H120.846ZM129.074 112.676H127.598C127.542 112.924 127.41 113.128 127.202 113.288C127.002 113.448 126.714 113.528 126.338 113.528C125.906 113.528 125.55 113.392 125.27 113.12C124.99 112.848 124.838 112.44 124.814 111.896H129.17C129.178 111.832 129.182 111.768 129.182 111.704C129.182 111.64 129.182 111.572 129.182 111.5C129.182 111.236 129.162 110.992 129.122 110.768C129.09 110.536 129.038 110.324 128.966 110.132C128.894 109.932 128.806 109.752 128.702 109.592C128.606 109.424 128.494 109.276 128.366 109.148C128.246 109.012 128.11 108.896 127.958 108.8C127.806 108.704 127.642 108.624 127.466 108.56C127.298 108.488 127.118 108.436 126.926 108.404C126.742 108.372 126.546 108.356 126.338 108.356C126.09 108.356 125.854 108.38 125.63 108.428C125.406 108.468 125.194 108.532 124.994 108.62C124.802 108.7 124.622 108.804 124.454 108.932C124.286 109.06 124.134 109.212 123.998 109.388C123.87 109.556 123.758 109.748 123.662 109.964C123.574 110.172 123.506 110.404 123.458 110.66C123.41 110.916 123.386 111.196 123.386 111.5C123.386 111.804 123.41 112.084 123.458 112.34C123.506 112.596 123.574 112.832 123.662 113.048C123.758 113.256 123.87 113.448 123.998 113.624C124.134 113.792 124.286 113.94 124.454 114.068C124.622 114.196 124.802 114.304 124.994 114.392C125.194 114.472 125.406 114.532 125.63 114.572C125.854 114.62 126.09 114.644 126.338 114.644C127.082 114.644 127.702 114.468 128.198 114.116C128.702 113.756 128.994 113.276 129.074 112.676ZM126.338 109.472C126.722 109.472 127.038 109.592 127.286 109.832C127.542 110.064 127.694 110.416 127.742 110.888H124.838C124.894 110.416 125.054 110.064 125.318 109.832C125.59 109.592 125.93 109.472 126.338 109.472ZM131.804 108.5H130.424V114.5H131.864V111.056C131.864 110.552 131.98 110.176 132.212 109.928C132.452 109.672 132.768 109.544 133.16 109.544C133.528 109.544 133.816 109.652 134.024 109.868C134.232 110.084 134.336 110.42 134.336 110.876V114.5H135.776V110.672C135.776 109.88 135.588 109.296 135.212 108.92C134.844 108.544 134.364 108.356 133.772 108.356C133.324 108.356 132.928 108.46 132.584 108.668C132.24 108.876 131.98 109.18 131.804 109.58V108.5ZM139.021 112.496V109.652H140.521V108.5H139.021V106.94H137.593V108.5H136.657V109.652H137.593V112.76C137.593 113.408 137.741 113.86 138.037 114.116C138.341 114.372 138.773 114.5 139.333 114.5H140.521V113.348H139.801C139.537 113.348 139.341 113.288 139.213 113.168C139.085 113.04 139.021 112.816 139.021 112.496ZM146.992 112.676H145.516C145.46 112.924 145.328 113.128 145.12 113.288C144.92 113.448 144.632 113.528 144.256 113.528C143.824 113.528 143.468 113.392 143.188 113.12C142.908 112.848 142.756 112.44 142.732 111.896H147.088C147.096 111.832 147.1 111.768 147.1 111.704C147.1 111.64 147.1 111.572 147.1 111.5C147.1 111.236 147.08 110.992 147.04 110.768C147.008 110.536 146.956 110.324 146.884 110.132C146.812 109.932 146.724 109.752 146.62 109.592C146.524 109.424 146.412 109.276 146.284 109.148C146.164 109.012 146.028 108.896 145.876 108.8C145.724 108.704 145.56 108.624 145.384 108.56C145.216 108.488 145.036 108.436 144.844 108.404C144.66 108.372 144.464 108.356 144.256 108.356C144.008 108.356 143.772 108.38 143.548 108.428C143.324 108.468 143.112 108.532 142.912 108.62C142.72 108.7 142.54 108.804 142.372 108.932C142.204 109.06 142.052 109.212 141.916 109.388C141.788 109.556 141.676 109.748 141.58 109.964C141.492 110.172 141.424 110.404 141.376 110.66C141.328 110.916 141.304 111.196 141.304 111.5C141.304 111.804 141.328 112.084 141.376 112.34C141.424 112.596 141.492 112.832 141.58 113.048C141.676 113.256 141.788 113.448 141.916 113.624C142.052 113.792 142.204 113.94 142.372 114.068C142.54 114.196 142.72 114.304 142.912 114.392C143.112 114.472 143.324 114.532 143.548 114.572C143.772 114.62 144.008 114.644 144.256 114.644C145 114.644 145.62 114.468 146.116 114.116C146.62 113.756 146.912 113.276 146.992 112.676ZM144.256 109.472C144.64 109.472 144.956 109.592 145.204 109.832C145.46 110.064 145.612 110.416 145.66 110.888H142.756C142.812 110.416 142.972 110.064 143.236 109.832C143.508 109.592 143.848 109.472 144.256 109.472ZM151.402 109.76C151.506 109.76 151.598 109.768 151.678 109.784C151.766 109.792 151.842 109.804 151.906 109.82V108.5C151.842 108.484 151.77 108.472 151.69 108.464C151.618 108.448 151.534 108.44 151.438 108.44C151.022 108.44 150.658 108.56 150.346 108.8C150.034 109.032 149.806 109.396 149.662 109.892V108.5H148.342V114.5H149.782V111.428C149.782 110.86 149.93 110.44 150.226 110.168C150.53 109.896 150.922 109.76 151.402 109.76ZM162.265 114.5C162.137 114.34 162.045 114.14 161.989 113.9C161.933 113.66 161.905 113.36 161.905 113V112.088C161.905 111.512 161.773 111.072 161.509 110.768C161.245 110.456 160.873 110.268 160.393 110.204C160.889 110.084 161.285 109.868 161.581 109.556C161.877 109.244 162.025 108.82 162.025 108.284C162.025 107.58 161.749 107.04 161.197 106.664C160.653 106.288 159.933 106.1 159.037 106.1H155.305V114.5H156.781V111.152H159.337C159.721 111.152 159.997 111.248 160.165 111.44C160.333 111.632 160.417 111.924 160.417 112.316V113.6C160.417 113.784 160.429 113.956 160.453 114.116C160.485 114.268 160.537 114.396 160.609 114.5H162.265ZM158.917 107.348C159.421 107.348 159.805 107.452 160.069 107.66C160.341 107.86 160.477 108.184 160.477 108.632C160.477 109.072 160.341 109.396 160.069 109.604C159.805 109.812 159.421 109.916 158.917 109.916H156.781V107.348H158.917ZM166.205 114.644C166.453 114.644 166.689 114.62 166.913 114.572C167.137 114.532 167.345 114.472 167.537 114.392C167.737 114.304 167.921 114.196 168.089 114.068C168.257 113.94 168.405 113.792 168.533 113.624C168.669 113.448 168.781 113.252 168.869 113.036C168.965 112.82 169.037 112.584 169.085 112.328C169.133 112.072 169.157 111.796 169.157 111.5C169.157 111.204 169.133 110.928 169.085 110.672C169.037 110.416 168.965 110.18 168.869 109.964C168.781 109.748 168.669 109.556 168.533 109.388C168.405 109.212 168.257 109.06 168.089 108.932C167.921 108.804 167.737 108.7 167.537 108.62C167.345 108.532 167.137 108.468 166.913 108.428C166.689 108.38 166.453 108.356 166.205 108.356C165.957 108.356 165.721 108.38 165.497 108.428C165.273 108.468 165.061 108.532 164.861 108.62C164.669 108.7 164.489 108.804 164.321 108.932C164.153 109.06 164.001 109.212 163.865 109.388C163.737 109.556 163.625 109.748 163.529 109.964C163.441 110.18 163.373 110.416 163.325 110.672C163.277 110.928 163.253 111.204 163.253 111.5C163.253 111.796 163.277 112.072 163.325 112.328C163.373 112.584 163.441 112.82 163.529 113.036C163.625 113.252 163.737 113.448 163.865 113.624C164.001 113.792 164.153 113.94 164.321 114.068C164.489 114.196 164.669 114.304 164.861 114.392C165.061 114.472 165.273 114.532 165.497 114.572C165.721 114.62 165.957 114.644 166.205 114.644ZM166.205 113.492C165.765 113.492 165.409 113.328 165.137 113C164.873 112.664 164.741 112.164 164.741 111.5C164.741 110.836 164.873 110.34 165.137 110.012C165.409 109.676 165.765 109.508 166.205 109.508C166.645 109.508 166.997 109.676 167.261 110.012C167.533 110.34 167.669 110.836 167.669 111.5C167.669 112.164 167.533 112.664 167.261 113C166.997 113.328 166.645 113.492 166.205 113.492ZM170.337 112.376C170.337 113.144 170.517 113.716 170.877 114.092C171.245 114.46 171.717 114.644 172.293 114.644C172.725 114.644 173.105 114.548 173.433 114.356C173.761 114.156 174.013 113.868 174.189 113.492V114.5H175.581V108.5H174.141V111.992C174.141 112.472 174.025 112.836 173.793 113.084C173.569 113.332 173.273 113.456 172.905 113.456C172.545 113.456 172.265 113.352 172.065 113.144C171.873 112.928 171.777 112.604 171.777 112.172V108.5H170.337V112.376ZM178.456 108.5H177.076V114.5H178.516V111.056C178.516 110.552 178.632 110.176 178.864 109.928C179.104 109.672 179.42 109.544 179.812 109.544C180.18 109.544 180.468 109.652 180.676 109.868C180.884 110.084 180.988 110.42 180.988 110.876V114.5H182.428V110.672C182.428 109.88 182.24 109.296 181.864 108.92C181.496 108.544 181.016 108.356 180.424 108.356C179.976 108.356 179.58 108.46 179.236 108.668C178.892 108.876 178.632 109.18 178.456 109.58V108.5ZM188.157 114.5H189.549V106.1H188.109V109.592C187.901 109.184 187.617 108.876 187.257 108.668C186.905 108.46 186.509 108.356 186.069 108.356C185.365 108.356 184.781 108.624 184.317 109.16C183.861 109.688 183.633 110.468 183.633 111.5C183.633 112.532 183.861 113.316 184.317 113.852C184.781 114.38 185.365 114.644 186.069 114.644C186.525 114.644 186.933 114.532 187.293 114.308C187.661 114.076 187.949 113.744 188.157 113.312V114.5ZM186.621 109.508C187.077 109.508 187.437 109.676 187.701 110.012C187.973 110.34 188.109 110.836 188.109 111.5C188.109 112.164 187.973 112.664 187.701 113C187.437 113.328 187.077 113.492 186.621 113.492C186.165 113.492 185.801 113.328 185.529 113C185.257 112.664 185.121 112.164 185.121 111.5C185.121 110.836 185.257 110.34 185.529 110.012C185.801 109.676 186.165 109.508 186.621 109.508ZM196.469 112.676H194.993C194.937 112.924 194.805 113.128 194.597 113.288C194.397 113.448 194.109 113.528 193.733 113.528C193.301 113.528 192.945 113.392 192.665 113.12C192.385 112.848 192.233 112.44 192.209 111.896H196.565C196.573 111.832 196.577 111.768 196.577 111.704C196.577 111.64 196.577 111.572 196.577 111.5C196.577 111.236 196.557 110.992 196.517 110.768C196.485 110.536 196.433 110.324 196.361 110.132C196.289 109.932 196.201 109.752 196.097 109.592C196.001 109.424 195.889 109.276 195.761 109.148C195.641 109.012 195.505 108.896 195.353 108.8C195.201 108.704 195.037 108.624 194.861 108.56C194.693 108.488 194.513 108.436 194.321 108.404C194.137 108.372 193.941 108.356 193.733 108.356C193.485 108.356 193.249 108.38 193.025 108.428C192.801 108.468 192.589 108.532 192.389 108.62C192.197 108.7 192.017 108.804 191.849 108.932C191.681 109.06 191.529 109.212 191.393 109.388C191.265 109.556 191.153 109.748 191.057 109.964C190.969 110.172 190.901 110.404 190.853 110.66C190.805 110.916 190.781 111.196 190.781 111.5C190.781 111.804 190.805 112.084 190.853 112.34C190.901 112.596 190.969 112.832 191.057 113.048C191.153 113.256 191.265 113.448 191.393 113.624C191.529 113.792 191.681 113.94 191.849 114.068C192.017 114.196 192.197 114.304 192.389 114.392C192.589 114.472 192.801 114.532 193.025 114.572C193.249 114.62 193.485 114.644 193.733 114.644C194.477 114.644 195.097 114.468 195.593 114.116C196.097 113.756 196.389 113.276 196.469 112.676ZM193.733 109.472C194.117 109.472 194.433 109.592 194.681 109.832C194.937 110.064 195.089 110.416 195.137 110.888H192.233C192.289 110.416 192.449 110.064 192.713 109.832C192.985 109.592 193.325 109.472 193.733 109.472ZM202.091 114.5H203.483V106.1H202.043V109.592C201.835 109.184 201.551 108.876 201.191 108.668C200.839 108.46 200.443 108.356 200.003 108.356C199.299 108.356 198.715 108.624 198.251 109.16C197.795 109.688 197.567 110.468 197.567 111.5C197.567 112.532 197.795 113.316 198.251 113.852C198.715 114.38 199.299 114.644 200.003 114.644C200.459 114.644 200.867 114.532 201.227 114.308C201.595 114.076 201.883 113.744 202.091 113.312V114.5ZM200.555 109.508C201.011 109.508 201.371 109.676 201.635 110.012C201.907 110.34 202.043 110.836 202.043 111.5C202.043 112.164 201.907 112.664 201.635 113C201.371 113.328 201.011 113.492 200.555 113.492C200.099 113.492 199.735 113.328 199.463 113C199.191 112.664 199.055 112.164 199.055 111.5C199.055 110.836 199.191 110.34 199.463 110.012C199.735 109.676 200.099 109.508 200.555 109.508Z" fill="#1E2D25"/>
</g>
<g filter="url(#filter4_d_500_116881)">
<rect x="230.25" y="30" width="120" height="100.5" rx="6" fill="white" shape-rendering="crispEdges"/>
<rect x="253.125" y="42" width="74.25" height="49.5" rx="1.5" fill="white" stroke="#E7E7E7" stroke-width="2.25"/>
<rect x="255.75" y="74.25" width="69" height="15" rx="1.5" fill="#559F5E"/>
<path d="M258.75 78.75H286.805M258.75 81.75H293.25M258.75 84.75H286.805" stroke="white" stroke-width="0.75"/>
<circle cx="258.75" cy="47.625" r="1.875" fill="#E7E7E7"/>
<circle cx="264.75" cy="47.625" r="1.875" fill="#E7E7E7"/>
<circle cx="270.75" cy="47.625" r="1.875" fill="#E7E7E7"/>
<rect x="305.25" y="80.25" width="13.5" height="3.75" rx="0.75" fill="#006FA7"/>
<path d="M280.649 114.5H282.125V111.08H286.109V109.832H282.125V107.348H286.577V106.1H280.649V114.5ZM289.141 106.1H287.701V114.5H289.141V106.1ZM296.042 114.5C296.002 114.412 295.966 114.332 295.934 114.26C295.902 114.18 295.874 114.112 295.85 114.056C295.834 113.992 295.814 113.932 295.79 113.876C295.774 113.82 295.758 113.768 295.742 113.72C295.734 113.672 295.726 113.624 295.718 113.576C295.71 113.52 295.702 113.468 295.694 113.42C295.694 113.364 295.69 113.308 295.682 113.252C295.682 113.188 295.682 113.124 295.682 113.06C295.682 112.988 295.682 112.908 295.682 112.82V110.264C295.682 109.64 295.45 109.168 294.986 108.848C294.53 108.52 293.906 108.356 293.114 108.356C292.314 108.356 291.682 108.512 291.218 108.824C290.762 109.136 290.534 109.604 290.534 110.228H291.986C291.994 109.98 292.098 109.792 292.298 109.664C292.498 109.536 292.77 109.472 293.114 109.472C293.474 109.472 293.75 109.536 293.942 109.664C294.142 109.784 294.242 109.976 294.242 110.24C294.242 110.32 294.23 110.396 294.206 110.468C294.182 110.532 294.142 110.588 294.086 110.636C294.038 110.684 293.982 110.728 293.918 110.768C293.854 110.808 293.778 110.844 293.69 110.876C293.61 110.9 293.522 110.924 293.426 110.948C293.33 110.964 293.226 110.98 293.114 110.996C293.01 111.012 292.902 111.028 292.79 111.044C292.678 111.06 292.562 111.076 292.442 111.092C292.33 111.108 292.218 111.128 292.106 111.152C291.994 111.176 291.882 111.2 291.77 111.224C291.658 111.248 291.546 111.28 291.434 111.32C291.33 111.36 291.23 111.404 291.134 111.452C291.038 111.5 290.946 111.556 290.858 111.62C290.778 111.684 290.706 111.756 290.642 111.836C290.578 111.916 290.518 112.008 290.462 112.112C290.414 112.216 290.378 112.332 290.354 112.46C290.33 112.58 290.318 112.716 290.318 112.868C290.318 113.444 290.502 113.88 290.87 114.176C291.246 114.472 291.706 114.62 292.25 114.62C292.698 114.62 293.094 114.524 293.438 114.332C293.79 114.132 294.058 113.856 294.242 113.504L294.59 114.5H296.042ZM291.794 112.7C291.794 112.612 291.806 112.532 291.83 112.46C291.854 112.38 291.89 112.312 291.938 112.256C291.986 112.192 292.038 112.136 292.094 112.088C292.158 112.04 292.23 111.996 292.31 111.956C292.39 111.916 292.474 111.88 292.562 111.848C292.65 111.816 292.742 111.784 292.838 111.752C292.934 111.72 293.03 111.692 293.126 111.668C293.222 111.636 293.318 111.608 293.414 111.584C293.518 111.552 293.618 111.52 293.714 111.488C293.81 111.448 293.902 111.408 293.99 111.368C294.078 111.328 294.162 111.284 294.242 111.236V111.992C294.242 112.488 294.094 112.868 293.798 113.132C293.51 113.396 293.182 113.528 292.814 113.528C292.494 113.528 292.242 113.464 292.058 113.336C291.882 113.2 291.794 112.988 291.794 112.7ZM298.911 112.496V109.652H300.411V108.5H298.911V106.94H297.483V108.5H296.547V109.652H297.483V112.76C297.483 113.408 297.631 113.86 297.927 114.116C298.231 114.372 298.663 114.5 299.223 114.5H300.411V113.348H299.691C299.427 113.348 299.231 113.288 299.103 113.168C298.975 113.04 298.911 112.816 298.911 112.496Z" fill="#1E2D25"/>
</g>
<g filter="url(#filter5_d_500_116881)">
<rect x="99" y="141.75" width="120" height="115.5" rx="6" fill="white" shape-rendering="crispEdges"/>
<rect x="121.875" y="153.75" width="74.25" height="49.5" rx="1.5" fill="white" stroke="#E7E7E7" stroke-width="2.25"/>
<rect x="127.5" y="186" width="66" height="15" rx="1.5" fill="#559F5E"/>
<circle cx="127.875" cy="193.875" r="3.375" fill="#006FA7"/>
<path d="M136.5 190.5H157.236M136.5 193.5H162M136.5 196.5H157.236" stroke="white" stroke-width="0.75"/>
<circle cx="127.5" cy="159.375" r="1.875" fill="#E7E7E7"/>
<circle cx="133.5" cy="159.375" r="1.875" fill="#E7E7E7"/>
<circle cx="139.5" cy="159.375" r="1.875" fill="#E7E7E7"/>
<rect x="174" y="192" width="13.5" height="3.75" rx="0.75" fill="#006FA7"/>
<path d="M137.499 226.25H138.975V222.83H142.959V221.582H138.975V219.098H143.427V217.85H137.499V226.25ZM145.991 217.85H144.551V226.25H145.991V217.85ZM150.18 226.394C150.428 226.394 150.664 226.37 150.888 226.322C151.112 226.282 151.32 226.222 151.512 226.142C151.712 226.054 151.896 225.946 152.064 225.818C152.232 225.69 152.38 225.542 152.508 225.374C152.644 225.198 152.756 225.002 152.844 224.786C152.94 224.57 153.012 224.334 153.06 224.078C153.108 223.822 153.132 223.546 153.132 223.25C153.132 222.954 153.108 222.678 153.06 222.422C153.012 222.166 152.94 221.93 152.844 221.714C152.756 221.498 152.644 221.306 152.508 221.138C152.38 220.962 152.232 220.81 152.064 220.682C151.896 220.554 151.712 220.45 151.512 220.37C151.32 220.282 151.112 220.218 150.888 220.178C150.664 220.13 150.428 220.106 150.18 220.106C149.932 220.106 149.696 220.13 149.472 220.178C149.248 220.218 149.036 220.282 148.836 220.37C148.644 220.45 148.464 220.554 148.296 220.682C148.128 220.81 147.976 220.962 147.84 221.138C147.712 221.306 147.6 221.498 147.504 221.714C147.416 221.93 147.348 222.166 147.3 222.422C147.252 222.678 147.228 222.954 147.228 223.25C147.228 223.546 147.252 223.822 147.3 224.078C147.348 224.334 147.416 224.57 147.504 224.786C147.6 225.002 147.712 225.198 147.84 225.374C147.976 225.542 148.128 225.69 148.296 225.818C148.464 225.946 148.644 226.054 148.836 226.142C149.036 226.222 149.248 226.282 149.472 226.322C149.696 226.37 149.932 226.394 150.18 226.394ZM150.18 225.242C149.74 225.242 149.384 225.078 149.112 224.75C148.848 224.414 148.716 223.914 148.716 223.25C148.716 222.586 148.848 222.09 149.112 221.762C149.384 221.426 149.74 221.258 150.18 221.258C150.62 221.258 150.972 221.426 151.236 221.762C151.508 222.09 151.644 222.586 151.644 223.25C151.644 223.914 151.508 224.414 151.236 224.75C150.972 225.078 150.62 225.242 150.18 225.242ZM159.759 226.25C159.719 226.162 159.683 226.082 159.651 226.01C159.619 225.93 159.591 225.862 159.567 225.806C159.551 225.742 159.531 225.682 159.507 225.626C159.491 225.57 159.475 225.518 159.459 225.47C159.451 225.422 159.443 225.374 159.435 225.326C159.427 225.27 159.419 225.218 159.411 225.17C159.411 225.114 159.407 225.058 159.399 225.002C159.399 224.938 159.399 224.874 159.399 224.81C159.399 224.738 159.399 224.658 159.399 224.57V222.014C159.399 221.39 159.167 220.918 158.703 220.598C158.247 220.27 157.623 220.106 156.831 220.106C156.031 220.106 155.399 220.262 154.935 220.574C154.479 220.886 154.251 221.354 154.251 221.978H155.703C155.711 221.73 155.815 221.542 156.015 221.414C156.215 221.286 156.487 221.222 156.831 221.222C157.191 221.222 157.467 221.286 157.659 221.414C157.859 221.534 157.959 221.726 157.959 221.99C157.959 222.07 157.947 222.146 157.923 222.218C157.899 222.282 157.859 222.338 157.803 222.386C157.755 222.434 157.699 222.478 157.635 222.518C157.571 222.558 157.495 222.594 157.407 222.626C157.327 222.65 157.239 222.674 157.143 222.698C157.047 222.714 156.943 222.73 156.831 222.746C156.727 222.762 156.619 222.778 156.507 222.794C156.395 222.81 156.279 222.826 156.159 222.842C156.047 222.858 155.935 222.878 155.823 222.902C155.711 222.926 155.599 222.95 155.487 222.974C155.375 222.998 155.263 223.03 155.151 223.07C155.047 223.11 154.947 223.154 154.851 223.202C154.755 223.25 154.663 223.306 154.575 223.37C154.495 223.434 154.423 223.506 154.359 223.586C154.295 223.666 154.235 223.758 154.179 223.862C154.131 223.966 154.095 224.082 154.071 224.21C154.047 224.33 154.035 224.466 154.035 224.618C154.035 225.194 154.219 225.63 154.587 225.926C154.963 226.222 155.423 226.37 155.967 226.37C156.415 226.37 156.811 226.274 157.155 226.082C157.507 225.882 157.775 225.606 157.959 225.254L158.307 226.25H159.759ZM155.511 224.45C155.511 224.362 155.523 224.282 155.547 224.21C155.571 224.13 155.607 224.062 155.655 224.006C155.703 223.942 155.755 223.886 155.811 223.838C155.875 223.79 155.947 223.746 156.027 223.706C156.107 223.666 156.191 223.63 156.279 223.598C156.367 223.566 156.459 223.534 156.555 223.502C156.651 223.47 156.747 223.442 156.843 223.418C156.939 223.386 157.035 223.358 157.131 223.334C157.235 223.302 157.335 223.27 157.431 223.238C157.527 223.198 157.619 223.158 157.707 223.118C157.795 223.078 157.879 223.034 157.959 222.986V223.742C157.959 224.238 157.811 224.618 157.515 224.882C157.227 225.146 156.899 225.278 156.531 225.278C156.211 225.278 155.959 225.214 155.775 225.086C155.599 224.95 155.511 224.738 155.511 224.45ZM162.628 224.246V221.402H164.128V220.25H162.628V218.69H161.2V220.25H160.264V221.402H161.2V224.51C161.2 225.158 161.348 225.61 161.644 225.866C161.948 226.122 162.38 226.25 162.94 226.25H164.128V225.098H163.408C163.144 225.098 162.948 225.038 162.82 224.918C162.692 224.79 162.628 224.566 162.628 224.246ZM166.628 217.85H165.188V219.194H166.628V217.85ZM166.628 220.25H165.188V226.25H166.628V220.25ZM169.521 220.25H168.141V226.25H169.581V222.806C169.581 222.302 169.697 221.926 169.929 221.678C170.169 221.422 170.485 221.294 170.877 221.294C171.245 221.294 171.533 221.402 171.741 221.618C171.949 221.834 172.053 222.17 172.053 222.626V226.25H173.493V222.422C173.493 221.63 173.305 221.046 172.929 220.67C172.561 220.294 172.081 220.106 171.489 220.106C171.041 220.106 170.645 220.21 170.301 220.418C169.957 220.626 169.697 220.93 169.521 221.33V220.25ZM177.133 225.866C177.573 225.866 177.969 225.77 178.321 225.578C178.681 225.378 178.965 225.09 179.173 224.714V226.178C179.173 226.634 179.045 226.994 178.789 227.258C178.541 227.53 178.165 227.666 177.661 227.666C177.157 227.666 176.781 227.53 176.533 227.258C176.293 226.994 176.173 226.658 176.173 226.25H174.733C174.733 227.026 175.001 227.642 175.537 228.098C176.073 228.562 176.781 228.794 177.661 228.794C178.549 228.794 179.261 228.566 179.797 228.11C180.341 227.654 180.613 227.01 180.613 226.178V220.25H179.221V221.354C179.013 220.946 178.725 220.638 178.357 220.43C177.997 220.214 177.589 220.106 177.133 220.106C176.429 220.106 175.845 220.354 175.381 220.85C174.925 221.346 174.697 222.058 174.697 222.986C174.697 223.914 174.925 224.626 175.381 225.122C175.845 225.618 176.429 225.866 177.133 225.866ZM177.685 224.762C177.229 224.762 176.865 224.614 176.593 224.318C176.321 224.022 176.185 223.578 176.185 222.986C176.185 222.394 176.321 221.95 176.593 221.654C176.865 221.358 177.229 221.21 177.685 221.21C178.141 221.21 178.501 221.358 178.765 221.654C179.037 221.95 179.173 222.394 179.173 222.986C179.173 223.578 179.037 224.022 178.765 224.318C178.501 224.614 178.141 224.762 177.685 224.762ZM128.92 241.25C128.792 241.09 128.7 240.89 128.644 240.65C128.588 240.41 128.56 240.11 128.56 239.75V238.838C128.56 238.262 128.428 237.822 128.164 237.518C127.9 237.206 127.528 237.018 127.048 236.954C127.544 236.834 127.94 236.618 128.236 236.306C128.532 235.994 128.68 235.57 128.68 235.034C128.68 234.33 128.404 233.79 127.852 233.414C127.308 233.038 126.588 232.85 125.692 232.85H121.96V241.25H123.436V237.902H125.992C126.376 237.902 126.652 237.998 126.82 238.19C126.988 238.382 127.072 238.674 127.072 239.066V240.35C127.072 240.534 127.084 240.706 127.108 240.866C127.14 241.018 127.192 241.146 127.264 241.25H128.92ZM125.572 234.098C126.076 234.098 126.46 234.202 126.724 234.41C126.996 234.61 127.132 234.934 127.132 235.382C127.132 235.822 126.996 236.146 126.724 236.354C126.46 236.562 126.076 236.666 125.572 236.666H123.436V234.098H125.572ZM132.86 241.394C133.108 241.394 133.344 241.37 133.568 241.322C133.792 241.282 134 241.222 134.192 241.142C134.392 241.054 134.576 240.946 134.744 240.818C134.912 240.69 135.06 240.542 135.188 240.374C135.324 240.198 135.436 240.002 135.524 239.786C135.62 239.57 135.692 239.334 135.74 239.078C135.788 238.822 135.812 238.546 135.812 238.25C135.812 237.954 135.788 237.678 135.74 237.422C135.692 237.166 135.62 236.93 135.524 236.714C135.436 236.498 135.324 236.306 135.188 236.138C135.06 235.962 134.912 235.81 134.744 235.682C134.576 235.554 134.392 235.45 134.192 235.37C134 235.282 133.792 235.218 133.568 235.178C133.344 235.13 133.108 235.106 132.86 235.106C132.612 235.106 132.376 235.13 132.152 235.178C131.928 235.218 131.716 235.282 131.516 235.37C131.324 235.45 131.144 235.554 130.976 235.682C130.808 235.81 130.656 235.962 130.52 236.138C130.392 236.306 130.28 236.498 130.184 236.714C130.096 236.93 130.028 237.166 129.98 237.422C129.932 237.678 129.908 237.954 129.908 238.25C129.908 238.546 129.932 238.822 129.98 239.078C130.028 239.334 130.096 239.57 130.184 239.786C130.28 240.002 130.392 240.198 130.52 240.374C130.656 240.542 130.808 240.69 130.976 240.818C131.144 240.946 131.324 241.054 131.516 241.142C131.716 241.222 131.928 241.282 132.152 241.322C132.376 241.37 132.612 241.394 132.86 241.394ZM132.86 240.242C132.42 240.242 132.064 240.078 131.792 239.75C131.528 239.414 131.396 238.914 131.396 238.25C131.396 237.586 131.528 237.09 131.792 236.762C132.064 236.426 132.42 236.258 132.86 236.258C133.3 236.258 133.652 236.426 133.916 236.762C134.188 237.09 134.324 237.586 134.324 238.25C134.324 238.914 134.188 239.414 133.916 239.75C133.652 240.078 133.3 240.242 132.86 240.242ZM136.991 239.126C136.991 239.894 137.171 240.466 137.531 240.842C137.899 241.21 138.371 241.394 138.947 241.394C139.379 241.394 139.759 241.298 140.087 241.106C140.415 240.906 140.667 240.618 140.843 240.242V241.25H142.235V235.25H140.795V238.742C140.795 239.222 140.679 239.586 140.447 239.834C140.223 240.082 139.927 240.206 139.559 240.206C139.199 240.206 138.919 240.102 138.719 239.894C138.527 239.678 138.431 239.354 138.431 238.922V235.25H136.991V239.126ZM145.111 235.25H143.731V241.25H145.171V237.806C145.171 237.302 145.287 236.926 145.519 236.678C145.759 236.422 146.075 236.294 146.467 236.294C146.835 236.294 147.123 236.402 147.331 236.618C147.539 236.834 147.643 237.17 147.643 237.626V241.25H149.083V237.422C149.083 236.63 148.895 236.046 148.519 235.67C148.151 235.294 147.671 235.106 147.079 235.106C146.631 235.106 146.235 235.21 145.891 235.418C145.547 235.626 145.287 235.93 145.111 236.33V235.25ZM154.811 241.25H156.203V232.85H154.763V236.342C154.555 235.934 154.271 235.626 153.911 235.418C153.559 235.21 153.163 235.106 152.723 235.106C152.019 235.106 151.435 235.374 150.971 235.91C150.515 236.438 150.287 237.218 150.287 238.25C150.287 239.282 150.515 240.066 150.971 240.602C151.435 241.13 152.019 241.394 152.723 241.394C153.179 241.394 153.587 241.282 153.947 241.058C154.315 240.826 154.603 240.494 154.811 240.062V241.25ZM153.275 236.258C153.731 236.258 154.091 236.426 154.355 236.762C154.627 237.09 154.763 237.586 154.763 238.25C154.763 238.914 154.627 239.414 154.355 239.75C154.091 240.078 153.731 240.242 153.275 240.242C152.819 240.242 152.455 240.078 152.183 239.75C151.911 239.414 151.775 238.914 151.775 238.25C151.775 237.586 151.911 237.09 152.183 236.762C152.455 236.426 152.819 236.258 153.275 236.258ZM163.123 239.426H161.647C161.591 239.674 161.459 239.878 161.251 240.038C161.051 240.198 160.763 240.278 160.387 240.278C159.955 240.278 159.599 240.142 159.319 239.87C159.039 239.598 158.887 239.19 158.863 238.646H163.219C163.227 238.582 163.231 238.518 163.231 238.454C163.231 238.39 163.231 238.322 163.231 238.25C163.231 237.986 163.211 237.742 163.171 237.518C163.139 237.286 163.087 237.074 163.015 236.882C162.943 236.682 162.855 236.502 162.751 236.342C162.655 236.174 162.543 236.026 162.415 235.898C162.295 235.762 162.159 235.646 162.007 235.55C161.855 235.454 161.691 235.374 161.515 235.31C161.347 235.238 161.167 235.186 160.975 235.154C160.791 235.122 160.595 235.106 160.387 235.106C160.139 235.106 159.903 235.13 159.679 235.178C159.455 235.218 159.243 235.282 159.043 235.37C158.851 235.45 158.671 235.554 158.503 235.682C158.335 235.81 158.183 235.962 158.047 236.138C157.919 236.306 157.807 236.498 157.711 236.714C157.623 236.922 157.555 237.154 157.507 237.41C157.459 237.666 157.435 237.946 157.435 238.25C157.435 238.554 157.459 238.834 157.507 239.09C157.555 239.346 157.623 239.582 157.711 239.798C157.807 240.006 157.919 240.198 158.047 240.374C158.183 240.542 158.335 240.69 158.503 240.818C158.671 240.946 158.851 241.054 159.043 241.142C159.243 241.222 159.455 241.282 159.679 241.322C159.903 241.37 160.139 241.394 160.387 241.394C161.131 241.394 161.751 241.218 162.247 240.866C162.751 240.506 163.043 240.026 163.123 239.426ZM160.387 236.222C160.771 236.222 161.087 236.342 161.335 236.582C161.591 236.814 161.743 237.166 161.791 237.638H158.887C158.943 237.166 159.103 236.814 159.367 236.582C159.639 236.342 159.979 236.222 160.387 236.222ZM168.745 241.25H170.137V232.85H168.697V236.342C168.489 235.934 168.205 235.626 167.845 235.418C167.493 235.21 167.097 235.106 166.657 235.106C165.953 235.106 165.369 235.374 164.905 235.91C164.449 236.438 164.221 237.218 164.221 238.25C164.221 239.282 164.449 240.066 164.905 240.602C165.369 241.13 165.953 241.394 166.657 241.394C167.113 241.394 167.521 241.282 167.881 241.058C168.249 240.826 168.537 240.494 168.745 240.062V241.25ZM167.209 236.258C167.665 236.258 168.025 236.426 168.289 236.762C168.561 237.09 168.697 237.586 168.697 238.25C168.697 238.914 168.561 239.414 168.289 239.75C168.025 240.078 167.665 240.242 167.209 240.242C166.753 240.242 166.389 240.078 166.117 239.75C165.845 239.414 165.709 238.914 165.709 238.25C165.709 237.586 165.845 237.09 166.117 236.762C166.389 236.426 166.753 236.258 167.209 236.258ZM175.725 232.85H174.249V241.25H175.725V232.85ZM178.552 238.25C178.552 237.586 178.688 237.09 178.96 236.762C179.232 236.426 179.584 236.258 180.016 236.258C180.408 236.258 180.712 236.378 180.928 236.618C181.152 236.858 181.28 237.186 181.312 237.602H182.8C182.752 236.818 182.484 236.206 181.996 235.766C181.508 235.326 180.848 235.106 180.016 235.106C179.768 235.106 179.532 235.13 179.308 235.178C179.084 235.218 178.872 235.282 178.672 235.37C178.48 235.45 178.3 235.554 178.132 235.682C177.964 235.81 177.812 235.962 177.676 236.138C177.548 236.306 177.436 236.498 177.34 236.714C177.252 236.93 177.184 237.166 177.136 237.422C177.088 237.678 177.064 237.954 177.064 238.25C177.064 238.546 177.088 238.822 177.136 239.078C177.184 239.334 177.252 239.57 177.34 239.786C177.436 240.002 177.548 240.198 177.676 240.374C177.812 240.542 177.964 240.69 178.132 240.818C178.3 240.946 178.48 241.054 178.672 241.142C178.872 241.222 179.084 241.282 179.308 241.322C179.532 241.37 179.768 241.394 180.016 241.394C180.848 241.394 181.508 241.174 181.996 240.734C182.484 240.294 182.752 239.682 182.8 238.898H181.312C181.28 239.314 181.152 239.642 180.928 239.882C180.712 240.122 180.408 240.242 180.016 240.242C179.584 240.242 179.232 240.078 178.96 239.75C178.688 239.414 178.552 238.914 178.552 238.25ZM186.661 241.394C186.909 241.394 187.145 241.37 187.369 241.322C187.593 241.282 187.801 241.222 187.993 241.142C188.193 241.054 188.377 240.946 188.545 240.818C188.713 240.69 188.861 240.542 188.989 240.374C189.125 240.198 189.237 240.002 189.325 239.786C189.421 239.57 189.493 239.334 189.541 239.078C189.589 238.822 189.613 238.546 189.613 238.25C189.613 237.954 189.589 237.678 189.541 237.422C189.493 237.166 189.421 236.93 189.325 236.714C189.237 236.498 189.125 236.306 188.989 236.138C188.861 235.962 188.713 235.81 188.545 235.682C188.377 235.554 188.193 235.45 187.993 235.37C187.801 235.282 187.593 235.218 187.369 235.178C187.145 235.13 186.909 235.106 186.661 235.106C186.413 235.106 186.177 235.13 185.953 235.178C185.729 235.218 185.517 235.282 185.317 235.37C185.125 235.45 184.945 235.554 184.777 235.682C184.609 235.81 184.457 235.962 184.321 236.138C184.193 236.306 184.081 236.498 183.985 236.714C183.897 236.93 183.829 237.166 183.781 237.422C183.733 237.678 183.709 237.954 183.709 238.25C183.709 238.546 183.733 238.822 183.781 239.078C183.829 239.334 183.897 239.57 183.985 239.786C184.081 240.002 184.193 240.198 184.321 240.374C184.457 240.542 184.609 240.69 184.777 240.818C184.945 240.946 185.125 241.054 185.317 241.142C185.517 241.222 185.729 241.282 185.953 241.322C186.177 241.37 186.413 241.394 186.661 241.394ZM186.661 240.242C186.221 240.242 185.865 240.078 185.593 239.75C185.329 239.414 185.197 238.914 185.197 238.25C185.197 237.586 185.329 237.09 185.593 236.762C185.865 236.426 186.221 236.258 186.661 236.258C187.101 236.258 187.453 236.426 187.717 236.762C187.989 237.09 188.125 237.586 188.125 238.25C188.125 238.914 187.989 239.414 187.717 239.75C187.453 240.078 187.101 240.242 186.661 240.242ZM192.232 235.25H190.852V241.25H192.292V237.806C192.292 237.302 192.408 236.926 192.64 236.678C192.88 236.422 193.196 236.294 193.588 236.294C193.956 236.294 194.244 236.402 194.452 236.618C194.66 236.834 194.764 237.17 194.764 237.626V241.25H196.204V237.422C196.204 236.63 196.016 236.046 195.64 235.67C195.272 235.294 194.792 235.106 194.2 235.106C193.752 235.106 193.356 235.21 193.012 235.418C192.668 235.626 192.408 235.93 192.232 236.33V235.25Z" fill="#1E2D25"/>
</g>
</g>
<defs>
<filter id="filter0_d_500_116881" x="202.5" y="250.5" width="180" height="160.5" filterUnits="userSpaceOnUse" color-interpolation-filters="sRGB">
<feFlood flood-opacity="0" result="BackgroundImageFix"/>
<feColorMatrix in="SourceAlpha" type="matrix" values="0 0 0 0 0 0 0 0 0 0 0 0 0 0 0 0 0 0 127 0" result="hardAlpha"/>
<feOffset dy="12"/>
<feGaussianBlur stdDeviation="15"/>
<feComposite in2="hardAlpha" operator="out"/>
<feColorMatrix type="matrix" values="0 0 0 0 0 0 0 0 0 0 0 0 0 0 0 0 0 0 0.08 0"/>
<feBlend mode="normal" in2="BackgroundImageFix" result="effect1_dropShadow_500_116881"/>
<feBlend mode="normal" in="SourceGraphic" in2="effect1_dropShadow_500_116881" result="shape"/>
</filter>
<filter id="filter1_d_500_116881" x="70.5" y="250.5" width="180" height="160.5" filterUnits="userSpaceOnUse" color-interpolation-filters="sRGB">
<feFlood flood-opacity="0" result="BackgroundImageFix"/>
<feColorMatrix in="SourceAlpha" type="matrix" values="0 0 0 0 0 0 0 0 0 0 0 0 0 0 0 0 0 0 127 0" result="hardAlpha"/>
<feOffset dy="12"/>
<feGaussianBlur stdDeviation="15"/>
<feComposite in2="hardAlpha" operator="out"/>
<feColorMatrix type="matrix" values="0 0 0 0 0 0 0 0 0 0 0 0 0 0 0 0 0 0 0.08 0"/>
<feBlend mode="normal" in2="BackgroundImageFix" result="effect1_dropShadow_500_116881"/>
<feBlend mode="normal" in="SourceGraphic" in2="effect1_dropShadow_500_116881" result="shape"/>
</filter>
<filter id="filter2_d_500_116881" x="200.25" y="123.75" width="180" height="175.5" filterUnits="userSpaceOnUse" color-interpolation-filters="sRGB">
<feFlood flood-opacity="0" result="BackgroundImageFix"/>
<feColorMatrix in="SourceAlpha" type="matrix" values="0 0 0 0 0 0 0 0 0 0 0 0 0 0 0 0 0 0 127 0" result="hardAlpha"/>
<feOffset dy="12"/>
<feGaussianBlur stdDeviation="15"/>
<feComposite in2="hardAlpha" operator="out"/>
<feColorMatrix type="matrix" values="0 0 0 0 0 0 0 0 0 0 0 0 0 0 0 0 0 0 0.08 0"/>
<feBlend mode="normal" in2="BackgroundImageFix" result="effect1_dropShadow_500_116881"/>
<feBlend mode="normal" in="SourceGraphic" in2="effect1_dropShadow_500_116881" result="shape"/>
</filter>
<filter id="filter3_d_500_116881" x="69" y="12" width="180" height="160.5" filterUnits="userSpaceOnUse" color-interpolation-filters="sRGB">
<feFlood flood-opacity="0" result="BackgroundImageFix"/>
<feColorMatrix in="SourceAlpha" type="matrix" values="0 0 0 0 0 0 0 0 0 0 0 0 0 0 0 0 0 0 127 0" result="hardAlpha"/>
<feOffset dy="12"/>
<feGaussianBlur stdDeviation="15"/>
<feComposite in2="hardAlpha" operator="out"/>
<feColorMatrix type="matrix" values="0 0 0 0 0 0 0 0 0 0 0 0 0 0 0 0 0 0 0.08 0"/>
<feBlend mode="normal" in2="BackgroundImageFix" result="effect1_dropShadow_500_116881"/>
<feBlend mode="normal" in="SourceGraphic" in2="effect1_dropShadow_500_116881" result="shape"/>
</filter>
<filter id="filter4_d_500_116881" x="200.25" y="12" width="180" height="160.5" filterUnits="userSpaceOnUse" color-interpolation-filters="sRGB">
<feFlood flood-opacity="0" result="BackgroundImageFix"/>
<feColorMatrix in="SourceAlpha" type="matrix" values="0 0 0 0 0 0 0 0 0 0 0 0 0 0 0 0 0 0 127 0" result="hardAlpha"/>
<feOffset dy="12"/>
<feGaussianBlur stdDeviation="15"/>
<feComposite in2="hardAlpha" operator="out"/>
<feColorMatrix type="matrix" values="0 0 0 0 0 0 0 0 0 0 0 0 0 0 0 0 0 0 0.08 0"/>
<feBlend mode="normal" in2="BackgroundImageFix" result="effect1_dropShadow_500_116881"/>
<feBlend mode="normal" in="SourceGraphic" in2="effect1_dropShadow_500_116881" result="shape"/>
</filter>
<filter id="filter5_d_500_116881" x="69" y="123.75" width="180" height="175.5" filterUnits="userSpaceOnUse" color-interpolation-filters="sRGB">
<feFlood flood-opacity="0" result="BackgroundImageFix"/>
<feColorMatrix in="SourceAlpha" type="matrix" values="0 0 0 0 0 0 0 0 0 0 0 0 0 0 0 0 0 0 127 0" result="hardAlpha"/>
<feOffset dy="12"/>
<feGaussianBlur stdDeviation="15"/>
<feComposite in2="hardAlpha" operator="out"/>
<feColorMatrix type="matrix" values="0 0 0 0 0 0 0 0 0 0 0 0 0 0 0 0 0 0 0.08 0"/>
<feBlend mode="normal" in2="BackgroundImageFix" result="effect1_dropShadow_500_116881"/>
<feBlend mode="normal" in="SourceGraphic" in2="effect1_dropShadow_500_116881" result="shape"/>
</filter>
<clipPath id="clip0_500_116881">
<rect width="624" height="399" fill="white"/>
</clipPath>
</defs>
</svg>
