<svg width="624" height="401" viewBox="0 0 624 401" fill="none" xmlns="http://www.w3.org/2000/svg">
<g clip-path="url(#clip0_501_117195)">
<g opacity="0.4">
<rect x="162" y="66" width="300" height="300" rx="150" fill="#479DBB"/>
</g>
<g opacity="0.4">
<rect x="186" y="90" width="252" height="252" rx="126" fill="#499DA8"/>
</g>
<g opacity="0.4">
<rect x="210" y="114" width="204" height="204" rx="102" fill="#4C9E96"/>
</g>
<g opacity="0.4">
<rect x="234" y="138" width="156" height="156" rx="78" fill="#4D9E85"/>
</g>
<g opacity="0.4">
<rect x="258" y="162" width="108" height="108" rx="54" fill="#51A071"/>
</g>
<g filter="url(#filter0_d_501_117195)">
<rect x="82.5" y="30" width="246.75" height="201" rx="6" fill="white" shape-rendering="crispEdges"/>
<g clip-path="url(#clip1_501_117195)">
<path d="M144.598 67.6099V65.8154H135.308L144.598 54.3003V52.5469H133.411V54.3413H141.973L132.734 65.918V67.6099H144.598ZM149.97 67.9995C150.53 67.9995 151.033 67.9448 151.477 67.8354C152.304 67.644 152.998 67.2749 153.559 66.728C153.894 66.4136 154.196 66.0085 154.466 65.5129C154.736 65.0173 154.895 64.5679 154.943 64.1645H153.128C152.991 64.6499 152.759 65.0771 152.431 65.4463C151.856 66.082 151.087 66.3999 150.124 66.3999C149.091 66.3999 148.329 66.0632 147.837 65.3899C147.345 64.7166 147.082 63.8228 147.047 62.7085H155.097C155.097 61.6011 155.042 60.7944 154.933 60.2886C154.81 59.5503 154.563 58.9043 154.194 58.3506C153.812 57.7695 153.254 57.2961 152.523 56.9304C151.792 56.5647 151.036 56.3818 150.257 56.3818C148.712 56.3818 147.461 56.9321 146.504 58.0327C145.547 59.1333 145.068 60.5654 145.068 62.3291C145.068 64.1201 145.543 65.5129 146.494 66.5076C147.444 67.5022 148.603 67.9995 149.97 67.9995ZM153.2 61.2422H147.099C147.133 60.2988 147.437 59.5212 148.011 58.9094C148.585 58.2976 149.296 57.9917 150.144 57.9917C151.327 57.9917 152.171 58.436 152.677 59.3247C152.95 59.8032 153.125 60.4424 153.2 61.2422ZM158.458 67.6099V61.8574C158.458 61.1396 158.505 60.5876 158.597 60.2014C158.689 59.8152 158.889 59.4409 159.197 59.0786C159.58 58.6274 160.024 58.3267 160.53 58.1763C160.81 58.0874 161.169 58.043 161.606 58.043C162.468 58.043 163.062 58.3848 163.391 59.0684C163.589 59.4785 163.688 60.0186 163.688 60.6885V67.6099H165.564V60.5654C165.564 59.458 165.414 58.6069 165.113 58.0122C164.566 56.9253 163.514 56.3818 161.955 56.3818C161.244 56.3818 160.598 56.522 160.017 56.8022C159.436 57.0825 158.886 57.5439 158.366 58.1865V56.6279H156.613V67.6099H158.458ZM170.126 67.7842C170.393 67.7842 170.64 67.7705 170.869 67.7432C171.098 67.7158 171.319 67.6714 171.531 67.6099V66.1538C171.394 66.1675 171.274 66.176 171.172 66.1794C171.069 66.1829 170.974 66.1846 170.885 66.1846C170.55 66.1846 170.311 66.147 170.167 66.0718C169.907 65.9419 169.777 65.6855 169.777 65.3027V58.1353H171.531V56.6279H169.777V53.562H167.911V56.6279H166.424V58.1353H167.911V65.4053C167.911 66.1094 168.065 66.6819 168.373 67.1228C168.68 67.5637 169.265 67.7842 170.126 67.7842ZM176.81 68.0098C178.622 68.0098 179.958 67.4321 180.819 66.2769C181.681 65.1216 182.111 63.6587 182.111 61.8882C182.111 60.0562 181.623 58.6685 180.645 57.7251C179.667 56.7817 178.471 56.3101 177.056 56.3101C175.477 56.3101 174.219 56.8569 173.283 57.9507C172.346 59.0444 171.878 60.5142 171.878 62.3599C171.878 64.0825 172.322 65.4548 173.211 66.4768C174.1 67.4988 175.299 68.0098 176.81 68.0098ZM176.984 66.4204C175.87 66.4204 175.057 66.0308 174.544 65.2515C174.031 64.4722 173.775 63.498 173.775 62.3291C173.775 61.1123 174.031 60.0732 174.544 59.2119C175.057 58.3506 175.877 57.9199 177.005 57.9199C178.276 57.9199 179.172 58.4258 179.691 59.4375C180.02 60.0801 180.184 60.9141 180.184 61.9395C180.184 63.0742 179.956 64.1047 179.502 65.031C179.047 65.9573 178.208 66.4204 176.984 66.4204ZM187.442 68.0303C188.959 68.0303 190.089 67.6748 190.831 66.9639C191.573 66.2529 191.943 65.4087 191.943 64.4311C191.943 63.4194 191.584 62.6777 190.867 62.2061C190.416 61.9053 189.527 61.5942 188.201 61.2729L186.98 60.9756C186.447 60.8457 186.044 60.6953 185.771 60.5244C185.299 60.2373 185.063 59.8545 185.063 59.376C185.063 58.9385 185.242 58.5864 185.601 58.3198C185.96 58.0532 186.488 57.9199 187.186 57.9199C188.231 57.9199 188.966 58.1626 189.39 58.6479C189.65 58.9897 189.797 59.3691 189.831 59.7861H191.574C191.588 59.0752 191.366 58.4121 190.908 57.7969C190.176 56.8262 188.983 56.3408 187.329 56.3408C186.064 56.3408 185.058 56.6621 184.309 57.3047C183.561 57.9473 183.187 58.7881 183.187 59.8271C183.187 60.709 183.583 61.3994 184.376 61.8984C184.82 62.1855 185.511 62.4453 186.447 62.6777L187.914 63.0469C188.7 63.2451 189.226 63.4194 189.493 63.5698C189.91 63.8159 190.118 64.1748 190.118 64.6465C190.118 65.2686 189.858 65.7283 189.339 66.0256C188.819 66.323 188.218 66.4717 187.534 66.4717C186.386 66.4717 185.579 66.1743 185.114 65.5796C184.861 65.2515 184.708 64.7798 184.653 64.1645H182.879C182.927 65.2583 183.291 66.176 183.971 66.9177C184.651 67.6594 185.808 68.0303 187.442 68.0303ZM197.489 68.0098C199.301 68.0098 200.637 67.4321 201.499 66.2769C202.36 65.1216 202.791 63.6587 202.791 61.8882C202.791 60.0562 202.302 58.6685 201.324 57.7251C200.347 56.7817 199.15 56.3101 197.735 56.3101C196.156 56.3101 194.898 56.8569 193.962 57.9507C193.025 59.0444 192.557 60.5142 192.557 62.3599C192.557 64.0825 193.001 65.4548 193.89 66.4768C194.779 67.4988 195.979 68.0098 197.489 68.0098ZM197.664 66.4204C196.549 66.4204 195.736 66.0308 195.223 65.2515C194.71 64.4722 194.454 63.498 194.454 62.3291C194.454 61.1123 194.71 60.0732 195.223 59.2119C195.736 58.3506 196.556 57.9199 197.684 57.9199C198.956 57.9199 199.851 58.4258 200.371 59.4375C200.699 60.0801 200.863 60.9141 200.863 61.9395C200.863 63.0742 200.635 64.1047 200.181 65.031C199.726 65.9573 198.887 66.4204 197.664 66.4204Z" fill="#323C46"/>
<mask id="mask0_501_117195" style="mask-type:alpha" maskUnits="userSpaceOnUse" x="94" y="41" width="31" height="16">
<path d="M94.5 41.9922H124.467V56.2013H94.5V41.9922Z" fill="#323C46"/>
</mask>
<g mask="url(#mask0_501_117195)">
<path fill-rule="evenodd" clip-rule="evenodd" d="M124.467 51.7641C124.467 51.0311 124.111 50.2979 123.4 49.8761L110.598 42.2901C109.929 41.8936 109.102 41.8928 108.432 42.2881L95.5705 49.8781C94.8574 50.2988 94.5005 51.0318 94.5 51.765V56.2014C94.5005 55.4682 94.8574 54.7351 95.5705 54.3144L108.432 46.7245C109.102 46.3293 109.929 46.33 110.598 46.7265L123.4 54.3125C124.111 54.7344 124.467 55.4674 124.467 56.2005V51.7641Z" fill="#323C46"/>
</g>
<path fill-rule="evenodd" clip-rule="evenodd" d="M124.5 60.042C124.5 59.307 124.144 58.5717 123.432 58.1487L110.616 50.541C109.946 50.1434 109.118 50.1425 108.447 50.5389L95.5717 58.1506C94.8578 58.5726 94.5005 59.3078 94.5 60.043V64.4922C94.5005 63.7568 94.8578 63.0216 95.5717 62.5997L108.447 54.9881C109.118 54.5917 109.946 54.5924 110.616 54.9901L123.432 62.5978C124.144 63.0209 124.5 63.7562 124.5 64.4911V60.042Z" fill="#323C46"/>
<path fill-rule="evenodd" clip-rule="evenodd" d="M124.5 56.2164C124.499 56.9493 124.143 57.6819 123.43 58.103L110.581 65.6951C109.911 66.0912 109.083 66.0912 108.412 65.6951L95.5699 58.1069C94.8559 57.6851 94.4993 56.9506 94.5 56.2164V51.7786C94.4993 52.5128 94.8559 53.2473 95.5699 53.6691L108.412 61.2575C109.083 61.6535 109.911 61.6535 110.581 61.2575L123.43 53.6652C124.154 53.2372 124.511 52.4872 124.5 51.7422L124.5 56.2164Z" fill="#F8DABE"/>
<mask id="mask1_501_117195" style="mask-type:alpha" maskUnits="userSpaceOnUse" x="94" y="55" width="31" height="15">
<path d="M94.5176 55.5156H124.484V69.6534H94.5176V55.5156Z" fill="#FA8C28"/>
</mask>
<g mask="url(#mask1_501_117195)">
<path fill-rule="evenodd" clip-rule="evenodd" d="M124.484 59.9546C124.484 60.6817 124.127 61.4085 123.416 61.8263L110.581 69.3586C109.911 69.7516 109.084 69.7516 108.415 69.3586L95.5864 61.8302C94.8732 61.4116 94.5169 60.6829 94.5176 59.9546V55.5518C94.5169 56.2802 94.8732 57.0087 95.5864 57.4274L108.415 64.9559C109.084 65.3488 109.911 65.3488 110.581 64.9559L123.416 57.4235C124.139 56.9988 124.496 56.2547 124.484 55.5156L124.484 59.9546Z" fill="#FA8C28"/>
</g>
<mask id="mask2_501_117195" style="mask-type:alpha" maskUnits="userSpaceOnUse" x="94" y="59" width="31" height="16">
<path d="M94.5 59.9922H124.467V74.2378H94.5V59.9922Z" fill="#D74119"/>
</mask>
<g mask="url(#mask2_501_117195)">
<path fill-rule="evenodd" clip-rule="evenodd" d="M124.467 64.4651C124.466 65.1977 124.11 65.9301 123.398 66.3511L110.563 73.9409C109.894 74.3368 109.066 74.3368 108.397 73.9409L95.5688 66.355C94.8555 65.9331 94.4993 65.1989 94.5 64.4651V60.0286C94.4993 60.7626 94.8555 61.4968 95.5688 61.9185L108.397 69.5046C109.066 69.9004 109.894 69.9004 110.563 69.5046L123.398 61.9146C124.122 61.4866 124.478 60.737 124.466 59.9922L124.467 64.4651Z" fill="#D74119"/>
</g>
<path d="M215.42 51.6111H210.511V68.248H208.166V51.6111H203.27V49.5859H215.42V51.6111Z" fill="#323C46"/>
<path d="M223.509 64.6464L227.777 49.5859H230.354L224.547 68.248H222.497L216.703 49.5859H219.267L223.509 64.6464Z" fill="#323C46"/>
</g>
<path d="M99.432 91.796C99.264 92.084 99.1 92.376 98.94 92.672C98.78 92.968 98.636 93.252 98.508 93.524C98.372 93.252 98.224 92.968 98.064 92.672C97.904 92.376 97.74 92.084 97.572 91.796L96.228 89.6H94.596L97.764 94.736V98H99.24V94.736L102.408 89.6H100.776L99.432 91.796ZM104.787 98.144C105.035 98.144 105.271 98.12 105.495 98.072C105.719 98.032 105.927 97.972 106.119 97.892C106.319 97.804 106.503 97.696 106.671 97.568C106.839 97.44 106.987 97.292 107.115 97.124C107.251 96.948 107.363 96.752 107.451 96.536C107.547 96.32 107.619 96.084 107.667 95.828C107.715 95.572 107.739 95.296 107.739 95C107.739 94.704 107.715 94.428 107.667 94.172C107.619 93.916 107.547 93.68 107.451 93.464C107.363 93.248 107.251 93.056 107.115 92.888C106.987 92.712 106.839 92.56 106.671 92.432C106.503 92.304 106.319 92.2 106.119 92.12C105.927 92.032 105.719 91.968 105.495 91.928C105.271 91.88 105.035 91.856 104.787 91.856C104.539 91.856 104.303 91.88 104.079 91.928C103.855 91.968 103.643 92.032 103.443 92.12C103.251 92.2 103.071 92.304 102.903 92.432C102.735 92.56 102.583 92.712 102.447 92.888C102.319 93.056 102.207 93.248 102.111 93.464C102.023 93.68 101.955 93.916 101.907 94.172C101.859 94.428 101.835 94.704 101.835 95C101.835 95.296 101.859 95.572 101.907 95.828C101.955 96.084 102.023 96.32 102.111 96.536C102.207 96.752 102.319 96.948 102.447 97.124C102.583 97.292 102.735 97.44 102.903 97.568C103.071 97.696 103.251 97.804 103.443 97.892C103.643 97.972 103.855 98.032 104.079 98.072C104.303 98.12 104.539 98.144 104.787 98.144ZM104.787 96.992C104.347 96.992 103.991 96.828 103.719 96.5C103.455 96.164 103.323 95.664 103.323 95C103.323 94.336 103.455 93.84 103.719 93.512C103.991 93.176 104.347 93.008 104.787 93.008C105.227 93.008 105.579 93.176 105.843 93.512C106.115 93.84 106.251 94.336 106.251 95C106.251 95.664 106.115 96.164 105.843 96.5C105.579 96.828 105.227 96.992 104.787 96.992ZM108.919 95.876C108.919 96.644 109.099 97.216 109.459 97.592C109.827 97.96 110.299 98.144 110.875 98.144C111.307 98.144 111.687 98.048 112.015 97.856C112.343 97.656 112.595 97.368 112.771 96.992V98H114.163V92H112.723V95.492C112.723 95.972 112.607 96.336 112.375 96.584C112.151 96.832 111.855 96.956 111.487 96.956C111.127 96.956 110.847 96.852 110.647 96.644C110.455 96.428 110.359 96.104 110.359 95.672V92H108.919V95.876ZM118.718 93.26C118.822 93.26 118.914 93.268 118.994 93.284C119.082 93.292 119.158 93.304 119.222 93.32V92C119.158 91.984 119.086 91.972 119.006 91.964C118.934 91.948 118.85 91.94 118.754 91.94C118.338 91.94 117.974 92.06 117.662 92.3C117.35 92.532 117.122 92.896 116.978 93.392V92H115.658V98H117.098V94.928C117.098 94.36 117.246 93.94 117.542 93.668C117.846 93.396 118.238 93.26 118.718 93.26ZM125.994 98.144C126.698 98.144 127.278 97.88 127.734 97.352C128.19 96.816 128.418 96.032 128.418 95C128.418 93.968 128.19 93.188 127.734 92.66C127.278 92.124 126.698 91.856 125.994 91.856C125.538 91.856 125.122 91.972 124.746 92.204C124.378 92.428 124.094 92.768 123.894 93.224V92H122.514V100.4H123.954V96.908C124.162 97.316 124.442 97.624 124.794 97.832C125.154 98.04 125.554 98.144 125.994 98.144ZM125.442 96.992C124.986 96.992 124.622 96.828 124.35 96.5C124.086 96.164 123.954 95.664 123.954 95C123.954 94.336 124.086 93.84 124.35 93.512C124.622 93.176 124.986 93.008 125.442 93.008C125.898 93.008 126.258 93.176 126.522 93.512C126.794 93.84 126.93 94.336 126.93 95C126.93 95.664 126.794 96.164 126.522 96.5C126.258 96.828 125.898 96.992 125.442 96.992ZM132.746 93.26C132.85 93.26 132.942 93.268 133.022 93.284C133.11 93.292 133.186 93.304 133.25 93.32V92C133.186 91.984 133.114 91.972 133.034 91.964C132.962 91.948 132.878 91.94 132.782 91.94C132.366 91.94 132.002 92.06 131.69 92.3C131.378 92.532 131.15 92.896 131.006 93.392V92H129.686V98H131.126V94.928C131.126 94.36 131.274 93.94 131.57 93.668C131.874 93.396 132.266 93.26 132.746 93.26ZM135.719 89.6H134.279V90.944H135.719V89.6ZM135.719 92H134.279V98H135.719V92ZM138.913 98H140.257L142.549 92H141.061L140.317 94.088C140.157 94.544 140.017 94.956 139.897 95.324C139.777 95.684 139.673 96.056 139.585 96.44C139.489 96.056 139.381 95.684 139.261 95.324C139.149 94.956 139.013 94.544 138.853 94.088L138.109 92H136.621L138.913 98ZM148.726 98C148.686 97.912 148.65 97.832 148.618 97.76C148.586 97.68 148.558 97.612 148.534 97.556C148.518 97.492 148.498 97.432 148.474 97.376C148.458 97.32 148.442 97.268 148.426 97.22C148.418 97.172 148.41 97.124 148.402 97.076C148.394 97.02 148.386 96.968 148.378 96.92C148.378 96.864 148.374 96.808 148.366 96.752C148.366 96.688 148.366 96.624 148.366 96.56C148.366 96.488 148.366 96.408 148.366 96.32V93.764C148.366 93.14 148.134 92.668 147.67 92.348C147.214 92.02 146.59 91.856 145.798 91.856C144.998 91.856 144.366 92.012 143.902 92.324C143.446 92.636 143.218 93.104 143.218 93.728H144.67C144.678 93.48 144.782 93.292 144.982 93.164C145.182 93.036 145.454 92.972 145.798 92.972C146.158 92.972 146.434 93.036 146.626 93.164C146.826 93.284 146.926 93.476 146.926 93.74C146.926 93.82 146.914 93.896 146.89 93.968C146.866 94.032 146.826 94.088 146.77 94.136C146.722 94.184 146.666 94.228 146.602 94.268C146.538 94.308 146.462 94.344 146.374 94.376C146.294 94.4 146.206 94.424 146.11 94.448C146.014 94.464 145.91 94.48 145.798 94.496C145.694 94.512 145.586 94.528 145.474 94.544C145.362 94.56 145.246 94.576 145.126 94.592C145.014 94.608 144.902 94.628 144.79 94.652C144.678 94.676 144.566 94.7 144.454 94.724C144.342 94.748 144.23 94.78 144.118 94.82C144.014 94.86 143.914 94.904 143.818 94.952C143.722 95 143.63 95.056 143.542 95.12C143.462 95.184 143.39 95.256 143.326 95.336C143.262 95.416 143.202 95.508 143.146 95.612C143.098 95.716 143.062 95.832 143.038 95.96C143.014 96.08 143.002 96.216 143.002 96.368C143.002 96.944 143.186 97.38 143.554 97.676C143.93 97.972 144.39 98.12 144.934 98.12C145.382 98.12 145.778 98.024 146.122 97.832C146.474 97.632 146.742 97.356 146.926 97.004L147.274 98H148.726ZM144.478 96.2C144.478 96.112 144.49 96.032 144.514 95.96C144.538 95.88 144.574 95.812 144.622 95.756C144.67 95.692 144.722 95.636 144.778 95.588C144.842 95.54 144.914 95.496 144.994 95.456C145.074 95.416 145.158 95.38 145.246 95.348C145.334 95.316 145.426 95.284 145.522 95.252C145.618 95.22 145.714 95.192 145.81 95.168C145.906 95.136 146.002 95.108 146.098 95.084C146.202 95.052 146.302 95.02 146.398 94.988C146.494 94.948 146.586 94.908 146.674 94.868C146.762 94.828 146.846 94.784 146.926 94.736V95.492C146.926 95.988 146.778 96.368 146.482 96.632C146.194 96.896 145.866 97.028 145.498 97.028C145.178 97.028 144.926 96.964 144.742 96.836C144.566 96.7 144.478 96.488 144.478 96.2ZM151.03 95C151.03 94.336 151.166 93.84 151.438 93.512C151.71 93.176 152.062 93.008 152.494 93.008C152.886 93.008 153.19 93.128 153.406 93.368C153.63 93.608 153.758 93.936 153.79 94.352H155.278C155.23 93.568 154.962 92.956 154.474 92.516C153.986 92.076 153.326 91.856 152.494 91.856C152.246 91.856 152.01 91.88 151.786 91.928C151.562 91.968 151.35 92.032 151.15 92.12C150.958 92.2 150.778 92.304 150.61 92.432C150.442 92.56 150.29 92.712 150.154 92.888C150.026 93.056 149.914 93.248 149.818 93.464C149.73 93.68 149.662 93.916 149.614 94.172C149.566 94.428 149.542 94.704 149.542 95C149.542 95.296 149.566 95.572 149.614 95.828C149.662 96.084 149.73 96.32 149.818 96.536C149.914 96.752 150.026 96.948 150.154 97.124C150.29 97.292 150.442 97.44 150.61 97.568C150.778 97.696 150.958 97.804 151.15 97.892C151.35 97.972 151.562 98.032 151.786 98.072C152.01 98.12 152.246 98.144 152.494 98.144C153.326 98.144 153.986 97.924 154.474 97.484C154.962 97.044 155.23 96.432 155.278 95.648H153.79C153.758 96.064 153.63 96.392 153.406 96.632C153.19 96.872 152.886 96.992 152.494 96.992C152.062 96.992 151.71 96.828 151.438 96.5C151.166 96.164 151.03 95.664 151.03 95ZM159.418 94.088C159.258 94.544 159.118 94.956 158.998 95.324C158.878 95.684 158.774 96.056 158.686 96.44C158.59 96.056 158.482 95.684 158.362 95.324C158.25 94.956 158.114 94.544 157.954 94.088L157.21 92H155.722L157.978 97.892L157.75 98.504C157.638 98.816 157.514 99.016 157.378 99.104C157.242 99.2 157.05 99.248 156.802 99.248H156.226V100.4H157.006C157.134 100.4 157.254 100.396 157.366 100.388C157.478 100.38 157.582 100.364 157.678 100.34C157.782 100.324 157.878 100.296 157.966 100.256C158.054 100.224 158.134 100.18 158.206 100.124C158.286 100.068 158.362 99.996 158.434 99.908C158.506 99.828 158.574 99.732 158.638 99.62C158.71 99.516 158.778 99.392 158.842 99.248C158.914 99.112 158.982 98.956 159.046 98.78L161.65 92H160.162L159.418 94.088ZM166.187 92H164.807V98H166.247V94.46C166.247 93.996 166.351 93.644 166.559 93.404C166.767 93.164 167.043 93.044 167.387 93.044C167.707 93.044 167.955 93.144 168.131 93.344C168.315 93.544 168.407 93.856 168.407 94.28V98H169.847V94.46C169.847 93.996 169.947 93.644 170.147 93.404C170.355 93.164 170.631 93.044 170.975 93.044C171.303 93.044 171.555 93.144 171.731 93.344C171.907 93.544 171.995 93.856 171.995 94.28V98H173.435V94.076C173.435 93.316 173.259 92.756 172.907 92.396C172.563 92.036 172.115 91.856 171.563 91.856C171.139 91.856 170.763 91.956 170.435 92.156C170.115 92.356 169.867 92.648 169.691 93.032C169.563 92.632 169.351 92.336 169.055 92.144C168.759 91.952 168.407 91.856 167.999 91.856C167.591 91.856 167.227 91.952 166.907 92.144C166.595 92.336 166.355 92.616 166.187 92.984V92ZM180.285 98C180.245 97.912 180.209 97.832 180.177 97.76C180.145 97.68 180.117 97.612 180.093 97.556C180.077 97.492 180.057 97.432 180.033 97.376C180.017 97.32 180.001 97.268 179.985 97.22C179.977 97.172 179.969 97.124 179.961 97.076C179.953 97.02 179.945 96.968 179.937 96.92C179.937 96.864 179.933 96.808 179.925 96.752C179.925 96.688 179.925 96.624 179.925 96.56C179.925 96.488 179.925 96.408 179.925 96.32V93.764C179.925 93.14 179.693 92.668 179.229 92.348C178.773 92.02 178.149 91.856 177.357 91.856C176.557 91.856 175.925 92.012 175.461 92.324C175.005 92.636 174.777 93.104 174.777 93.728H176.229C176.237 93.48 176.341 93.292 176.541 93.164C176.741 93.036 177.013 92.972 177.357 92.972C177.717 92.972 177.993 93.036 178.185 93.164C178.385 93.284 178.485 93.476 178.485 93.74C178.485 93.82 178.473 93.896 178.449 93.968C178.425 94.032 178.385 94.088 178.329 94.136C178.281 94.184 178.225 94.228 178.161 94.268C178.097 94.308 178.021 94.344 177.933 94.376C177.853 94.4 177.765 94.424 177.669 94.448C177.573 94.464 177.469 94.48 177.357 94.496C177.253 94.512 177.145 94.528 177.033 94.544C176.921 94.56 176.805 94.576 176.685 94.592C176.573 94.608 176.461 94.628 176.349 94.652C176.237 94.676 176.125 94.7 176.013 94.724C175.901 94.748 175.789 94.78 175.677 94.82C175.573 94.86 175.473 94.904 175.377 94.952C175.281 95 175.189 95.056 175.101 95.12C175.021 95.184 174.949 95.256 174.885 95.336C174.821 95.416 174.761 95.508 174.705 95.612C174.657 95.716 174.621 95.832 174.597 95.96C174.573 96.08 174.561 96.216 174.561 96.368C174.561 96.944 174.745 97.38 175.113 97.676C175.489 97.972 175.949 98.12 176.493 98.12C176.941 98.12 177.337 98.024 177.681 97.832C178.033 97.632 178.301 97.356 178.485 97.004L178.833 98H180.285ZM176.037 96.2C176.037 96.112 176.049 96.032 176.073 95.96C176.097 95.88 176.133 95.812 176.181 95.756C176.229 95.692 176.281 95.636 176.337 95.588C176.401 95.54 176.473 95.496 176.553 95.456C176.633 95.416 176.717 95.38 176.805 95.348C176.893 95.316 176.985 95.284 177.081 95.252C177.177 95.22 177.273 95.192 177.369 95.168C177.465 95.136 177.561 95.108 177.657 95.084C177.761 95.052 177.861 95.02 177.957 94.988C178.053 94.948 178.145 94.908 178.233 94.868C178.321 94.828 178.405 94.784 178.485 94.736V95.492C178.485 95.988 178.337 96.368 178.041 96.632C177.753 96.896 177.425 97.028 177.057 97.028C176.737 97.028 176.485 96.964 176.301 96.836C176.125 96.7 176.037 96.488 176.037 96.2ZM183.153 95.996V93.152H184.653V92H183.153V90.44H181.725V92H180.789V93.152H181.725V96.26C181.725 96.908 181.873 97.36 182.169 97.616C182.473 97.872 182.905 98 183.465 98H184.653V96.848H183.933C183.669 96.848 183.473 96.788 183.345 96.668C183.217 96.54 183.153 96.316 183.153 95.996ZM187.501 95.996V93.152H189.001V92H187.501V90.44H186.073V92H185.137V93.152H186.073V96.26C186.073 96.908 186.221 97.36 186.517 97.616C186.821 97.872 187.253 98 187.813 98H189.001V96.848H188.281C188.017 96.848 187.821 96.788 187.693 96.668C187.565 96.54 187.501 96.316 187.501 95.996ZM195.473 96.176H193.997C193.941 96.424 193.809 96.628 193.601 96.788C193.401 96.948 193.113 97.028 192.737 97.028C192.305 97.028 191.949 96.892 191.669 96.62C191.389 96.348 191.237 95.94 191.213 95.396H195.569C195.577 95.332 195.581 95.268 195.581 95.204C195.581 95.14 195.581 95.072 195.581 95C195.581 94.736 195.561 94.492 195.521 94.268C195.489 94.036 195.437 93.824 195.365 93.632C195.293 93.432 195.205 93.252 195.101 93.092C195.005 92.924 194.893 92.776 194.765 92.648C194.645 92.512 194.509 92.396 194.357 92.3C194.205 92.204 194.041 92.124 193.865 92.06C193.697 91.988 193.517 91.936 193.325 91.904C193.141 91.872 192.945 91.856 192.737 91.856C192.489 91.856 192.253 91.88 192.029 91.928C191.805 91.968 191.593 92.032 191.393 92.12C191.201 92.2 191.021 92.304 190.853 92.432C190.685 92.56 190.533 92.712 190.397 92.888C190.269 93.056 190.157 93.248 190.061 93.464C189.973 93.672 189.905 93.904 189.857 94.16C189.809 94.416 189.785 94.696 189.785 95C189.785 95.304 189.809 95.584 189.857 95.84C189.905 96.096 189.973 96.332 190.061 96.548C190.157 96.756 190.269 96.948 190.397 97.124C190.533 97.292 190.685 97.44 190.853 97.568C191.021 97.696 191.201 97.804 191.393 97.892C191.593 97.972 191.805 98.032 192.029 98.072C192.253 98.12 192.489 98.144 192.737 98.144C193.481 98.144 194.101 97.968 194.597 97.616C195.101 97.256 195.393 96.776 195.473 96.176ZM192.737 92.972C193.121 92.972 193.437 93.092 193.685 93.332C193.941 93.564 194.093 93.916 194.141 94.388H191.237C191.293 93.916 191.453 93.564 191.717 93.332C191.989 93.092 192.329 92.972 192.737 92.972ZM199.882 93.26C199.986 93.26 200.078 93.268 200.158 93.284C200.246 93.292 200.322 93.304 200.386 93.32V92C200.322 91.984 200.25 91.972 200.17 91.964C200.098 91.948 200.014 91.94 199.918 91.94C199.502 91.94 199.138 92.06 198.826 92.3C198.514 92.532 198.286 92.896 198.142 93.392V92H196.822V98H198.262V94.928C198.262 94.36 198.41 93.94 198.706 93.668C199.01 93.396 199.402 93.26 199.882 93.26ZM201.166 93.668C201.166 93.812 201.178 93.944 201.202 94.064C201.226 94.184 201.258 94.296 201.298 94.4C201.346 94.496 201.398 94.584 201.454 94.664C201.518 94.744 201.586 94.816 201.658 94.88C201.738 94.944 201.822 95.004 201.91 95.06C201.998 95.108 202.09 95.156 202.186 95.204C202.282 95.244 202.378 95.28 202.474 95.312C202.578 95.344 202.682 95.376 202.786 95.408C202.89 95.432 202.994 95.456 203.098 95.48C203.202 95.496 203.302 95.516 203.398 95.54C203.502 95.556 203.602 95.576 203.698 95.6C203.794 95.616 203.886 95.64 203.974 95.672C204.062 95.696 204.142 95.724 204.214 95.756C204.294 95.78 204.362 95.812 204.418 95.852C204.482 95.884 204.534 95.924 204.574 95.972C204.622 96.02 204.658 96.076 204.682 96.14C204.706 96.196 204.718 96.26 204.718 96.332C204.718 96.556 204.618 96.732 204.418 96.86C204.218 96.988 203.958 97.052 203.638 97.052C203.254 97.052 202.95 96.972 202.726 96.812C202.51 96.652 202.39 96.44 202.366 96.176H200.986C200.994 96.768 201.238 97.244 201.718 97.604C202.198 97.964 202.838 98.144 203.638 98.144C204.358 98.144 204.942 97.984 205.39 97.664C205.846 97.344 206.074 96.876 206.074 96.26C206.074 96.116 206.062 95.984 206.038 95.864C206.014 95.744 205.978 95.636 205.93 95.54C205.89 95.444 205.838 95.356 205.774 95.276C205.718 95.188 205.65 95.112 205.57 95.048C205.498 94.984 205.418 94.928 205.33 94.88C205.25 94.824 205.162 94.776 205.066 94.736C204.97 94.688 204.87 94.648 204.766 94.616C204.67 94.584 204.57 94.556 204.466 94.532C204.362 94.5 204.254 94.476 204.142 94.46C204.038 94.436 203.934 94.416 203.83 94.4C203.734 94.376 203.638 94.352 203.542 94.328C203.446 94.304 203.354 94.28 203.266 94.256C203.186 94.232 203.106 94.208 203.026 94.184C202.954 94.152 202.886 94.12 202.822 94.088C202.766 94.048 202.714 94.004 202.666 93.956C202.626 93.908 202.594 93.856 202.57 93.8C202.546 93.736 202.534 93.668 202.534 93.596C202.534 93.396 202.622 93.24 202.798 93.128C202.974 93.008 203.202 92.948 203.482 92.948C203.818 92.948 204.082 93.02 204.274 93.164C204.466 93.3 204.57 93.488 204.586 93.728H205.966C205.958 93.176 205.738 92.728 205.306 92.384C204.882 92.032 204.274 91.856 203.482 91.856C202.786 91.856 202.226 92.016 201.802 92.336C201.378 92.648 201.166 93.092 201.166 93.668Z" fill="#1E2D25"/>
<path d="M94.5 114H296.25" stroke="#D5D5D5" stroke-width="4.5" stroke-linecap="round" stroke-linejoin="round"/>
<path d="M94.5 126H312" stroke="#D5D5D5" stroke-width="4.5" stroke-linecap="round" stroke-linejoin="round"/>
<path d="M94.5 138H312" stroke="#D5D5D5" stroke-width="4.5" stroke-linecap="round" stroke-linejoin="round"/>
<path d="M94.5 150H312" stroke="#D5D5D5" stroke-width="4.5" stroke-linecap="round" stroke-linejoin="round"/>
<path d="M94.5 162.75L296.754 162" stroke="#D5D5D5" stroke-width="4.5" stroke-linecap="round" stroke-linejoin="round"/>
<path d="M94.5 177L308.264 174.75" stroke="#D5D5D5" stroke-width="4.5" stroke-linecap="round" stroke-linejoin="round"/>
<rect x="94.5" y="189" width="93.75" height="30" rx="15" fill="#1679B7"/>
<path d="M119.559 208H121.083L117.867 199.6H116.235L113.019 208H114.543L115.251 206.08H118.851L119.559 208ZM115.827 204.508C116.099 203.788 116.335 203.132 116.535 202.54C116.735 201.94 116.907 201.368 117.051 200.824C117.195 201.368 117.367 201.94 117.567 202.54C117.775 203.132 118.011 203.788 118.275 204.508L118.395 204.82H115.707L115.827 204.508ZM123.163 205C123.163 204.336 123.299 203.84 123.571 203.512C123.843 203.176 124.195 203.008 124.627 203.008C125.019 203.008 125.323 203.128 125.539 203.368C125.763 203.608 125.891 203.936 125.923 204.352H127.411C127.363 203.568 127.095 202.956 126.607 202.516C126.119 202.076 125.459 201.856 124.627 201.856C124.379 201.856 124.143 201.88 123.919 201.928C123.695 201.968 123.483 202.032 123.283 202.12C123.091 202.2 122.911 202.304 122.743 202.432C122.575 202.56 122.423 202.712 122.287 202.888C122.159 203.056 122.047 203.248 121.951 203.464C121.863 203.68 121.795 203.916 121.747 204.172C121.699 204.428 121.675 204.704 121.675 205C121.675 205.296 121.699 205.572 121.747 205.828C121.795 206.084 121.863 206.32 121.951 206.536C122.047 206.752 122.159 206.948 122.287 207.124C122.423 207.292 122.575 207.44 122.743 207.568C122.911 207.696 123.091 207.804 123.283 207.892C123.483 207.972 123.695 208.032 123.919 208.072C124.143 208.12 124.379 208.144 124.627 208.144C125.459 208.144 126.119 207.924 126.607 207.484C127.095 207.044 127.363 206.432 127.411 205.648H125.923C125.891 206.064 125.763 206.392 125.539 206.632C125.323 206.872 125.019 206.992 124.627 206.992C124.195 206.992 123.843 206.828 123.571 206.5C123.299 206.164 123.163 205.664 123.163 205ZM129.808 205C129.808 204.336 129.944 203.84 130.216 203.512C130.488 203.176 130.84 203.008 131.272 203.008C131.664 203.008 131.968 203.128 132.184 203.368C132.408 203.608 132.536 203.936 132.568 204.352H134.056C134.008 203.568 133.74 202.956 133.252 202.516C132.764 202.076 132.104 201.856 131.272 201.856C131.024 201.856 130.788 201.88 130.564 201.928C130.34 201.968 130.128 202.032 129.928 202.12C129.736 202.2 129.556 202.304 129.388 202.432C129.22 202.56 129.068 202.712 128.932 202.888C128.804 203.056 128.692 203.248 128.596 203.464C128.508 203.68 128.44 203.916 128.392 204.172C128.344 204.428 128.32 204.704 128.32 205C128.32 205.296 128.344 205.572 128.392 205.828C128.44 206.084 128.508 206.32 128.596 206.536C128.692 206.752 128.804 206.948 128.932 207.124C129.068 207.292 129.22 207.44 129.388 207.568C129.556 207.696 129.736 207.804 129.928 207.892C130.128 207.972 130.34 208.032 130.564 208.072C130.788 208.12 131.024 208.144 131.272 208.144C132.104 208.144 132.764 207.924 133.252 207.484C133.74 207.044 134.008 206.432 134.056 205.648H132.568C132.536 206.064 132.408 206.392 132.184 206.632C131.968 206.872 131.664 206.992 131.272 206.992C130.84 206.992 130.488 206.828 130.216 206.5C129.944 206.164 129.808 205.664 129.808 205ZM140.652 206.176H139.176C139.12 206.424 138.988 206.628 138.78 206.788C138.58 206.948 138.292 207.028 137.916 207.028C137.484 207.028 137.128 206.892 136.848 206.62C136.568 206.348 136.416 205.94 136.392 205.396H140.748C140.756 205.332 140.76 205.268 140.76 205.204C140.76 205.14 140.76 205.072 140.76 205C140.76 204.736 140.74 204.492 140.7 204.268C140.668 204.036 140.616 203.824 140.544 203.632C140.472 203.432 140.384 203.252 140.28 203.092C140.184 202.924 140.072 202.776 139.944 202.648C139.824 202.512 139.688 202.396 139.536 202.3C139.384 202.204 139.22 202.124 139.044 202.06C138.876 201.988 138.696 201.936 138.504 201.904C138.32 201.872 138.124 201.856 137.916 201.856C137.668 201.856 137.432 201.88 137.208 201.928C136.984 201.968 136.772 202.032 136.572 202.12C136.38 202.2 136.2 202.304 136.032 202.432C135.864 202.56 135.712 202.712 135.576 202.888C135.448 203.056 135.336 203.248 135.24 203.464C135.152 203.672 135.084 203.904 135.036 204.16C134.988 204.416 134.964 204.696 134.964 205C134.964 205.304 134.988 205.584 135.036 205.84C135.084 206.096 135.152 206.332 135.24 206.548C135.336 206.756 135.448 206.948 135.576 207.124C135.712 207.292 135.864 207.44 136.032 207.568C136.2 207.696 136.38 207.804 136.572 207.892C136.772 207.972 136.984 208.032 137.208 208.072C137.432 208.12 137.668 208.144 137.916 208.144C138.66 208.144 139.28 207.968 139.776 207.616C140.28 207.256 140.572 206.776 140.652 206.176ZM137.916 202.972C138.3 202.972 138.616 203.092 138.864 203.332C139.12 203.564 139.272 203.916 139.32 204.388H136.416C136.472 203.916 136.632 203.564 136.896 203.332C137.168 203.092 137.508 202.972 137.916 202.972ZM145.482 208.144C146.186 208.144 146.766 207.88 147.222 207.352C147.678 206.816 147.906 206.032 147.906 205C147.906 203.968 147.678 203.188 147.222 202.66C146.766 202.124 146.186 201.856 145.482 201.856C145.026 201.856 144.61 201.972 144.234 202.204C143.866 202.428 143.582 202.768 143.382 203.224V202H142.002V210.4H143.442V206.908C143.65 207.316 143.93 207.624 144.282 207.832C144.642 208.04 145.042 208.144 145.482 208.144ZM144.93 206.992C144.474 206.992 144.11 206.828 143.838 206.5C143.574 206.164 143.442 205.664 143.442 205C143.442 204.336 143.574 203.84 143.838 203.512C144.11 203.176 144.474 203.008 144.93 203.008C145.386 203.008 145.746 203.176 146.01 203.512C146.282 203.84 146.418 204.336 146.418 205C146.418 205.664 146.282 206.164 146.01 206.5C145.746 206.828 145.386 206.992 144.93 206.992ZM150.95 205.996V203.152H152.45V202H150.95V200.44H149.522V202H148.586V203.152H149.522V206.26C149.522 206.908 149.67 207.36 149.966 207.616C150.27 207.872 150.702 208 151.262 208H152.45V206.848H151.73C151.466 206.848 151.27 206.788 151.142 206.668C151.014 206.54 150.95 206.316 150.95 205.996ZM161.723 208H163.247L160.031 199.6H158.399L155.183 208H156.707L157.415 206.08H161.015L161.723 208ZM157.991 204.508C158.263 203.788 158.499 203.132 158.699 202.54C158.899 201.94 159.071 201.368 159.215 200.824C159.359 201.368 159.531 201.94 159.731 202.54C159.939 203.132 160.175 203.788 160.439 204.508L160.559 204.82H157.871L157.991 204.508ZM165.591 199.6H164.151V208H165.591V199.6ZM168.544 199.6H167.104V208H168.544V199.6Z" fill="white"/>
<path d="M211.614 208H213.09V205.336H215.178C215.45 205.336 215.71 205.32 215.958 205.288C216.206 205.248 216.438 205.188 216.654 205.108C216.878 205.028 217.078 204.932 217.254 204.82C217.438 204.7 217.602 204.564 217.746 204.412C217.89 204.26 218.01 204.088 218.106 203.896C218.21 203.696 218.286 203.48 218.334 203.248C218.39 203.008 218.418 202.748 218.418 202.468C218.418 202.188 218.39 201.932 218.334 201.7C218.286 201.46 218.21 201.244 218.106 201.052C218.01 200.852 217.89 200.676 217.746 200.524C217.602 200.372 217.438 200.24 217.254 200.128C217.078 200.008 216.878 199.908 216.654 199.828C216.438 199.748 216.206 199.692 215.958 199.66C215.71 199.62 215.45 199.6 215.178 199.6H211.614V208ZM215.01 200.848C215.602 200.848 216.062 200.968 216.39 201.208C216.726 201.448 216.894 201.868 216.894 202.468C216.894 203.068 216.726 203.488 216.39 203.728C216.062 203.968 215.602 204.088 215.01 204.088H213.09V200.848H215.01ZM222.711 203.26C222.815 203.26 222.907 203.268 222.987 203.284C223.075 203.292 223.151 203.304 223.215 203.32V202C223.151 201.984 223.079 201.972 222.999 201.964C222.927 201.948 222.843 201.94 222.747 201.94C222.331 201.94 221.967 202.06 221.655 202.3C221.343 202.532 221.115 202.896 220.971 203.392V202H219.651V208H221.091V204.928C221.091 204.36 221.239 203.94 221.535 203.668C221.839 203.396 222.231 203.26 222.711 203.26ZM225.684 199.6H224.244V200.944H225.684V199.6ZM225.684 202H224.244V208H225.684V202ZM228.877 208H230.221L232.513 202H231.025L230.281 204.088C230.121 204.544 229.981 204.956 229.861 205.324C229.741 205.684 229.637 206.056 229.549 206.44C229.453 206.056 229.345 205.684 229.225 205.324C229.113 204.956 228.977 204.544 228.817 204.088L228.073 202H226.585L228.877 208ZM238.691 208C238.651 207.912 238.615 207.832 238.583 207.76C238.551 207.68 238.523 207.612 238.499 207.556C238.483 207.492 238.463 207.432 238.439 207.376C238.423 207.32 238.407 207.268 238.391 207.22C238.383 207.172 238.375 207.124 238.367 207.076C238.359 207.02 238.351 206.968 238.343 206.92C238.343 206.864 238.339 206.808 238.331 206.752C238.331 206.688 238.331 206.624 238.331 206.56C238.331 206.488 238.331 206.408 238.331 206.32V203.764C238.331 203.14 238.099 202.668 237.635 202.348C237.179 202.02 236.555 201.856 235.763 201.856C234.963 201.856 234.331 202.012 233.867 202.324C233.411 202.636 233.183 203.104 233.183 203.728H234.635C234.643 203.48 234.747 203.292 234.947 203.164C235.147 203.036 235.419 202.972 235.763 202.972C236.123 202.972 236.399 203.036 236.591 203.164C236.791 203.284 236.891 203.476 236.891 203.74C236.891 203.82 236.879 203.896 236.855 203.968C236.831 204.032 236.791 204.088 236.735 204.136C236.687 204.184 236.631 204.228 236.567 204.268C236.503 204.308 236.427 204.344 236.339 204.376C236.259 204.4 236.171 204.424 236.075 204.448C235.979 204.464 235.875 204.48 235.763 204.496C235.659 204.512 235.551 204.528 235.439 204.544C235.327 204.56 235.211 204.576 235.091 204.592C234.979 204.608 234.867 204.628 234.755 204.652C234.643 204.676 234.531 204.7 234.419 204.724C234.307 204.748 234.195 204.78 234.083 204.82C233.979 204.86 233.879 204.904 233.783 204.952C233.687 205 233.595 205.056 233.507 205.12C233.427 205.184 233.355 205.256 233.291 205.336C233.227 205.416 233.167 205.508 233.111 205.612C233.063 205.716 233.027 205.832 233.003 205.96C232.979 206.08 232.967 206.216 232.967 206.368C232.967 206.944 233.151 207.38 233.519 207.676C233.895 207.972 234.355 208.12 234.899 208.12C235.347 208.12 235.743 208.024 236.087 207.832C236.439 207.632 236.707 207.356 236.891 207.004L237.239 208H238.691ZM234.443 206.2C234.443 206.112 234.455 206.032 234.479 205.96C234.503 205.88 234.539 205.812 234.587 205.756C234.635 205.692 234.687 205.636 234.743 205.588C234.807 205.54 234.879 205.496 234.959 205.456C235.039 205.416 235.123 205.38 235.211 205.348C235.299 205.316 235.391 205.284 235.487 205.252C235.583 205.22 235.679 205.192 235.775 205.168C235.871 205.136 235.967 205.108 236.063 205.084C236.167 205.052 236.267 205.02 236.363 204.988C236.459 204.948 236.551 204.908 236.639 204.868C236.727 204.828 236.811 204.784 236.891 204.736V205.492C236.891 205.988 236.743 206.368 236.447 206.632C236.159 206.896 235.831 207.028 235.463 207.028C235.143 207.028 234.891 206.964 234.707 206.836C234.531 206.7 234.443 206.488 234.443 206.2ZM240.995 205C240.995 204.336 241.131 203.84 241.403 203.512C241.675 203.176 242.027 203.008 242.459 203.008C242.851 203.008 243.155 203.128 243.371 203.368C243.595 203.608 243.723 203.936 243.755 204.352H245.243C245.195 203.568 244.927 202.956 244.439 202.516C243.951 202.076 243.291 201.856 242.459 201.856C242.211 201.856 241.975 201.88 241.751 201.928C241.527 201.968 241.315 202.032 241.115 202.12C240.923 202.2 240.743 202.304 240.575 202.432C240.407 202.56 240.255 202.712 240.119 202.888C239.991 203.056 239.879 203.248 239.783 203.464C239.695 203.68 239.627 203.916 239.579 204.172C239.531 204.428 239.507 204.704 239.507 205C239.507 205.296 239.531 205.572 239.579 205.828C239.627 206.084 239.695 206.32 239.783 206.536C239.879 206.752 239.991 206.948 240.119 207.124C240.255 207.292 240.407 207.44 240.575 207.568C240.743 207.696 240.923 207.804 241.115 207.892C241.315 207.972 241.527 208.032 241.751 208.072C241.975 208.12 242.211 208.144 242.459 208.144C243.291 208.144 243.951 207.924 244.439 207.484C244.927 207.044 245.195 206.432 245.243 205.648H243.755C243.723 206.064 243.595 206.392 243.371 206.632C243.155 206.872 242.851 206.992 242.459 206.992C242.027 206.992 241.675 206.828 241.403 206.5C241.131 206.164 240.995 205.664 240.995 205ZM249.383 204.088C249.223 204.544 249.083 204.956 248.963 205.324C248.843 205.684 248.739 206.056 248.651 206.44C248.555 206.056 248.447 205.684 248.327 205.324C248.215 204.956 248.079 204.544 247.919 204.088L247.175 202H245.687L247.943 207.892L247.715 208.504C247.603 208.816 247.479 209.016 247.343 209.104C247.207 209.2 247.015 209.248 246.767 209.248H246.191V210.4H246.971C247.099 210.4 247.219 210.396 247.331 210.388C247.443 210.38 247.547 210.364 247.643 210.34C247.747 210.324 247.843 210.296 247.931 210.256C248.019 210.224 248.099 210.18 248.171 210.124C248.251 210.068 248.327 209.996 248.399 209.908C248.471 209.828 248.539 209.732 248.603 209.62C248.675 209.516 248.743 209.392 248.807 209.248C248.879 209.112 248.947 208.956 249.011 208.78L251.615 202H250.127L249.383 204.088ZM254.82 201.916C254.82 202.092 254.832 202.256 254.856 202.408C254.888 202.552 254.928 202.688 254.976 202.816C255.024 202.944 255.084 203.06 255.156 203.164C255.228 203.268 255.304 203.364 255.384 203.452C255.472 203.54 255.568 203.62 255.672 203.692C255.776 203.756 255.884 203.816 255.996 203.872C256.108 203.928 256.224 203.98 256.344 204.028C256.472 204.068 256.6 204.108 256.728 204.148C256.856 204.18 256.984 204.212 257.112 204.244C257.248 204.276 257.38 204.304 257.508 204.328C257.644 204.352 257.776 204.376 257.904 204.4C258.032 204.424 258.156 204.452 258.276 204.484C258.404 204.508 258.524 204.536 258.636 204.568C258.748 204.592 258.856 204.624 258.96 204.664C259.064 204.696 259.156 204.736 259.236 204.784C259.324 204.832 259.404 204.884 259.476 204.94C259.548 204.996 259.608 205.06 259.656 205.132C259.704 205.196 259.74 205.272 259.764 205.36C259.796 205.448 259.812 205.544 259.812 205.648C259.812 206.032 259.652 206.34 259.332 206.572C259.02 206.804 258.604 206.92 258.084 206.92C257.476 206.92 256.992 206.784 256.632 206.512C256.28 206.232 256.084 205.868 256.044 205.42H254.544C254.56 206.228 254.892 206.884 255.54 207.388C256.188 207.892 257.036 208.144 258.084 208.144C258.316 208.144 258.536 208.128 258.744 208.096C258.96 208.072 259.164 208.032 259.356 207.976C259.556 207.92 259.74 207.852 259.908 207.772C260.076 207.692 260.232 207.596 260.376 207.484C260.52 207.372 260.648 207.252 260.76 207.124C260.88 206.988 260.98 206.84 261.06 206.68C261.14 206.52 261.2 206.348 261.24 206.164C261.28 205.972 261.3 205.772 261.3 205.564C261.3 205.388 261.284 205.228 261.252 205.084C261.228 204.932 261.192 204.792 261.144 204.664C261.096 204.536 261.036 204.42 260.964 204.316C260.892 204.212 260.812 204.12 260.724 204.04C260.636 203.952 260.54 203.872 260.436 203.8C260.34 203.728 260.232 203.664 260.112 203.608C260 203.552 259.884 203.504 259.764 203.464C259.644 203.416 259.516 203.376 259.38 203.344C259.252 203.304 259.12 203.272 258.984 203.248C258.856 203.216 258.728 203.188 258.6 203.164C258.472 203.132 258.34 203.104 258.204 203.08C258.076 203.056 257.952 203.032 257.832 203.008C257.712 202.984 257.592 202.956 257.472 202.924C257.36 202.892 257.252 202.86 257.148 202.828C257.052 202.788 256.96 202.748 256.872 202.708C256.784 202.66 256.704 202.608 256.632 202.552C256.56 202.496 256.5 202.436 256.452 202.372C256.404 202.3 256.364 202.22 256.332 202.132C256.308 202.044 256.296 201.948 256.296 201.844C256.296 201.5 256.436 201.22 256.716 201.004C257.004 200.788 257.38 200.68 257.844 200.68C258.38 200.68 258.8 200.804 259.104 201.052C259.416 201.292 259.592 201.616 259.632 202.024H261.132C261.116 201.272 260.816 200.656 260.232 200.176C259.648 199.696 258.852 199.456 257.844 199.456C257.588 199.456 257.344 199.476 257.112 199.516C256.88 199.548 256.664 199.6 256.464 199.672C256.264 199.744 256.076 199.832 255.9 199.936C255.732 200.04 255.58 200.16 255.444 200.296C255.316 200.432 255.204 200.584 255.108 200.752C255.012 200.912 254.94 201.092 254.892 201.292C254.844 201.484 254.82 201.692 254.82 201.916ZM268 206.176H266.524C266.468 206.424 266.336 206.628 266.128 206.788C265.928 206.948 265.64 207.028 265.264 207.028C264.832 207.028 264.476 206.892 264.196 206.62C263.916 206.348 263.764 205.94 263.74 205.396H268.096C268.104 205.332 268.108 205.268 268.108 205.204C268.108 205.14 268.108 205.072 268.108 205C268.108 204.736 268.088 204.492 268.048 204.268C268.016 204.036 267.964 203.824 267.892 203.632C267.82 203.432 267.732 203.252 267.628 203.092C267.532 202.924 267.42 202.776 267.292 202.648C267.172 202.512 267.036 202.396 266.884 202.3C266.732 202.204 266.568 202.124 266.392 202.06C266.224 201.988 266.044 201.936 265.852 201.904C265.668 201.872 265.472 201.856 265.264 201.856C265.016 201.856 264.78 201.88 264.556 201.928C264.332 201.968 264.12 202.032 263.92 202.12C263.728 202.2 263.548 202.304 263.38 202.432C263.212 202.56 263.06 202.712 262.924 202.888C262.796 203.056 262.684 203.248 262.588 203.464C262.5 203.672 262.432 203.904 262.384 204.16C262.336 204.416 262.312 204.696 262.312 205C262.312 205.304 262.336 205.584 262.384 205.84C262.432 206.096 262.5 206.332 262.588 206.548C262.684 206.756 262.796 206.948 262.924 207.124C263.06 207.292 263.212 207.44 263.38 207.568C263.548 207.696 263.728 207.804 263.92 207.892C264.12 207.972 264.332 208.032 264.556 208.072C264.78 208.12 265.016 208.144 265.264 208.144C266.008 208.144 266.628 207.968 267.124 207.616C267.628 207.256 267.92 206.776 268 206.176ZM265.264 202.972C265.648 202.972 265.964 203.092 266.212 203.332C266.468 203.564 266.62 203.916 266.668 204.388H263.764C263.82 203.916 263.98 203.564 264.244 203.332C264.516 203.092 264.856 202.972 265.264 202.972ZM271.126 205.996V203.152H272.626V202H271.126V200.44H269.698V202H268.762V203.152H269.698V206.26C269.698 206.908 269.846 207.36 270.142 207.616C270.446 207.872 270.878 208 271.438 208H272.626V206.848H271.906C271.642 206.848 271.446 206.788 271.318 206.668C271.19 206.54 271.126 206.316 271.126 205.996ZM275.474 205.996V203.152H276.974V202H275.474V200.44H274.046V202H273.11V203.152H274.046V206.26C274.046 206.908 274.194 207.36 274.49 207.616C274.794 207.872 275.226 208 275.786 208H276.974V206.848H276.254C275.99 206.848 275.794 206.788 275.666 206.668C275.538 206.54 275.474 206.316 275.474 205.996ZM279.473 199.6H278.033V200.944H279.473V199.6ZM279.473 202H278.033V208H279.473V202ZM282.366 202H280.986V208H282.426V204.556C282.426 204.052 282.542 203.676 282.774 203.428C283.014 203.172 283.33 203.044 283.722 203.044C284.09 203.044 284.378 203.152 284.586 203.368C284.794 203.584 284.898 203.92 284.898 204.376V208H286.338V204.172C286.338 203.38 286.15 202.796 285.774 202.42C285.406 202.044 284.926 201.856 284.334 201.856C283.886 201.856 283.49 201.96 283.146 202.168C282.802 202.376 282.542 202.68 282.366 203.08V202ZM289.979 207.616C290.419 207.616 290.815 207.52 291.167 207.328C291.527 207.128 291.811 206.84 292.019 206.464V207.928C292.019 208.384 291.891 208.744 291.635 209.008C291.387 209.28 291.011 209.416 290.507 209.416C290.003 209.416 289.627 209.28 289.379 209.008C289.139 208.744 289.019 208.408 289.019 208H287.579C287.579 208.776 287.847 209.392 288.383 209.848C288.919 210.312 289.627 210.544 290.507 210.544C291.395 210.544 292.107 210.316 292.643 209.86C293.187 209.404 293.459 208.76 293.459 207.928V202H292.067V203.104C291.859 202.696 291.571 202.388 291.203 202.18C290.843 201.964 290.435 201.856 289.979 201.856C289.275 201.856 288.691 202.104 288.227 202.6C287.771 203.096 287.543 203.808 287.543 204.736C287.543 205.664 287.771 206.376 288.227 206.872C288.691 207.368 289.275 207.616 289.979 207.616ZM290.531 206.512C290.075 206.512 289.711 206.364 289.439 206.068C289.167 205.772 289.031 205.328 289.031 204.736C289.031 204.144 289.167 203.7 289.439 203.404C289.711 203.108 290.075 202.96 290.531 202.96C290.987 202.96 291.347 203.108 291.611 203.404C291.883 203.7 292.019 204.144 292.019 204.736C292.019 205.328 291.883 205.772 291.611 206.068C291.347 206.364 290.987 206.512 290.531 206.512ZM294.811 203.668C294.811 203.812 294.823 203.944 294.847 204.064C294.871 204.184 294.903 204.296 294.943 204.4C294.991 204.496 295.043 204.584 295.099 204.664C295.163 204.744 295.231 204.816 295.303 204.88C295.383 204.944 295.467 205.004 295.555 205.06C295.643 205.108 295.735 205.156 295.831 205.204C295.927 205.244 296.023 205.28 296.119 205.312C296.223 205.344 296.327 205.376 296.431 205.408C296.535 205.432 296.639 205.456 296.743 205.48C296.847 205.496 296.947 205.516 297.043 205.54C297.147 205.556 297.247 205.576 297.343 205.6C297.439 205.616 297.531 205.64 297.619 205.672C297.707 205.696 297.787 205.724 297.859 205.756C297.939 205.78 298.007 205.812 298.063 205.852C298.127 205.884 298.179 205.924 298.219 205.972C298.267 206.02 298.303 206.076 298.327 206.14C298.351 206.196 298.363 206.26 298.363 206.332C298.363 206.556 298.263 206.732 298.063 206.86C297.863 206.988 297.603 207.052 297.283 207.052C296.899 207.052 296.595 206.972 296.371 206.812C296.155 206.652 296.035 206.44 296.011 206.176H294.631C294.639 206.768 294.883 207.244 295.363 207.604C295.843 207.964 296.483 208.144 297.283 208.144C298.003 208.144 298.587 207.984 299.035 207.664C299.491 207.344 299.719 206.876 299.719 206.26C299.719 206.116 299.707 205.984 299.683 205.864C299.659 205.744 299.623 205.636 299.575 205.54C299.535 205.444 299.483 205.356 299.419 205.276C299.363 205.188 299.295 205.112 299.215 205.048C299.143 204.984 299.063 204.928 298.975 204.88C298.895 204.824 298.807 204.776 298.711 204.736C298.615 204.688 298.515 204.648 298.411 204.616C298.315 204.584 298.215 204.556 298.111 204.532C298.007 204.5 297.899 204.476 297.787 204.46C297.683 204.436 297.579 204.416 297.475 204.4C297.379 204.376 297.283 204.352 297.187 204.328C297.091 204.304 296.999 204.28 296.911 204.256C296.831 204.232 296.751 204.208 296.671 204.184C296.599 204.152 296.531 204.12 296.467 204.088C296.411 204.048 296.359 204.004 296.311 203.956C296.271 203.908 296.239 203.856 296.215 203.8C296.191 203.736 296.179 203.668 296.179 203.596C296.179 203.396 296.267 203.24 296.443 203.128C296.619 203.008 296.847 202.948 297.127 202.948C297.463 202.948 297.727 203.02 297.919 203.164C298.111 203.3 298.215 203.488 298.231 203.728H299.611C299.603 203.176 299.383 202.728 298.951 202.384C298.527 202.032 297.919 201.856 297.127 201.856C296.431 201.856 295.871 202.016 295.447 202.336C295.023 202.648 294.811 203.092 294.811 203.668Z" fill="black" fill-opacity="0.4"/>
<rect x="194.625" y="189.375" width="122.25" height="29.25" rx="14.625" stroke="black" stroke-opacity="0.4" stroke-width="0.75"/>
</g>
<g filter="url(#filter1_d_501_117195)">
<rect x="364.5" y="133.5" width="165.75" height="237.329" rx="6" fill="white" shape-rendering="crispEdges"/>
<g clip-path="url(#clip2_501_117195)">
<path d="M426.598 171.118V169.323H417.308L426.598 157.808V156.055H415.411V157.849H423.973L414.734 169.426V171.118H426.598ZM431.97 171.507C432.53 171.507 433.033 171.453 433.477 171.343C434.304 171.152 434.998 170.783 435.559 170.236C435.894 169.921 436.196 169.516 436.466 169.021C436.736 168.525 436.895 168.076 436.943 167.672H435.128C434.991 168.158 434.759 168.585 434.431 168.954C433.856 169.59 433.087 169.908 432.124 169.908C431.091 169.908 430.329 169.571 429.837 168.898C429.345 168.224 429.082 167.331 429.047 166.216H437.097C437.097 165.109 437.042 164.302 436.933 163.796C436.81 163.058 436.563 162.412 436.194 161.858C435.812 161.277 435.254 160.804 434.523 160.438C433.792 160.073 433.036 159.89 432.257 159.89C430.712 159.89 429.461 160.44 428.504 161.541C427.547 162.641 427.068 164.073 427.068 165.837C427.068 167.628 427.543 169.021 428.494 170.015C429.444 171.01 430.603 171.507 431.97 171.507ZM435.2 164.75H429.099C429.133 163.807 429.437 163.029 430.011 162.417C430.585 161.805 431.296 161.5 432.144 161.5C433.327 161.5 434.171 161.944 434.677 162.833C434.95 163.311 435.125 163.95 435.2 164.75ZM440.458 171.118V165.365C440.458 164.647 440.505 164.095 440.597 163.709C440.689 163.323 440.889 162.949 441.197 162.586C441.58 162.135 442.024 161.834 442.53 161.684C442.81 161.595 443.169 161.551 443.606 161.551C444.468 161.551 445.062 161.893 445.391 162.576C445.589 162.986 445.688 163.526 445.688 164.196V171.118H447.564V164.073C447.564 162.966 447.414 162.115 447.113 161.52C446.566 160.433 445.514 159.89 443.955 159.89C443.244 159.89 442.598 160.03 442.017 160.31C441.436 160.59 440.886 161.052 440.366 161.694V160.136H438.613V171.118H440.458ZM452.126 171.292C452.393 171.292 452.64 171.278 452.869 171.251C453.098 171.224 453.319 171.179 453.531 171.118V169.662C453.394 169.675 453.274 169.684 453.172 169.687C453.069 169.691 452.974 169.692 452.885 169.692C452.55 169.692 452.311 169.655 452.167 169.58C451.907 169.45 451.777 169.193 451.777 168.811V161.643H453.531V160.136H451.777V157.07H449.911V160.136H448.424V161.643H449.911V168.913C449.911 169.617 450.065 170.19 450.373 170.631C450.68 171.072 451.265 171.292 452.126 171.292ZM458.81 171.518C460.622 171.518 461.958 170.94 462.819 169.785C463.681 168.629 464.111 167.167 464.111 165.396C464.111 163.564 463.623 162.176 462.645 161.233C461.667 160.29 460.471 159.818 459.056 159.818C457.477 159.818 456.219 160.365 455.283 161.458C454.346 162.552 453.878 164.022 453.878 165.868C453.878 167.59 454.322 168.963 455.211 169.985C456.1 171.007 457.299 171.518 458.81 171.518ZM458.984 169.928C457.87 169.928 457.057 169.539 456.544 168.759C456.031 167.98 455.775 167.006 455.775 165.837C455.775 164.62 456.031 163.581 456.544 162.72C457.057 161.858 457.877 161.428 459.005 161.428C460.276 161.428 461.172 161.934 461.691 162.945C462.02 163.588 462.184 164.422 462.184 165.447C462.184 166.582 461.956 167.613 461.502 168.539C461.047 169.465 460.208 169.928 458.984 169.928ZM469.442 171.538C470.959 171.538 472.089 171.183 472.831 170.472C473.573 169.761 473.943 168.917 473.943 167.939C473.943 166.927 473.584 166.186 472.867 165.714C472.416 165.413 471.527 165.102 470.201 164.781L468.98 164.483C468.447 164.354 468.044 164.203 467.771 164.032C467.299 163.745 467.063 163.362 467.063 162.884C467.063 162.446 467.242 162.094 467.601 161.828C467.96 161.561 468.488 161.428 469.186 161.428C470.231 161.428 470.966 161.67 471.39 162.156C471.65 162.498 471.797 162.877 471.831 163.294H473.574C473.588 162.583 473.366 161.92 472.908 161.305C472.176 160.334 470.983 159.849 469.329 159.849C468.064 159.849 467.058 160.17 466.309 160.812C465.561 161.455 465.187 162.296 465.187 163.335C465.187 164.217 465.583 164.907 466.376 165.406C466.82 165.693 467.511 165.953 468.447 166.186L469.914 166.555C470.7 166.753 471.226 166.927 471.493 167.078C471.91 167.324 472.118 167.683 472.118 168.154C472.118 168.776 471.858 169.236 471.339 169.533C470.819 169.831 470.218 169.979 469.534 169.979C468.386 169.979 467.579 169.682 467.114 169.087C466.861 168.759 466.708 168.288 466.653 167.672H464.879C464.927 168.766 465.291 169.684 465.971 170.426C466.651 171.167 467.808 171.538 469.442 171.538ZM479.489 171.518C481.301 171.518 482.637 170.94 483.499 169.785C484.36 168.629 484.791 167.167 484.791 165.396C484.791 163.564 484.302 162.176 483.324 161.233C482.347 160.29 481.15 159.818 479.735 159.818C478.156 159.818 476.898 160.365 475.962 161.458C475.025 162.552 474.557 164.022 474.557 165.868C474.557 167.59 475.001 168.963 475.89 169.985C476.779 171.007 477.979 171.518 479.489 171.518ZM479.664 169.928C478.549 169.928 477.736 169.539 477.223 168.759C476.71 167.98 476.454 167.006 476.454 165.837C476.454 164.62 476.71 163.581 477.223 162.72C477.736 161.858 478.556 161.428 479.684 161.428C480.956 161.428 481.851 161.934 482.371 162.945C482.699 163.588 482.863 164.422 482.863 165.447C482.863 166.582 482.635 167.613 482.181 168.539C481.726 169.465 480.887 169.928 479.664 169.928Z" fill="#323C46"/>
<mask id="mask3_501_117195" style="mask-type:alpha" maskUnits="userSpaceOnUse" x="376" y="145" width="31" height="15">
<path d="M376.5 145.5H406.467V159.709H376.5V145.5Z" fill="#323C46"/>
</mask>
<g mask="url(#mask3_501_117195)">
<path fill-rule="evenodd" clip-rule="evenodd" d="M406.467 155.272C406.467 154.539 406.111 153.806 405.4 153.384L392.598 145.798C391.929 145.401 391.102 145.401 390.432 145.796L377.57 153.386C376.857 153.807 376.501 154.54 376.5 155.273V159.709C376.501 158.976 376.857 158.243 377.57 157.822L390.432 150.232C391.102 149.837 391.929 149.838 392.598 150.234L405.4 157.82C406.111 158.242 406.467 158.975 406.467 159.708V155.272Z" fill="#323C46"/>
</g>
<path fill-rule="evenodd" clip-rule="evenodd" d="M406.5 163.55C406.5 162.815 406.144 162.08 405.432 161.656L392.616 154.049C391.946 153.651 391.118 153.65 390.447 154.047L377.572 161.658C376.858 162.08 376.501 162.816 376.5 163.551V168C376.501 167.265 376.858 166.529 377.572 166.107L390.447 158.496C391.118 158.099 391.946 158.1 392.616 158.498L405.432 166.106C406.144 166.529 406.5 167.264 406.5 167.999V163.55Z" fill="#323C46"/>
<path fill-rule="evenodd" clip-rule="evenodd" d="M406.5 159.724C406.499 160.457 406.143 161.19 405.43 161.611L392.581 169.203C391.911 169.599 391.083 169.599 390.412 169.203L377.57 161.615C376.856 161.193 376.499 160.458 376.5 159.724V155.286C376.499 156.021 376.856 156.755 377.57 157.177L390.412 164.765C391.083 165.161 391.911 165.161 392.581 164.765L405.43 157.173C406.154 156.745 406.511 155.995 406.5 155.25L406.5 159.724Z" fill="#F8DABE"/>
<mask id="mask4_501_117195" style="mask-type:alpha" maskUnits="userSpaceOnUse" x="376" y="159" width="31" height="15">
<path d="M376.518 159.023H406.484V173.161H376.518V159.023Z" fill="#FA8C28"/>
</mask>
<g mask="url(#mask4_501_117195)">
<path fill-rule="evenodd" clip-rule="evenodd" d="M406.484 163.462C406.484 164.189 406.127 164.916 405.416 165.334L392.581 172.866C391.911 173.259 391.084 173.259 390.415 172.866L377.586 165.338C376.873 164.919 376.517 164.191 376.518 163.462V159.06C376.517 159.788 376.873 160.517 377.586 160.935L390.415 168.464C391.084 168.857 391.911 168.857 392.581 168.464L405.416 160.931C406.139 160.507 406.496 159.762 406.484 159.023L406.484 163.462Z" fill="#FA8C28"/>
</g>
<mask id="mask5_501_117195" style="mask-type:alpha" maskUnits="userSpaceOnUse" x="376" y="163" width="31" height="15">
<path d="M376.5 163.5H406.467V177.746H376.5V163.5Z" fill="#D74119"/>
</mask>
<g mask="url(#mask5_501_117195)">
<path fill-rule="evenodd" clip-rule="evenodd" d="M406.467 167.973C406.466 168.705 406.11 169.438 405.398 169.859L392.563 177.449C391.894 177.845 391.066 177.845 390.397 177.449L377.569 169.863C376.856 169.441 376.499 168.707 376.5 167.973V163.536C376.499 164.27 376.856 165.005 377.569 165.426L390.397 173.012C391.066 173.408 391.894 173.408 392.563 173.012L405.398 165.422C406.122 164.994 406.478 164.245 406.466 163.5L406.467 167.973Z" fill="#D74119"/>
</g>
<path d="M497.42 155.119H492.511V171.756H490.166V155.119H485.27V153.094H497.42V155.119Z" fill="#323C46"/>
<path d="M505.509 168.154L509.777 153.094H512.354L506.547 171.756H504.497L498.703 153.094H501.267L505.509 168.154Z" fill="#323C46"/>
</g>
<path d="M381.432 195.296C381.264 195.584 381.1 195.876 380.94 196.172C380.78 196.468 380.636 196.752 380.508 197.024C380.372 196.752 380.224 196.468 380.064 196.172C379.904 195.876 379.74 195.584 379.572 195.296L378.228 193.1H376.596L379.764 198.236V201.5H381.24V198.236L384.408 193.1H382.776L381.432 195.296ZM386.787 201.644C387.035 201.644 387.271 201.62 387.495 201.572C387.719 201.532 387.927 201.472 388.119 201.392C388.319 201.304 388.503 201.196 388.671 201.068C388.839 200.94 388.987 200.792 389.115 200.624C389.251 200.448 389.363 200.252 389.451 200.036C389.547 199.82 389.619 199.584 389.667 199.328C389.715 199.072 389.739 198.796 389.739 198.5C389.739 198.204 389.715 197.928 389.667 197.672C389.619 197.416 389.547 197.18 389.451 196.964C389.363 196.748 389.251 196.556 389.115 196.388C388.987 196.212 388.839 196.06 388.671 195.932C388.503 195.804 388.319 195.7 388.119 195.62C387.927 195.532 387.719 195.468 387.495 195.428C387.271 195.38 387.035 195.356 386.787 195.356C386.539 195.356 386.303 195.38 386.079 195.428C385.855 195.468 385.643 195.532 385.443 195.62C385.251 195.7 385.071 195.804 384.903 195.932C384.735 196.06 384.583 196.212 384.447 196.388C384.319 196.556 384.207 196.748 384.111 196.964C384.023 197.18 383.955 197.416 383.907 197.672C383.859 197.928 383.835 198.204 383.835 198.5C383.835 198.796 383.859 199.072 383.907 199.328C383.955 199.584 384.023 199.82 384.111 200.036C384.207 200.252 384.319 200.448 384.447 200.624C384.583 200.792 384.735 200.94 384.903 201.068C385.071 201.196 385.251 201.304 385.443 201.392C385.643 201.472 385.855 201.532 386.079 201.572C386.303 201.62 386.539 201.644 386.787 201.644ZM386.787 200.492C386.347 200.492 385.991 200.328 385.719 200C385.455 199.664 385.323 199.164 385.323 198.5C385.323 197.836 385.455 197.34 385.719 197.012C385.991 196.676 386.347 196.508 386.787 196.508C387.227 196.508 387.579 196.676 387.843 197.012C388.115 197.34 388.251 197.836 388.251 198.5C388.251 199.164 388.115 199.664 387.843 200C387.579 200.328 387.227 200.492 386.787 200.492ZM390.919 199.376C390.919 200.144 391.099 200.716 391.459 201.092C391.827 201.46 392.299 201.644 392.875 201.644C393.307 201.644 393.687 201.548 394.015 201.356C394.343 201.156 394.595 200.868 394.771 200.492V201.5H396.163V195.5H394.723V198.992C394.723 199.472 394.607 199.836 394.375 200.084C394.151 200.332 393.855 200.456 393.487 200.456C393.127 200.456 392.847 200.352 392.647 200.144C392.455 199.928 392.359 199.604 392.359 199.172V195.5H390.919V199.376ZM400.718 196.76C400.822 196.76 400.914 196.768 400.994 196.784C401.082 196.792 401.158 196.804 401.222 196.82V195.5C401.158 195.484 401.086 195.472 401.006 195.464C400.934 195.448 400.85 195.44 400.754 195.44C400.338 195.44 399.974 195.56 399.662 195.8C399.35 196.032 399.122 196.396 398.978 196.892V195.5H397.658V201.5H399.098V198.428C399.098 197.86 399.246 197.44 399.542 197.168C399.846 196.896 400.238 196.76 400.718 196.76ZM407.994 201.644C408.698 201.644 409.278 201.38 409.734 200.852C410.19 200.316 410.418 199.532 410.418 198.5C410.418 197.468 410.19 196.688 409.734 196.16C409.278 195.624 408.698 195.356 407.994 195.356C407.538 195.356 407.122 195.472 406.746 195.704C406.378 195.928 406.094 196.268 405.894 196.724V195.5H404.514V203.9H405.954V200.408C406.162 200.816 406.442 201.124 406.794 201.332C407.154 201.54 407.554 201.644 407.994 201.644ZM407.442 200.492C406.986 200.492 406.622 200.328 406.35 200C406.086 199.664 405.954 199.164 405.954 198.5C405.954 197.836 406.086 197.34 406.35 197.012C406.622 196.676 406.986 196.508 407.442 196.508C407.898 196.508 408.258 196.676 408.522 197.012C408.794 197.34 408.93 197.836 408.93 198.5C408.93 199.164 408.794 199.664 408.522 200C408.258 200.328 407.898 200.492 407.442 200.492ZM414.746 196.76C414.85 196.76 414.942 196.768 415.022 196.784C415.11 196.792 415.186 196.804 415.25 196.82V195.5C415.186 195.484 415.114 195.472 415.034 195.464C414.962 195.448 414.878 195.44 414.782 195.44C414.366 195.44 414.002 195.56 413.69 195.8C413.378 196.032 413.15 196.396 413.006 196.892V195.5H411.686V201.5H413.126V198.428C413.126 197.86 413.274 197.44 413.57 197.168C413.874 196.896 414.266 196.76 414.746 196.76ZM417.719 193.1H416.279V194.444H417.719V193.1ZM417.719 195.5H416.279V201.5H417.719V195.5ZM420.913 201.5H422.257L424.549 195.5H423.061L422.317 197.588C422.157 198.044 422.017 198.456 421.897 198.824C421.777 199.184 421.673 199.556 421.585 199.94C421.489 199.556 421.381 199.184 421.261 198.824C421.149 198.456 421.013 198.044 420.853 197.588L420.109 195.5H418.621L420.913 201.5ZM430.726 201.5C430.686 201.412 430.65 201.332 430.618 201.26C430.586 201.18 430.558 201.112 430.534 201.056C430.518 200.992 430.498 200.932 430.474 200.876C430.458 200.82 430.442 200.768 430.426 200.72C430.418 200.672 430.41 200.624 430.402 200.576C430.394 200.52 430.386 200.468 430.378 200.42C430.378 200.364 430.374 200.308 430.366 200.252C430.366 200.188 430.366 200.124 430.366 200.06C430.366 199.988 430.366 199.908 430.366 199.82V197.264C430.366 196.64 430.134 196.168 429.67 195.848C429.214 195.52 428.59 195.356 427.798 195.356C426.998 195.356 426.366 195.512 425.902 195.824C425.446 196.136 425.218 196.604 425.218 197.228H426.67C426.678 196.98 426.782 196.792 426.982 196.664C427.182 196.536 427.454 196.472 427.798 196.472C428.158 196.472 428.434 196.536 428.626 196.664C428.826 196.784 428.926 196.976 428.926 197.24C428.926 197.32 428.914 197.396 428.89 197.468C428.866 197.532 428.826 197.588 428.77 197.636C428.722 197.684 428.666 197.728 428.602 197.768C428.538 197.808 428.462 197.844 428.374 197.876C428.294 197.9 428.206 197.924 428.11 197.948C428.014 197.964 427.91 197.98 427.798 197.996C427.694 198.012 427.586 198.028 427.474 198.044C427.362 198.06 427.246 198.076 427.126 198.092C427.014 198.108 426.902 198.128 426.79 198.152C426.678 198.176 426.566 198.2 426.454 198.224C426.342 198.248 426.23 198.28 426.118 198.32C426.014 198.36 425.914 198.404 425.818 198.452C425.722 198.5 425.63 198.556 425.542 198.62C425.462 198.684 425.39 198.756 425.326 198.836C425.262 198.916 425.202 199.008 425.146 199.112C425.098 199.216 425.062 199.332 425.038 199.46C425.014 199.58 425.002 199.716 425.002 199.868C425.002 200.444 425.186 200.88 425.554 201.176C425.93 201.472 426.39 201.62 426.934 201.62C427.382 201.62 427.778 201.524 428.122 201.332C428.474 201.132 428.742 200.856 428.926 200.504L429.274 201.5H430.726ZM426.478 199.7C426.478 199.612 426.49 199.532 426.514 199.46C426.538 199.38 426.574 199.312 426.622 199.256C426.67 199.192 426.722 199.136 426.778 199.088C426.842 199.04 426.914 198.996 426.994 198.956C427.074 198.916 427.158 198.88 427.246 198.848C427.334 198.816 427.426 198.784 427.522 198.752C427.618 198.72 427.714 198.692 427.81 198.668C427.906 198.636 428.002 198.608 428.098 198.584C428.202 198.552 428.302 198.52 428.398 198.488C428.494 198.448 428.586 198.408 428.674 198.368C428.762 198.328 428.846 198.284 428.926 198.236V198.992C428.926 199.488 428.778 199.868 428.482 200.132C428.194 200.396 427.866 200.528 427.498 200.528C427.178 200.528 426.926 200.464 426.742 200.336C426.566 200.2 426.478 199.988 426.478 199.7ZM433.03 198.5C433.03 197.836 433.166 197.34 433.438 197.012C433.71 196.676 434.062 196.508 434.494 196.508C434.886 196.508 435.19 196.628 435.406 196.868C435.63 197.108 435.758 197.436 435.79 197.852H437.278C437.23 197.068 436.962 196.456 436.474 196.016C435.986 195.576 435.326 195.356 434.494 195.356C434.246 195.356 434.01 195.38 433.786 195.428C433.562 195.468 433.35 195.532 433.15 195.62C432.958 195.7 432.778 195.804 432.61 195.932C432.442 196.06 432.29 196.212 432.154 196.388C432.026 196.556 431.914 196.748 431.818 196.964C431.73 197.18 431.662 197.416 431.614 197.672C431.566 197.928 431.542 198.204 431.542 198.5C431.542 198.796 431.566 199.072 431.614 199.328C431.662 199.584 431.73 199.82 431.818 200.036C431.914 200.252 432.026 200.448 432.154 200.624C432.29 200.792 432.442 200.94 432.61 201.068C432.778 201.196 432.958 201.304 433.15 201.392C433.35 201.472 433.562 201.532 433.786 201.572C434.01 201.62 434.246 201.644 434.494 201.644C435.326 201.644 435.986 201.424 436.474 200.984C436.962 200.544 437.23 199.932 437.278 199.148H435.79C435.758 199.564 435.63 199.892 435.406 200.132C435.19 200.372 434.886 200.492 434.494 200.492C434.062 200.492 433.71 200.328 433.438 200C433.166 199.664 433.03 199.164 433.03 198.5ZM441.418 197.588C441.258 198.044 441.118 198.456 440.998 198.824C440.878 199.184 440.774 199.556 440.686 199.94C440.59 199.556 440.482 199.184 440.362 198.824C440.25 198.456 440.114 198.044 439.954 197.588L439.21 195.5H437.722L439.978 201.392L439.75 202.004C439.638 202.316 439.514 202.516 439.378 202.604C439.242 202.7 439.05 202.748 438.802 202.748H438.226V203.9H439.006C439.134 203.9 439.254 203.896 439.366 203.888C439.478 203.88 439.582 203.864 439.678 203.84C439.782 203.824 439.878 203.796 439.966 203.756C440.054 203.724 440.134 203.68 440.206 203.624C440.286 203.568 440.362 203.496 440.434 203.408C440.506 203.328 440.574 203.232 440.638 203.12C440.71 203.016 440.778 202.892 440.842 202.748C440.914 202.612 440.982 202.456 441.046 202.28L443.65 195.5H442.162L441.418 197.588ZM448.187 195.5H446.807V201.5H448.247V197.96C448.247 197.496 448.351 197.144 448.559 196.904C448.767 196.664 449.043 196.544 449.387 196.544C449.707 196.544 449.955 196.644 450.131 196.844C450.315 197.044 450.407 197.356 450.407 197.78V201.5H451.847V197.96C451.847 197.496 451.947 197.144 452.147 196.904C452.355 196.664 452.631 196.544 452.975 196.544C453.303 196.544 453.555 196.644 453.731 196.844C453.907 197.044 453.995 197.356 453.995 197.78V201.5H455.435V197.576C455.435 196.816 455.259 196.256 454.907 195.896C454.563 195.536 454.115 195.356 453.563 195.356C453.139 195.356 452.763 195.456 452.435 195.656C452.115 195.856 451.867 196.148 451.691 196.532C451.563 196.132 451.351 195.836 451.055 195.644C450.759 195.452 450.407 195.356 449.999 195.356C449.591 195.356 449.227 195.452 448.907 195.644C448.595 195.836 448.355 196.116 448.187 196.484V195.5ZM462.285 201.5C462.245 201.412 462.209 201.332 462.177 201.26C462.145 201.18 462.117 201.112 462.093 201.056C462.077 200.992 462.057 200.932 462.033 200.876C462.017 200.82 462.001 200.768 461.985 200.72C461.977 200.672 461.969 200.624 461.961 200.576C461.953 200.52 461.945 200.468 461.937 200.42C461.937 200.364 461.933 200.308 461.925 200.252C461.925 200.188 461.925 200.124 461.925 200.06C461.925 199.988 461.925 199.908 461.925 199.82V197.264C461.925 196.64 461.693 196.168 461.229 195.848C460.773 195.52 460.149 195.356 459.357 195.356C458.557 195.356 457.925 195.512 457.461 195.824C457.005 196.136 456.777 196.604 456.777 197.228H458.229C458.237 196.98 458.341 196.792 458.541 196.664C458.741 196.536 459.013 196.472 459.357 196.472C459.717 196.472 459.993 196.536 460.185 196.664C460.385 196.784 460.485 196.976 460.485 197.24C460.485 197.32 460.473 197.396 460.449 197.468C460.425 197.532 460.385 197.588 460.329 197.636C460.281 197.684 460.225 197.728 460.161 197.768C460.097 197.808 460.021 197.844 459.933 197.876C459.853 197.9 459.765 197.924 459.669 197.948C459.573 197.964 459.469 197.98 459.357 197.996C459.253 198.012 459.145 198.028 459.033 198.044C458.921 198.06 458.805 198.076 458.685 198.092C458.573 198.108 458.461 198.128 458.349 198.152C458.237 198.176 458.125 198.2 458.013 198.224C457.901 198.248 457.789 198.28 457.677 198.32C457.573 198.36 457.473 198.404 457.377 198.452C457.281 198.5 457.189 198.556 457.101 198.62C457.021 198.684 456.949 198.756 456.885 198.836C456.821 198.916 456.761 199.008 456.705 199.112C456.657 199.216 456.621 199.332 456.597 199.46C456.573 199.58 456.561 199.716 456.561 199.868C456.561 200.444 456.745 200.88 457.113 201.176C457.489 201.472 457.949 201.62 458.493 201.62C458.941 201.62 459.337 201.524 459.681 201.332C460.033 201.132 460.301 200.856 460.485 200.504L460.833 201.5H462.285ZM458.037 199.7C458.037 199.612 458.049 199.532 458.073 199.46C458.097 199.38 458.133 199.312 458.181 199.256C458.229 199.192 458.281 199.136 458.337 199.088C458.401 199.04 458.473 198.996 458.553 198.956C458.633 198.916 458.717 198.88 458.805 198.848C458.893 198.816 458.985 198.784 459.081 198.752C459.177 198.72 459.273 198.692 459.369 198.668C459.465 198.636 459.561 198.608 459.657 198.584C459.761 198.552 459.861 198.52 459.957 198.488C460.053 198.448 460.145 198.408 460.233 198.368C460.321 198.328 460.405 198.284 460.485 198.236V198.992C460.485 199.488 460.337 199.868 460.041 200.132C459.753 200.396 459.425 200.528 459.057 200.528C458.737 200.528 458.485 200.464 458.301 200.336C458.125 200.2 458.037 199.988 458.037 199.7ZM465.153 199.496V196.652H466.653V195.5H465.153V193.94H463.725V195.5H462.789V196.652H463.725V199.76C463.725 200.408 463.873 200.86 464.169 201.116C464.473 201.372 464.905 201.5 465.465 201.5H466.653V200.348H465.933C465.669 200.348 465.473 200.288 465.345 200.168C465.217 200.04 465.153 199.816 465.153 199.496ZM469.501 199.496V196.652H471.001V195.5H469.501V193.94H468.073V195.5H467.137V196.652H468.073V199.76C468.073 200.408 468.221 200.86 468.517 201.116C468.821 201.372 469.253 201.5 469.813 201.5H471.001V200.348H470.281C470.017 200.348 469.821 200.288 469.693 200.168C469.565 200.04 469.501 199.816 469.501 199.496ZM477.473 199.676H475.997C475.941 199.924 475.809 200.128 475.601 200.288C475.401 200.448 475.113 200.528 474.737 200.528C474.305 200.528 473.949 200.392 473.669 200.12C473.389 199.848 473.237 199.44 473.213 198.896H477.569C477.577 198.832 477.581 198.768 477.581 198.704C477.581 198.64 477.581 198.572 477.581 198.5C477.581 198.236 477.561 197.992 477.521 197.768C477.489 197.536 477.437 197.324 477.365 197.132C477.293 196.932 477.205 196.752 477.101 196.592C477.005 196.424 476.893 196.276 476.765 196.148C476.645 196.012 476.509 195.896 476.357 195.8C476.205 195.704 476.041 195.624 475.865 195.56C475.697 195.488 475.517 195.436 475.325 195.404C475.141 195.372 474.945 195.356 474.737 195.356C474.489 195.356 474.253 195.38 474.029 195.428C473.805 195.468 473.593 195.532 473.393 195.62C473.201 195.7 473.021 195.804 472.853 195.932C472.685 196.06 472.533 196.212 472.397 196.388C472.269 196.556 472.157 196.748 472.061 196.964C471.973 197.172 471.905 197.404 471.857 197.66C471.809 197.916 471.785 198.196 471.785 198.5C471.785 198.804 471.809 199.084 471.857 199.34C471.905 199.596 471.973 199.832 472.061 200.048C472.157 200.256 472.269 200.448 472.397 200.624C472.533 200.792 472.685 200.94 472.853 201.068C473.021 201.196 473.201 201.304 473.393 201.392C473.593 201.472 473.805 201.532 474.029 201.572C474.253 201.62 474.489 201.644 474.737 201.644C475.481 201.644 476.101 201.468 476.597 201.116C477.101 200.756 477.393 200.276 477.473 199.676ZM474.737 196.472C475.121 196.472 475.437 196.592 475.685 196.832C475.941 197.064 476.093 197.416 476.141 197.888H473.237C473.293 197.416 473.453 197.064 473.717 196.832C473.989 196.592 474.329 196.472 474.737 196.472ZM481.882 196.76C481.986 196.76 482.078 196.768 482.158 196.784C482.246 196.792 482.322 196.804 482.386 196.82V195.5C482.322 195.484 482.25 195.472 482.17 195.464C482.098 195.448 482.014 195.44 481.918 195.44C481.502 195.44 481.138 195.56 480.826 195.8C480.514 196.032 480.286 196.396 480.142 196.892V195.5H478.822V201.5H480.262V198.428C480.262 197.86 480.41 197.44 480.706 197.168C481.01 196.896 481.402 196.76 481.882 196.76ZM483.166 197.168C483.166 197.312 483.178 197.444 483.202 197.564C483.226 197.684 483.258 197.796 483.298 197.9C483.346 197.996 483.398 198.084 483.454 198.164C483.518 198.244 483.586 198.316 483.658 198.38C483.738 198.444 483.822 198.504 483.91 198.56C483.998 198.608 484.09 198.656 484.186 198.704C484.282 198.744 484.378 198.78 484.474 198.812C484.578 198.844 484.682 198.876 484.786 198.908C484.89 198.932 484.994 198.956 485.098 198.98C485.202 198.996 485.302 199.016 485.398 199.04C485.502 199.056 485.602 199.076 485.698 199.1C485.794 199.116 485.886 199.14 485.974 199.172C486.062 199.196 486.142 199.224 486.214 199.256C486.294 199.28 486.362 199.312 486.418 199.352C486.482 199.384 486.534 199.424 486.574 199.472C486.622 199.52 486.658 199.576 486.682 199.64C486.706 199.696 486.718 199.76 486.718 199.832C486.718 200.056 486.618 200.232 486.418 200.36C486.218 200.488 485.958 200.552 485.638 200.552C485.254 200.552 484.95 200.472 484.726 200.312C484.51 200.152 484.39 199.94 484.366 199.676H482.986C482.994 200.268 483.238 200.744 483.718 201.104C484.198 201.464 484.838 201.644 485.638 201.644C486.358 201.644 486.942 201.484 487.39 201.164C487.846 200.844 488.074 200.376 488.074 199.76C488.074 199.616 488.062 199.484 488.038 199.364C488.014 199.244 487.978 199.136 487.93 199.04C487.89 198.944 487.838 198.856 487.774 198.776C487.718 198.688 487.65 198.612 487.57 198.548C487.498 198.484 487.418 198.428 487.33 198.38C487.25 198.324 487.162 198.276 487.066 198.236C486.97 198.188 486.87 198.148 486.766 198.116C486.67 198.084 486.57 198.056 486.466 198.032C486.362 198 486.254 197.976 486.142 197.96C486.038 197.936 485.934 197.916 485.83 197.9C485.734 197.876 485.638 197.852 485.542 197.828C485.446 197.804 485.354 197.78 485.266 197.756C485.186 197.732 485.106 197.708 485.026 197.684C484.954 197.652 484.886 197.62 484.822 197.588C484.766 197.548 484.714 197.504 484.666 197.456C484.626 197.408 484.594 197.356 484.57 197.3C484.546 197.236 484.534 197.168 484.534 197.096C484.534 196.896 484.622 196.74 484.798 196.628C484.974 196.508 485.202 196.448 485.482 196.448C485.818 196.448 486.082 196.52 486.274 196.664C486.466 196.8 486.57 196.988 486.586 197.228H487.966C487.958 196.676 487.738 196.228 487.306 195.884C486.882 195.532 486.274 195.356 485.482 195.356C484.786 195.356 484.226 195.516 483.802 195.836C483.378 196.148 483.166 196.592 483.166 197.168Z" fill="#1E2D25"/>
<path d="M376.5 217.5H503.25" stroke="#D5D5D5" stroke-width="4.5" stroke-linecap="round" stroke-linejoin="round"/>
<path d="M376.5 229.5H513" stroke="#D5D5D5" stroke-width="4.5" stroke-linecap="round" stroke-linejoin="round"/>
<path d="M376.5 241.5H513" stroke="#D5D5D5" stroke-width="4.5" stroke-linecap="round" stroke-linejoin="round"/>
<path d="M376.5 253.5H513" stroke="#D5D5D5" stroke-width="4.5" stroke-linecap="round" stroke-linejoin="round"/>
<path d="M376.5 266.336L503.431 265.504" stroke="#D5D5D5" stroke-width="4.5" stroke-linecap="round" stroke-linejoin="round"/>
<path d="M376.5 280.828L510.655 278.331" stroke="#D5D5D5" stroke-width="4.5" stroke-linecap="round" stroke-linejoin="round"/>
<rect x="376.5" y="292.828" width="135.75" height="30" rx="15" fill="#1679B7"/>
<path d="M422.559 311.828H424.083L420.867 303.428H419.235L416.019 311.828H417.543L418.251 309.908H421.851L422.559 311.828ZM418.827 308.336C419.099 307.616 419.335 306.96 419.535 306.368C419.735 305.768 419.907 305.196 420.051 304.652C420.195 305.196 420.367 305.768 420.567 306.368C420.775 306.96 421.011 307.616 421.275 308.336L421.395 308.648H418.707L418.827 308.336ZM426.163 308.828C426.163 308.164 426.299 307.668 426.571 307.34C426.843 307.004 427.195 306.836 427.627 306.836C428.019 306.836 428.323 306.956 428.539 307.196C428.763 307.436 428.891 307.764 428.923 308.18H430.411C430.363 307.396 430.095 306.784 429.607 306.344C429.119 305.904 428.459 305.684 427.627 305.684C427.379 305.684 427.143 305.708 426.919 305.756C426.695 305.796 426.483 305.86 426.283 305.948C426.091 306.028 425.911 306.132 425.743 306.26C425.575 306.388 425.423 306.54 425.287 306.716C425.159 306.884 425.047 307.076 424.951 307.292C424.863 307.508 424.795 307.744 424.747 308C424.699 308.256 424.675 308.532 424.675 308.828C424.675 309.124 424.699 309.4 424.747 309.656C424.795 309.912 424.863 310.148 424.951 310.364C425.047 310.58 425.159 310.776 425.287 310.952C425.423 311.12 425.575 311.268 425.743 311.396C425.911 311.524 426.091 311.632 426.283 311.72C426.483 311.8 426.695 311.86 426.919 311.9C427.143 311.948 427.379 311.972 427.627 311.972C428.459 311.972 429.119 311.752 429.607 311.312C430.095 310.872 430.363 310.26 430.411 309.476H428.923C428.891 309.892 428.763 310.22 428.539 310.46C428.323 310.7 428.019 310.82 427.627 310.82C427.195 310.82 426.843 310.656 426.571 310.328C426.299 309.992 426.163 309.492 426.163 308.828ZM432.808 308.828C432.808 308.164 432.944 307.668 433.216 307.34C433.488 307.004 433.84 306.836 434.272 306.836C434.664 306.836 434.968 306.956 435.184 307.196C435.408 307.436 435.536 307.764 435.568 308.18H437.056C437.008 307.396 436.74 306.784 436.252 306.344C435.764 305.904 435.104 305.684 434.272 305.684C434.024 305.684 433.788 305.708 433.564 305.756C433.34 305.796 433.128 305.86 432.928 305.948C432.736 306.028 432.556 306.132 432.388 306.26C432.22 306.388 432.068 306.54 431.932 306.716C431.804 306.884 431.692 307.076 431.596 307.292C431.508 307.508 431.44 307.744 431.392 308C431.344 308.256 431.32 308.532 431.32 308.828C431.32 309.124 431.344 309.4 431.392 309.656C431.44 309.912 431.508 310.148 431.596 310.364C431.692 310.58 431.804 310.776 431.932 310.952C432.068 311.12 432.22 311.268 432.388 311.396C432.556 311.524 432.736 311.632 432.928 311.72C433.128 311.8 433.34 311.86 433.564 311.9C433.788 311.948 434.024 311.972 434.272 311.972C435.104 311.972 435.764 311.752 436.252 311.312C436.74 310.872 437.008 310.26 437.056 309.476H435.568C435.536 309.892 435.408 310.22 435.184 310.46C434.968 310.7 434.664 310.82 434.272 310.82C433.84 310.82 433.488 310.656 433.216 310.328C432.944 309.992 432.808 309.492 432.808 308.828ZM443.652 310.004H442.176C442.12 310.252 441.988 310.456 441.78 310.616C441.58 310.776 441.292 310.856 440.916 310.856C440.484 310.856 440.128 310.72 439.848 310.448C439.568 310.176 439.416 309.768 439.392 309.224H443.748C443.756 309.16 443.76 309.096 443.76 309.032C443.76 308.968 443.76 308.9 443.76 308.828C443.76 308.564 443.74 308.32 443.7 308.096C443.668 307.864 443.616 307.652 443.544 307.46C443.472 307.26 443.384 307.08 443.28 306.92C443.184 306.752 443.072 306.604 442.944 306.476C442.824 306.34 442.688 306.224 442.536 306.128C442.384 306.032 442.22 305.952 442.044 305.888C441.876 305.816 441.696 305.764 441.504 305.732C441.32 305.7 441.124 305.684 440.916 305.684C440.668 305.684 440.432 305.708 440.208 305.756C439.984 305.796 439.772 305.86 439.572 305.948C439.38 306.028 439.2 306.132 439.032 306.26C438.864 306.388 438.712 306.54 438.576 306.716C438.448 306.884 438.336 307.076 438.24 307.292C438.152 307.5 438.084 307.732 438.036 307.988C437.988 308.244 437.964 308.524 437.964 308.828C437.964 309.132 437.988 309.412 438.036 309.668C438.084 309.924 438.152 310.16 438.24 310.376C438.336 310.584 438.448 310.776 438.576 310.952C438.712 311.12 438.864 311.268 439.032 311.396C439.2 311.524 439.38 311.632 439.572 311.72C439.772 311.8 439.984 311.86 440.208 311.9C440.432 311.948 440.668 311.972 440.916 311.972C441.66 311.972 442.28 311.796 442.776 311.444C443.28 311.084 443.572 310.604 443.652 310.004ZM440.916 306.8C441.3 306.8 441.616 306.92 441.864 307.16C442.12 307.392 442.272 307.744 442.32 308.216H439.416C439.472 307.744 439.632 307.392 439.896 307.16C440.168 306.92 440.508 306.8 440.916 306.8ZM448.482 311.972C449.186 311.972 449.766 311.708 450.222 311.18C450.678 310.644 450.906 309.86 450.906 308.828C450.906 307.796 450.678 307.016 450.222 306.488C449.766 305.952 449.186 305.684 448.482 305.684C448.026 305.684 447.61 305.8 447.234 306.032C446.866 306.256 446.582 306.596 446.382 307.052V305.828H445.002V314.228H446.442V310.736C446.65 311.144 446.93 311.452 447.282 311.66C447.642 311.868 448.042 311.972 448.482 311.972ZM447.93 310.82C447.474 310.82 447.11 310.656 446.838 310.328C446.574 309.992 446.442 309.492 446.442 308.828C446.442 308.164 446.574 307.668 446.838 307.34C447.11 307.004 447.474 306.836 447.93 306.836C448.386 306.836 448.746 307.004 449.01 307.34C449.282 307.668 449.418 308.164 449.418 308.828C449.418 309.492 449.282 309.992 449.01 310.328C448.746 310.656 448.386 310.82 447.93 310.82ZM453.95 309.824V306.98H455.45V305.828H453.95V304.268H452.522V305.828H451.586V306.98H452.522V310.088C452.522 310.736 452.67 311.188 452.966 311.444C453.27 311.7 453.702 311.828 454.262 311.828H455.45V310.676H454.73C454.466 310.676 454.27 310.616 454.142 310.496C454.014 310.368 453.95 310.144 453.95 309.824ZM464.723 311.828H466.247L463.031 303.428H461.399L458.183 311.828H459.707L460.415 309.908H464.015L464.723 311.828ZM460.991 308.336C461.263 307.616 461.499 306.96 461.699 306.368C461.899 305.768 462.071 305.196 462.215 304.652C462.359 305.196 462.531 305.768 462.731 306.368C462.939 306.96 463.175 307.616 463.439 308.336L463.559 308.648H460.871L460.991 308.336ZM468.591 303.428H467.151V311.828H468.591V303.428ZM471.544 303.428H470.104V311.828H471.544V303.428Z" fill="white"/>
<path d="M400.239 347.828H401.715V345.164H403.803C404.075 345.164 404.335 345.148 404.583 345.116C404.831 345.076 405.063 345.016 405.279 344.936C405.503 344.856 405.703 344.76 405.879 344.648C406.063 344.528 406.227 344.392 406.371 344.24C406.515 344.088 406.635 343.916 406.731 343.724C406.835 343.524 406.911 343.308 406.959 343.076C407.015 342.836 407.043 342.576 407.043 342.296C407.043 342.016 407.015 341.76 406.959 341.528C406.911 341.288 406.835 341.072 406.731 340.88C406.635 340.68 406.515 340.504 406.371 340.352C406.227 340.2 406.063 340.068 405.879 339.956C405.703 339.836 405.503 339.736 405.279 339.656C405.063 339.576 404.831 339.52 404.583 339.488C404.335 339.448 404.075 339.428 403.803 339.428H400.239V347.828ZM403.635 340.676C404.227 340.676 404.687 340.796 405.015 341.036C405.351 341.276 405.519 341.696 405.519 342.296C405.519 342.896 405.351 343.316 405.015 343.556C404.687 343.796 404.227 343.916 403.635 343.916H401.715V340.676H403.635ZM411.336 343.088C411.44 343.088 411.532 343.096 411.612 343.112C411.7 343.12 411.776 343.132 411.84 343.148V341.828C411.776 341.812 411.704 341.8 411.624 341.792C411.552 341.776 411.468 341.768 411.372 341.768C410.956 341.768 410.592 341.888 410.28 342.128C409.968 342.36 409.74 342.724 409.596 343.22V341.828H408.276V347.828H409.716V344.756C409.716 344.188 409.864 343.768 410.16 343.496C410.464 343.224 410.856 343.088 411.336 343.088ZM414.309 339.428H412.869V340.772H414.309V339.428ZM414.309 341.828H412.869V347.828H414.309V341.828ZM417.502 347.828H418.846L421.138 341.828H419.65L418.906 343.916C418.746 344.372 418.606 344.784 418.486 345.152C418.366 345.512 418.262 345.884 418.174 346.268C418.078 345.884 417.97 345.512 417.85 345.152C417.738 344.784 417.602 344.372 417.442 343.916L416.698 341.828H415.21L417.502 347.828ZM427.316 347.828C427.276 347.74 427.24 347.66 427.208 347.588C427.176 347.508 427.148 347.44 427.124 347.384C427.108 347.32 427.088 347.26 427.064 347.204C427.048 347.148 427.032 347.096 427.016 347.048C427.008 347 427 346.952 426.992 346.904C426.984 346.848 426.976 346.796 426.968 346.748C426.968 346.692 426.964 346.636 426.956 346.58C426.956 346.516 426.956 346.452 426.956 346.388C426.956 346.316 426.956 346.236 426.956 346.148V343.592C426.956 342.968 426.724 342.496 426.26 342.176C425.804 341.848 425.18 341.684 424.388 341.684C423.588 341.684 422.956 341.84 422.492 342.152C422.036 342.464 421.808 342.932 421.808 343.556H423.26C423.268 343.308 423.372 343.12 423.572 342.992C423.772 342.864 424.044 342.8 424.388 342.8C424.748 342.8 425.024 342.864 425.216 342.992C425.416 343.112 425.516 343.304 425.516 343.568C425.516 343.648 425.504 343.724 425.48 343.796C425.456 343.86 425.416 343.916 425.36 343.964C425.312 344.012 425.256 344.056 425.192 344.096C425.128 344.136 425.052 344.172 424.964 344.204C424.884 344.228 424.796 344.252 424.7 344.276C424.604 344.292 424.5 344.308 424.388 344.324C424.284 344.34 424.176 344.356 424.064 344.372C423.952 344.388 423.836 344.404 423.716 344.42C423.604 344.436 423.492 344.456 423.38 344.48C423.268 344.504 423.156 344.528 423.044 344.552C422.932 344.576 422.82 344.608 422.708 344.648C422.604 344.688 422.504 344.732 422.408 344.78C422.312 344.828 422.22 344.884 422.132 344.948C422.052 345.012 421.98 345.084 421.916 345.164C421.852 345.244 421.792 345.336 421.736 345.44C421.688 345.544 421.652 345.66 421.628 345.788C421.604 345.908 421.592 346.044 421.592 346.196C421.592 346.772 421.776 347.208 422.144 347.504C422.52 347.8 422.98 347.948 423.524 347.948C423.972 347.948 424.368 347.852 424.712 347.66C425.064 347.46 425.332 347.184 425.516 346.832L425.864 347.828H427.316ZM423.068 346.028C423.068 345.94 423.08 345.86 423.104 345.788C423.128 345.708 423.164 345.64 423.212 345.584C423.26 345.52 423.312 345.464 423.368 345.416C423.432 345.368 423.504 345.324 423.584 345.284C423.664 345.244 423.748 345.208 423.836 345.176C423.924 345.144 424.016 345.112 424.112 345.08C424.208 345.048 424.304 345.02 424.4 344.996C424.496 344.964 424.592 344.936 424.688 344.912C424.792 344.88 424.892 344.848 424.988 344.816C425.084 344.776 425.176 344.736 425.264 344.696C425.352 344.656 425.436 344.612 425.516 344.564V345.32C425.516 345.816 425.368 346.196 425.072 346.46C424.784 346.724 424.456 346.856 424.088 346.856C423.768 346.856 423.516 346.792 423.332 346.664C423.156 346.528 423.068 346.316 423.068 346.028ZM429.62 344.828C429.62 344.164 429.756 343.668 430.028 343.34C430.3 343.004 430.652 342.836 431.084 342.836C431.476 342.836 431.78 342.956 431.996 343.196C432.22 343.436 432.348 343.764 432.38 344.18H433.868C433.82 343.396 433.552 342.784 433.064 342.344C432.576 341.904 431.916 341.684 431.084 341.684C430.836 341.684 430.6 341.708 430.376 341.756C430.152 341.796 429.94 341.86 429.74 341.948C429.548 342.028 429.368 342.132 429.2 342.26C429.032 342.388 428.88 342.54 428.744 342.716C428.616 342.884 428.504 343.076 428.408 343.292C428.32 343.508 428.252 343.744 428.204 344C428.156 344.256 428.132 344.532 428.132 344.828C428.132 345.124 428.156 345.4 428.204 345.656C428.252 345.912 428.32 346.148 428.408 346.364C428.504 346.58 428.616 346.776 428.744 346.952C428.88 347.12 429.032 347.268 429.2 347.396C429.368 347.524 429.548 347.632 429.74 347.72C429.94 347.8 430.152 347.86 430.376 347.9C430.6 347.948 430.836 347.972 431.084 347.972C431.916 347.972 432.576 347.752 433.064 347.312C433.552 346.872 433.82 346.26 433.868 345.476H432.38C432.348 345.892 432.22 346.22 431.996 346.46C431.78 346.7 431.476 346.82 431.084 346.82C430.652 346.82 430.3 346.656 430.028 346.328C429.756 345.992 429.62 345.492 429.62 344.828ZM438.008 343.916C437.848 344.372 437.708 344.784 437.588 345.152C437.468 345.512 437.364 345.884 437.276 346.268C437.18 345.884 437.072 345.512 436.952 345.152C436.84 344.784 436.704 344.372 436.544 343.916L435.8 341.828H434.312L436.568 347.72L436.34 348.332C436.228 348.644 436.104 348.844 435.968 348.932C435.832 349.028 435.64 349.076 435.392 349.076H434.816V350.228H435.596C435.724 350.228 435.844 350.224 435.956 350.216C436.068 350.208 436.172 350.192 436.268 350.168C436.372 350.152 436.468 350.124 436.556 350.084C436.644 350.052 436.724 350.008 436.796 349.952C436.876 349.896 436.952 349.824 437.024 349.736C437.096 349.656 437.164 349.56 437.228 349.448C437.3 349.344 437.368 349.22 437.432 349.076C437.504 348.94 437.572 348.784 437.636 348.608L440.24 341.828H438.752L438.008 343.916ZM443.445 341.744C443.445 341.92 443.457 342.084 443.481 342.236C443.513 342.38 443.553 342.516 443.601 342.644C443.649 342.772 443.709 342.888 443.781 342.992C443.853 343.096 443.929 343.192 444.009 343.28C444.097 343.368 444.193 343.448 444.297 343.52C444.401 343.584 444.509 343.644 444.621 343.7C444.733 343.756 444.849 343.808 444.969 343.856C445.097 343.896 445.225 343.936 445.353 343.976C445.481 344.008 445.609 344.04 445.737 344.072C445.873 344.104 446.005 344.132 446.133 344.156C446.269 344.18 446.401 344.204 446.529 344.228C446.657 344.252 446.781 344.28 446.901 344.312C447.029 344.336 447.149 344.364 447.261 344.396C447.373 344.42 447.481 344.452 447.585 344.492C447.689 344.524 447.781 344.564 447.861 344.612C447.949 344.66 448.029 344.712 448.101 344.768C448.173 344.824 448.233 344.888 448.281 344.96C448.329 345.024 448.365 345.1 448.389 345.188C448.421 345.276 448.437 345.372 448.437 345.476C448.437 345.86 448.277 346.168 447.957 346.4C447.645 346.632 447.229 346.748 446.709 346.748C446.101 346.748 445.617 346.612 445.257 346.34C444.905 346.06 444.709 345.696 444.669 345.248H443.169C443.185 346.056 443.517 346.712 444.165 347.216C444.813 347.72 445.661 347.972 446.709 347.972C446.941 347.972 447.161 347.956 447.369 347.924C447.585 347.9 447.789 347.86 447.981 347.804C448.181 347.748 448.365 347.68 448.533 347.6C448.701 347.52 448.857 347.424 449.001 347.312C449.145 347.2 449.273 347.08 449.385 346.952C449.505 346.816 449.605 346.668 449.685 346.508C449.765 346.348 449.825 346.176 449.865 345.992C449.905 345.8 449.925 345.6 449.925 345.392C449.925 345.216 449.909 345.056 449.877 344.912C449.853 344.76 449.817 344.62 449.769 344.492C449.721 344.364 449.661 344.248 449.589 344.144C449.517 344.04 449.437 343.948 449.349 343.868C449.261 343.78 449.165 343.7 449.061 343.628C448.965 343.556 448.857 343.492 448.737 343.436C448.625 343.38 448.509 343.332 448.389 343.292C448.269 343.244 448.141 343.204 448.005 343.172C447.877 343.132 447.745 343.1 447.609 343.076C447.481 343.044 447.353 343.016 447.225 342.992C447.097 342.96 446.965 342.932 446.829 342.908C446.701 342.884 446.577 342.86 446.457 342.836C446.337 342.812 446.217 342.784 446.097 342.752C445.985 342.72 445.877 342.688 445.773 342.656C445.677 342.616 445.585 342.576 445.497 342.536C445.409 342.488 445.329 342.436 445.257 342.38C445.185 342.324 445.125 342.264 445.077 342.2C445.029 342.128 444.989 342.048 444.957 341.96C444.933 341.872 444.921 341.776 444.921 341.672C444.921 341.328 445.061 341.048 445.341 340.832C445.629 340.616 446.005 340.508 446.469 340.508C447.005 340.508 447.425 340.632 447.729 340.88C448.041 341.12 448.217 341.444 448.257 341.852H449.757C449.741 341.1 449.441 340.484 448.857 340.004C448.273 339.524 447.477 339.284 446.469 339.284C446.213 339.284 445.969 339.304 445.737 339.344C445.505 339.376 445.289 339.428 445.089 339.5C444.889 339.572 444.701 339.66 444.525 339.764C444.357 339.868 444.205 339.988 444.069 340.124C443.941 340.26 443.829 340.412 443.733 340.58C443.637 340.74 443.565 340.92 443.517 341.12C443.469 341.312 443.445 341.52 443.445 341.744ZM456.625 346.004H455.149C455.093 346.252 454.961 346.456 454.753 346.616C454.553 346.776 454.265 346.856 453.889 346.856C453.457 346.856 453.101 346.72 452.821 346.448C452.541 346.176 452.389 345.768 452.365 345.224H456.721C456.729 345.16 456.733 345.096 456.733 345.032C456.733 344.968 456.733 344.9 456.733 344.828C456.733 344.564 456.713 344.32 456.673 344.096C456.641 343.864 456.589 343.652 456.517 343.46C456.445 343.26 456.357 343.08 456.253 342.92C456.157 342.752 456.045 342.604 455.917 342.476C455.797 342.34 455.661 342.224 455.509 342.128C455.357 342.032 455.193 341.952 455.017 341.888C454.849 341.816 454.669 341.764 454.477 341.732C454.293 341.7 454.097 341.684 453.889 341.684C453.641 341.684 453.405 341.708 453.181 341.756C452.957 341.796 452.745 341.86 452.545 341.948C452.353 342.028 452.173 342.132 452.005 342.26C451.837 342.388 451.685 342.54 451.549 342.716C451.421 342.884 451.309 343.076 451.213 343.292C451.125 343.5 451.057 343.732 451.009 343.988C450.961 344.244 450.937 344.524 450.937 344.828C450.937 345.132 450.961 345.412 451.009 345.668C451.057 345.924 451.125 346.16 451.213 346.376C451.309 346.584 451.421 346.776 451.549 346.952C451.685 347.12 451.837 347.268 452.005 347.396C452.173 347.524 452.353 347.632 452.545 347.72C452.745 347.8 452.957 347.86 453.181 347.9C453.405 347.948 453.641 347.972 453.889 347.972C454.633 347.972 455.253 347.796 455.749 347.444C456.253 347.084 456.545 346.604 456.625 346.004ZM453.889 342.8C454.273 342.8 454.589 342.92 454.837 343.16C455.093 343.392 455.245 343.744 455.293 344.216H452.389C452.445 343.744 452.605 343.392 452.869 343.16C453.141 342.92 453.481 342.8 453.889 342.8ZM459.751 345.824V342.98H461.251V341.828H459.751V340.268H458.323V341.828H457.387V342.98H458.323V346.088C458.323 346.736 458.471 347.188 458.767 347.444C459.071 347.7 459.503 347.828 460.063 347.828H461.251V346.676H460.531C460.267 346.676 460.071 346.616 459.943 346.496C459.815 346.368 459.751 346.144 459.751 345.824ZM464.099 345.824V342.98H465.599V341.828H464.099V340.268H462.671V341.828H461.735V342.98H462.671V346.088C462.671 346.736 462.819 347.188 463.115 347.444C463.419 347.7 463.851 347.828 464.411 347.828H465.599V346.676H464.879C464.615 346.676 464.419 346.616 464.291 346.496C464.163 346.368 464.099 346.144 464.099 345.824ZM468.098 339.428H466.658V340.772H468.098V339.428ZM468.098 341.828H466.658V347.828H468.098V341.828ZM470.991 341.828H469.611V347.828H471.051V344.384C471.051 343.88 471.167 343.504 471.399 343.256C471.639 343 471.955 342.872 472.347 342.872C472.715 342.872 473.003 342.98 473.211 343.196C473.419 343.412 473.523 343.748 473.523 344.204V347.828H474.963V344C474.963 343.208 474.775 342.624 474.399 342.248C474.031 341.872 473.551 341.684 472.959 341.684C472.511 341.684 472.115 341.788 471.771 341.996C471.427 342.204 471.167 342.508 470.991 342.908V341.828ZM478.604 347.444C479.044 347.444 479.44 347.348 479.792 347.156C480.152 346.956 480.436 346.668 480.644 346.292V347.756C480.644 348.212 480.516 348.572 480.26 348.836C480.012 349.108 479.636 349.244 479.132 349.244C478.628 349.244 478.252 349.108 478.004 348.836C477.764 348.572 477.644 348.236 477.644 347.828H476.204C476.204 348.604 476.472 349.22 477.008 349.676C477.544 350.14 478.252 350.372 479.132 350.372C480.02 350.372 480.732 350.144 481.268 349.688C481.812 349.232 482.084 348.588 482.084 347.756V341.828H480.692V342.932C480.484 342.524 480.196 342.216 479.828 342.008C479.468 341.792 479.06 341.684 478.604 341.684C477.9 341.684 477.316 341.932 476.852 342.428C476.396 342.924 476.168 343.636 476.168 344.564C476.168 345.492 476.396 346.204 476.852 346.7C477.316 347.196 477.9 347.444 478.604 347.444ZM479.156 346.34C478.7 346.34 478.336 346.192 478.064 345.896C477.792 345.6 477.656 345.156 477.656 344.564C477.656 343.972 477.792 343.528 478.064 343.232C478.336 342.936 478.7 342.788 479.156 342.788C479.612 342.788 479.972 342.936 480.236 343.232C480.508 343.528 480.644 343.972 480.644 344.564C480.644 345.156 480.508 345.6 480.236 345.896C479.972 346.192 479.612 346.34 479.156 346.34ZM483.436 343.496C483.436 343.64 483.448 343.772 483.472 343.892C483.496 344.012 483.528 344.124 483.568 344.228C483.616 344.324 483.668 344.412 483.724 344.492C483.788 344.572 483.856 344.644 483.928 344.708C484.008 344.772 484.092 344.832 484.18 344.888C484.268 344.936 484.36 344.984 484.456 345.032C484.552 345.072 484.648 345.108 484.744 345.14C484.848 345.172 484.952 345.204 485.056 345.236C485.16 345.26 485.264 345.284 485.368 345.308C485.472 345.324 485.572 345.344 485.668 345.368C485.772 345.384 485.872 345.404 485.968 345.428C486.064 345.444 486.156 345.468 486.244 345.5C486.332 345.524 486.412 345.552 486.484 345.584C486.564 345.608 486.632 345.64 486.688 345.68C486.752 345.712 486.804 345.752 486.844 345.8C486.892 345.848 486.928 345.904 486.952 345.968C486.976 346.024 486.988 346.088 486.988 346.16C486.988 346.384 486.888 346.56 486.688 346.688C486.488 346.816 486.228 346.88 485.908 346.88C485.524 346.88 485.22 346.8 484.996 346.64C484.78 346.48 484.66 346.268 484.636 346.004H483.256C483.264 346.596 483.508 347.072 483.988 347.432C484.468 347.792 485.108 347.972 485.908 347.972C486.628 347.972 487.212 347.812 487.66 347.492C488.116 347.172 488.344 346.704 488.344 346.088C488.344 345.944 488.332 345.812 488.308 345.692C488.284 345.572 488.248 345.464 488.2 345.368C488.16 345.272 488.108 345.184 488.044 345.104C487.988 345.016 487.92 344.94 487.84 344.876C487.768 344.812 487.688 344.756 487.6 344.708C487.52 344.652 487.432 344.604 487.336 344.564C487.24 344.516 487.14 344.476 487.036 344.444C486.94 344.412 486.84 344.384 486.736 344.36C486.632 344.328 486.524 344.304 486.412 344.288C486.308 344.264 486.204 344.244 486.1 344.228C486.004 344.204 485.908 344.18 485.812 344.156C485.716 344.132 485.624 344.108 485.536 344.084C485.456 344.06 485.376 344.036 485.296 344.012C485.224 343.98 485.156 343.948 485.092 343.916C485.036 343.876 484.984 343.832 484.936 343.784C484.896 343.736 484.864 343.684 484.84 343.628C484.816 343.564 484.804 343.496 484.804 343.424C484.804 343.224 484.892 343.068 485.068 342.956C485.244 342.836 485.472 342.776 485.752 342.776C486.088 342.776 486.352 342.848 486.544 342.992C486.736 343.128 486.84 343.316 486.856 343.556H488.236C488.228 343.004 488.008 342.556 487.576 342.212C487.152 341.86 486.544 341.684 485.752 341.684C485.056 341.684 484.496 341.844 484.072 342.164C483.648 342.476 483.436 342.92 483.436 343.496Z" fill="black" fill-opacity="0.4"/>
<rect x="376.875" y="329.203" width="135" height="29.25" rx="14.625" stroke="black" stroke-opacity="0.4" stroke-width="0.75"/>
</g>
</g>
<defs>
<filter id="filter0_d_501_117195" x="52.5" y="12" width="306.75" height="261" filterUnits="userSpaceOnUse" color-interpolation-filters="sRGB">
<feFlood flood-opacity="0" result="BackgroundImageFix"/>
<feColorMatrix in="SourceAlpha" type="matrix" values="0 0 0 0 0 0 0 0 0 0 0 0 0 0 0 0 0 0 127 0" result="hardAlpha"/>
<feOffset dy="12"/>
<feGaussianBlur stdDeviation="15"/>
<feComposite in2="hardAlpha" operator="out"/>
<feColorMatrix type="matrix" values="0 0 0 0 0 0 0 0 0 0 0 0 0 0 0 0 0 0 0.08 0"/>
<feBlend mode="normal" in2="BackgroundImageFix" result="effect1_dropShadow_501_117195"/>
<feBlend mode="normal" in="SourceGraphic" in2="effect1_dropShadow_501_117195" result="shape"/>
</filter>
<filter id="filter1_d_501_117195" x="334.5" y="115.5" width="282" height="297.328" filterUnits="userSpaceOnUse" color-interpolation-filters="sRGB">
<feFlood flood-opacity="0" result="BackgroundImageFix"/>
<feColorMatrix in="SourceAlpha" type="matrix" values="0 0 0 0 0 0 0 0 0 0 0 0 0 0 0 0 0 0 127 0" result="hardAlpha"/>
<feOffset dy="12"/>
<feGaussianBlur stdDeviation="15"/>
<feComposite in2="hardAlpha" operator="out"/>
<feColorMatrix type="matrix" values="0 0 0 0 0 0 0 0 0 0 0 0 0 0 0 0 0 0 0.08 0"/>
<feBlend mode="normal" in2="BackgroundImageFix" result="effect1_dropShadow_501_117195"/>
<feBlend mode="normal" in="SourceGraphic" in2="effect1_dropShadow_501_117195" result="shape"/>
</filter>
<clipPath id="clip0_501_117195">
<rect width="624" height="401" fill="white"/>
</clipPath>
<clipPath id="clip1_501_117195">
<rect width="136.5" height="33" fill="white" transform="translate(94.5 42)"/>
</clipPath>
<clipPath id="clip2_501_117195">
<rect width="136.5" height="33" fill="white" transform="translate(376.5 145.5)"/>
</clipPath>
</defs>
</svg>
