<svg width="405" height="400" viewBox="0 0 405 400" fill="none" xmlns="http://www.w3.org/2000/svg">
<g clip-path="url(#clip0_684_120129)">
<rect width="405" height="400" fill="white"/>
<rect width="405" height="400" fill="#559E5E"/>
<rect x="32" y="28" width="341" height="343" fill="#4E935B"/>
<rect x="64" y="56" width="277" height="287" fill="#458653"/>
<rect x="96" y="84" width="213" height="227" fill="#3B744D"/>
<path d="M56 115H54V117V277.312V279.312H56H341H343V277.312V117V115H341H56Z" fill="#686868" stroke="black" stroke-width="4"/>
<path d="M56 117.557L145.062 201.053L225.219 277.869H56V117.557Z" fill="#E6E6E6" fill-opacity="0.06"/>
<g filter="url(#filter0_d_684_120129)">
<rect x="22" y="22" width="283" height="184" rx="8" fill="#101614" shape-rendering="crispEdges"/>
<g clip-path="url(#clip1_684_120129)">
<path d="M112.409 60.5109V58.9339H104.174L112.409 48.8146V47.2737H102.492V48.8506H110.082L101.893 59.024V60.5109H112.409ZM117.171 60.8533C117.668 60.8533 118.113 60.8052 118.507 60.7091C119.24 60.5409 119.855 60.2165 120.352 59.7359C120.649 59.4596 120.917 59.1036 121.157 58.6681C121.396 58.2326 121.537 57.8376 121.579 57.4832H119.97C119.849 57.9097 119.643 58.2851 119.352 58.6095C118.843 59.1682 118.162 59.4476 117.307 59.4476C116.392 59.4476 115.716 59.1517 115.28 58.56C114.844 57.9682 114.611 57.1828 114.58 56.2036H121.716C121.716 55.2304 121.667 54.5215 121.57 54.077C121.461 53.4282 121.243 52.8605 120.916 52.3739C120.576 51.8633 120.082 51.4473 119.434 51.1259C118.786 50.8045 118.116 50.6438 117.425 50.6438C116.056 50.6438 114.947 51.1274 114.099 52.0946C113.25 53.0618 112.826 54.3203 112.826 55.8702C112.826 57.4441 113.247 58.6681 114.089 59.5422C114.932 60.4162 115.959 60.8533 117.171 60.8533ZM120.034 54.915H114.626C114.656 54.086 114.926 53.4027 115.435 52.865C115.944 52.3274 116.574 52.0585 117.325 52.0585C118.374 52.0585 119.122 52.449 119.57 53.23C119.813 53.6505 119.967 54.2122 120.034 54.915ZM124.696 60.5109V55.4557C124.696 54.8249 124.737 54.3398 124.818 54.0004C124.9 53.661 125.077 53.3321 125.35 53.0137C125.689 52.6172 126.083 52.3529 126.532 52.2207C126.78 52.1426 127.098 52.1036 127.486 52.1036C128.25 52.1036 128.777 52.4039 129.068 53.0047C129.243 53.3651 129.331 53.8397 129.331 54.4284V60.5109H130.995V54.3203C130.995 53.3471 130.861 52.5992 130.595 52.0765C130.11 51.1214 129.177 50.6438 127.795 50.6438C127.165 50.6438 126.592 50.7669 126.077 51.0132C125.562 51.2596 125.074 51.665 124.614 52.2297V50.8601H123.06V60.5109H124.696ZM135.038 60.664C135.275 60.664 135.494 60.652 135.697 60.628C135.9 60.604 136.096 60.5649 136.284 60.5109V59.2313C136.162 59.2433 136.056 59.2508 135.965 59.2538C135.874 59.2568 135.79 59.2583 135.711 59.2583C135.414 59.2583 135.202 59.2253 135.075 59.1592C134.844 59.0451 134.729 58.8198 134.729 58.4834V52.1847H136.284V50.8601H134.729V48.1658H133.075V50.8601H131.757V52.1847H133.075V58.5735C133.075 59.1922 133.211 59.6954 133.484 60.0828C133.757 60.4703 134.275 60.664 135.038 60.664ZM140.963 60.8623C142.569 60.8623 143.754 60.3547 144.517 59.3394C145.281 58.3242 145.663 57.0386 145.663 55.4827C145.663 53.8727 145.229 52.6533 144.363 51.8242C143.496 50.9952 142.436 50.5807 141.181 50.5807C139.782 50.5807 138.667 51.0613 137.837 52.0225C137.006 52.9837 136.591 54.2752 136.591 55.8972C136.591 57.4111 136.985 58.617 137.773 59.5151C138.561 60.4132 139.624 60.8623 140.963 60.8623ZM141.118 59.4656C140.13 59.4656 139.409 59.1232 138.955 58.4383C138.5 57.7535 138.273 56.8974 138.273 55.8702C138.273 54.8009 138.5 53.8878 138.955 53.1308C139.409 52.3739 140.136 51.9954 141.136 51.9954C142.263 51.9954 143.057 52.44 143.517 53.3291C143.808 53.8938 143.954 54.6267 143.954 55.5278C143.954 56.525 143.752 57.4306 143.349 58.2446C142.946 59.0586 142.203 59.4656 141.118 59.4656ZM150.388 60.8803C151.733 60.8803 152.735 60.5679 153.392 59.9432C154.049 59.3184 154.378 58.5765 154.378 57.7174C154.378 56.8284 154.06 56.1766 153.424 55.7621C153.024 55.4977 152.236 55.2244 151.061 54.942L149.979 54.6807C149.506 54.5666 149.149 54.4344 148.906 54.2842C148.488 54.0319 148.279 53.6955 148.279 53.275C148.279 52.8905 148.438 52.5812 148.756 52.3469C149.074 52.1126 149.543 51.9954 150.161 51.9954C151.088 51.9954 151.739 52.2087 152.115 52.6352C152.345 52.9356 152.475 53.269 152.506 53.6355H154.051C154.063 53.0107 153.866 52.428 153.46 51.8873C152.812 51.0343 151.754 50.6078 150.288 50.6078C149.167 50.6078 148.275 50.8901 147.611 51.4548C146.947 52.0195 146.616 52.7584 146.616 53.6715C146.616 54.4464 146.967 55.0532 147.67 55.4917C148.064 55.744 148.676 55.9723 149.506 56.1766L150.806 56.501C151.503 56.6752 151.969 56.8284 152.206 56.9605C152.575 57.1768 152.76 57.4922 152.76 57.9067C152.76 58.4533 152.53 58.8573 152.069 59.1187C151.609 59.38 151.076 59.5106 150.47 59.5106C149.452 59.5106 148.737 59.2493 148.325 58.7267C148.1 58.4383 147.964 58.0238 147.916 57.4832H146.343C146.385 58.4443 146.708 59.2508 147.311 59.9026C147.914 60.5544 148.94 60.8803 150.388 60.8803ZM159.294 60.8623C160.9 60.8623 162.085 60.3547 162.848 59.3394C163.612 58.3242 163.994 57.0386 163.994 55.4827C163.994 53.8727 163.56 52.6533 162.694 51.8242C161.827 50.9952 160.767 50.5807 159.512 50.5807C158.113 50.5807 156.998 51.0613 156.168 52.0225C155.337 52.9837 154.922 54.2752 154.922 55.8972C154.922 57.4111 155.316 58.617 156.104 59.5151C156.892 60.4132 157.955 60.8623 159.294 60.8623ZM159.449 59.4656C158.461 59.4656 157.74 59.1232 157.286 58.4383C156.831 57.7535 156.604 56.8974 156.604 55.8702C156.604 54.8009 156.831 53.8878 157.286 53.1308C157.74 52.3739 158.467 51.9954 159.467 51.9954C160.594 51.9954 161.388 52.44 161.849 53.3291C162.139 53.8938 162.285 54.6267 162.285 55.5278C162.285 56.525 162.083 57.4306 161.68 58.2446C161.277 59.0586 160.534 59.4656 159.449 59.4656Z" fill="white"/>
<mask id="mask0_684_120129" style="mask-type:alpha" maskUnits="userSpaceOnUse" x="68" y="38" width="27" height="13">
<path d="M68 38.0084H94.564V50.4952H68V38.0084Z" fill="white"/>
</mask>
<g mask="url(#mask0_684_120129)">
<path fill-rule="evenodd" clip-rule="evenodd" d="M94.564 46.5958C94.5642 45.9517 94.249 45.3074 93.6179 44.9366L82.2703 38.2702C81.6771 37.9217 80.9438 37.9211 80.35 38.2684L68.9489 44.9384C68.3168 45.3081 68.0005 45.9522 68 46.5966V50.4952C68.0005 49.8509 68.3168 49.2067 68.9489 48.8369L80.35 42.167C80.9438 41.8197 81.6771 41.8204 82.2703 42.1688L93.6179 48.8353C94.249 49.206 94.5642 49.8502 94.564 50.4944V46.5958Z" fill="white"/>
</g>
<path fill-rule="evenodd" clip-rule="evenodd" d="M94.5934 53.862C94.5937 53.216 94.2781 52.5699 93.6463 52.1981L82.2861 45.5126C81.6922 45.1632 80.9581 45.1624 80.3637 45.5108L68.95 52.1998C68.3172 52.5707 68.0005 53.2167 68 53.8629V57.7727C68.0005 57.1265 68.3172 56.4804 68.95 56.1096L80.3637 49.4206C80.9581 49.0723 81.6922 49.0729 82.2861 49.4224L93.6463 56.108C94.2781 56.4798 94.5937 57.1259 94.5934 57.7718V53.862Z" fill="white"/>
<path fill-rule="evenodd" clip-rule="evenodd" d="M94.5934 50.5001C94.5928 51.1441 94.2766 51.788 93.6448 52.158L82.2548 58.8299C81.6608 59.178 80.9266 59.178 80.3326 58.8299L68.9484 52.1615C68.3155 51.7907 67.9993 51.1453 68 50.5001V46.6002C67.9993 47.2454 68.3155 47.8909 68.9484 48.2616L80.3326 54.9301C80.9266 55.2782 81.6608 55.2782 82.2548 54.9301L93.6448 48.2581C94.2871 47.882 94.6033 47.2229 94.5931 46.5682L94.5934 50.5001Z" fill="#83BCEA"/>
<mask id="mask1_684_120129" style="mask-type:alpha" maskUnits="userSpaceOnUse" x="68" y="49" width="27" height="14">
<path d="M68.0156 49.8839H94.5796V62.3079H68.0156V49.8839Z" fill="#0D8FDF"/>
</mask>
<g mask="url(#mask1_684_120129)">
<path fill-rule="evenodd" clip-rule="evenodd" d="M94.5797 53.7848C94.579 54.4237 94.2632 55.0625 93.6321 55.4296L82.2548 62.0489C81.6614 62.3942 80.928 62.3942 80.3345 62.0489L68.9631 55.433C68.3309 55.0651 68.0151 54.4248 68.0156 53.7848V49.9156C68.0151 50.5557 68.3309 51.196 68.9631 51.5639L80.3345 58.1799C80.928 58.5251 81.6614 58.5251 82.2548 58.1799L93.6321 51.5605C94.2737 51.1873 94.5896 50.5333 94.5794 49.8839L94.5797 53.7848Z" fill="#0D8FDF"/>
</g>
<mask id="mask2_684_120129" style="mask-type:alpha" maskUnits="userSpaceOnUse" x="68" y="53" width="27" height="13">
<path d="M68 53.163H94.564V65.6819H68V53.163Z" fill="#0070FE"/>
</mask>
<g mask="url(#mask2_684_120129)">
<path fill-rule="evenodd" clip-rule="evenodd" d="M94.564 57.0937C94.5634 57.7375 94.2475 58.3811 93.6164 58.7511L82.2391 65.4209C81.6456 65.7689 80.9123 65.7689 80.3189 65.4209L68.9474 58.7545C68.3151 58.3838 67.9993 57.7386 68 57.0937V53.195C67.9993 53.84 68.3151 54.4852 68.9474 54.8559L80.3189 61.5223C80.9123 61.8702 81.6456 61.8702 82.2391 61.5223L93.6164 54.8524C94.2579 54.4763 94.5738 53.8175 94.5637 53.163L94.564 57.0937Z" fill="#0070FE"/>
</g>
<path d="M174.881 48.9978H170.654V61.0682H168.634V48.9978H164.418V47.5285H174.881V48.9978Z" fill="white"/>
<path d="M181.845 58.4551L185.521 47.5285H187.739L182.739 61.0682H180.973L175.984 47.5285H178.192L181.845 58.4551Z" fill="white"/>
</g>
<path d="M74.576 89.728C74.352 90.112 74.1333 90.5013 73.92 90.896C73.7067 91.2907 73.5147 91.6693 73.344 92.032C73.1627 91.6693 72.9653 91.2907 72.752 90.896C72.5387 90.5013 72.32 90.112 72.096 89.728L70.304 86.8H68.128L72.352 93.648V98H74.32V93.648L78.544 86.8H76.368L74.576 89.728ZM81.7166 98.192C82.0473 98.192 82.362 98.16 82.6606 98.096C82.9593 98.0427 83.2366 97.9627 83.4926 97.856C83.7593 97.7387 84.0046 97.5947 84.2286 97.424C84.4526 97.2533 84.65 97.056 84.8206 96.832C85.002 96.5973 85.1513 96.336 85.2686 96.048C85.3966 95.76 85.4926 95.4453 85.5566 95.104C85.6206 94.7627 85.6526 94.3947 85.6526 94C85.6526 93.6053 85.6206 93.2373 85.5566 92.896C85.4926 92.5547 85.3966 92.24 85.2686 91.952C85.1513 91.664 85.002 91.408 84.8206 91.184C84.65 90.9493 84.4526 90.7467 84.2286 90.576C84.0046 90.4053 83.7593 90.2667 83.4926 90.16C83.2366 90.0427 82.9593 89.9573 82.6606 89.904C82.362 89.84 82.0473 89.808 81.7166 89.808C81.386 89.808 81.0713 89.84 80.7726 89.904C80.474 89.9573 80.1913 90.0427 79.9246 90.16C79.6686 90.2667 79.4286 90.4053 79.2046 90.576C78.9806 90.7467 78.778 90.9493 78.5966 91.184C78.426 91.408 78.2766 91.664 78.1486 91.952C78.0313 92.24 77.9406 92.5547 77.8766 92.896C77.8126 93.2373 77.7806 93.6053 77.7806 94C77.7806 94.3947 77.8126 94.7627 77.8766 95.104C77.9406 95.4453 78.0313 95.76 78.1486 96.048C78.2766 96.336 78.426 96.5973 78.5966 96.832C78.778 97.056 78.9806 97.2533 79.2046 97.424C79.4286 97.5947 79.6686 97.7387 79.9246 97.856C80.1913 97.9627 80.474 98.0427 80.7726 98.096C81.0713 98.16 81.386 98.192 81.7166 98.192ZM81.7166 96.656C81.13 96.656 80.6553 96.4373 80.2926 96C79.9406 95.552 79.7646 94.8853 79.7646 94C79.7646 93.1147 79.9406 92.4533 80.2926 92.016C80.6553 91.568 81.13 91.344 81.7166 91.344C82.3033 91.344 82.7726 91.568 83.1246 92.016C83.4873 92.4533 83.6686 93.1147 83.6686 94C83.6686 94.8853 83.4873 95.552 83.1246 96C82.7726 96.4373 82.3033 96.656 81.7166 96.656ZM87.2249 95.168C87.2249 96.192 87.4649 96.9547 87.9449 97.456C88.4355 97.9467 89.0649 98.192 89.8329 98.192C90.4089 98.192 90.9155 98.064 91.3529 97.808C91.7902 97.5413 92.1262 97.1573 92.3609 96.656V98H94.2169V90H92.2969V94.656C92.2969 95.296 92.1422 95.7813 91.8329 96.112C91.5342 96.4427 91.1395 96.608 90.6489 96.608C90.1689 96.608 89.7955 96.4693 89.5289 96.192C89.2729 95.904 89.1449 95.472 89.1449 94.896V90H87.2249V95.168ZM100.291 91.68C100.43 91.68 100.552 91.6907 100.659 91.712C100.776 91.7227 100.878 91.7387 100.963 91.76V90C100.878 89.9787 100.782 89.9627 100.675 89.952C100.579 89.9307 100.467 89.92 100.339 89.92C99.7845 89.92 99.2991 90.08 98.8831 90.4C98.4671 90.7093 98.1631 91.1947 97.9711 91.856V90H96.2111V98H98.1311V93.904C98.1311 93.1467 98.3285 92.5867 98.7231 92.224C99.1285 91.8613 99.6511 91.68 100.291 91.68ZM109.992 98.192C110.93 98.192 111.704 97.84 112.312 97.136C112.92 96.4213 113.224 95.376 113.224 94C113.224 92.624 112.92 91.584 112.312 90.88C111.704 90.1653 110.93 89.808 109.992 89.808C109.384 89.808 108.829 89.9627 108.328 90.272C107.837 90.5707 107.458 91.024 107.192 91.632V90H105.352V101.2H107.272V96.544C107.549 97.088 107.922 97.4987 108.392 97.776C108.872 98.0533 109.405 98.192 109.992 98.192ZM109.256 96.656C108.648 96.656 108.162 96.4373 107.8 96C107.448 95.552 107.272 94.8853 107.272 94C107.272 93.1147 107.448 92.4533 107.8 92.016C108.162 91.568 108.648 91.344 109.256 91.344C109.864 91.344 110.344 91.568 110.696 92.016C111.058 92.4533 111.24 93.1147 111.24 94C111.24 94.8853 111.058 95.552 110.696 96C110.344 96.4373 109.864 96.656 109.256 96.656ZM118.994 91.68C119.133 91.68 119.256 91.6907 119.362 91.712C119.48 91.7227 119.581 91.7387 119.666 91.76V90C119.581 89.9787 119.485 89.9627 119.378 89.952C119.282 89.9307 119.17 89.92 119.042 89.92C118.488 89.92 118.002 90.08 117.586 90.4C117.17 90.7093 116.866 91.1947 116.674 91.856V90H114.914V98H116.834V93.904C116.834 93.1467 117.032 92.5867 117.426 92.224C117.832 91.8613 118.354 91.68 118.994 91.68ZM122.959 86.8H121.039V88.592H122.959V86.8ZM122.959 90H121.039V98H122.959V90ZM127.217 98H129.009L132.065 90H130.081L129.089 92.784C128.875 93.392 128.689 93.9413 128.529 94.432C128.369 94.912 128.23 95.408 128.113 95.92C127.985 95.408 127.841 94.912 127.681 94.432C127.531 93.9413 127.35 93.392 127.137 92.784L126.145 90H124.161L127.217 98ZM140.301 98C140.248 97.8827 140.2 97.776 140.157 97.68C140.115 97.5733 140.077 97.4827 140.045 97.408C140.024 97.3227 139.997 97.2427 139.965 97.168C139.944 97.0933 139.923 97.024 139.901 96.96C139.891 96.896 139.88 96.832 139.869 96.768C139.859 96.6933 139.848 96.624 139.837 96.56C139.837 96.4853 139.832 96.4107 139.821 96.336C139.821 96.2507 139.821 96.1653 139.821 96.08C139.821 95.984 139.821 95.8773 139.821 95.76V92.352C139.821 91.52 139.512 90.8907 138.893 90.464C138.285 90.0267 137.453 89.808 136.397 89.808C135.331 89.808 134.488 90.016 133.869 90.432C133.261 90.848 132.957 91.472 132.957 92.304H134.893C134.904 91.9733 135.043 91.7227 135.309 91.552C135.576 91.3813 135.939 91.296 136.397 91.296C136.877 91.296 137.245 91.3813 137.501 91.552C137.768 91.712 137.901 91.968 137.901 92.32C137.901 92.4267 137.885 92.528 137.853 92.624C137.821 92.7093 137.768 92.784 137.693 92.848C137.629 92.912 137.555 92.9707 137.469 93.024C137.384 93.0773 137.283 93.1253 137.165 93.168C137.059 93.2 136.941 93.232 136.813 93.264C136.685 93.2853 136.547 93.3067 136.397 93.328C136.259 93.3493 136.115 93.3707 135.965 93.392C135.816 93.4133 135.661 93.4347 135.501 93.456C135.352 93.4773 135.203 93.504 135.053 93.536C134.904 93.568 134.755 93.6 134.605 93.632C134.456 93.664 134.307 93.7067 134.157 93.76C134.019 93.8133 133.885 93.872 133.757 93.936C133.629 94 133.507 94.0747 133.389 94.16C133.283 94.2453 133.187 94.3413 133.101 94.448C133.016 94.5547 132.936 94.6773 132.861 94.816C132.797 94.9547 132.749 95.1093 132.717 95.28C132.685 95.44 132.669 95.6213 132.669 95.824C132.669 96.592 132.915 97.1733 133.405 97.568C133.907 97.9627 134.52 98.16 135.245 98.16C135.843 98.16 136.371 98.032 136.829 97.776C137.299 97.5093 137.656 97.1413 137.901 96.672L138.365 98H140.301ZM134.637 95.6C134.637 95.4827 134.653 95.376 134.685 95.28C134.717 95.1733 134.765 95.0827 134.829 95.008C134.893 94.9227 134.963 94.848 135.037 94.784C135.123 94.72 135.219 94.6613 135.325 94.608C135.432 94.5547 135.544 94.5067 135.661 94.464C135.779 94.4213 135.901 94.3787 136.029 94.336C136.157 94.2933 136.285 94.256 136.413 94.224C136.541 94.1813 136.669 94.144 136.797 94.112C136.936 94.0693 137.069 94.0267 137.197 93.984C137.325 93.9307 137.448 93.8773 137.565 93.824C137.683 93.7707 137.795 93.712 137.901 93.648V94.656C137.901 95.3173 137.704 95.824 137.309 96.176C136.925 96.528 136.488 96.704 135.997 96.704C135.571 96.704 135.235 96.6187 134.989 96.448C134.755 96.2667 134.637 95.984 134.637 95.6ZM143.374 94C143.374 93.1147 143.555 92.4533 143.918 92.016C144.281 91.568 144.75 91.344 145.326 91.344C145.849 91.344 146.254 91.504 146.542 91.824C146.841 92.144 147.011 92.5813 147.054 93.136H149.038C148.974 92.0907 148.617 91.2747 147.966 90.688C147.315 90.1013 146.435 89.808 145.326 89.808C144.995 89.808 144.681 89.84 144.382 89.904C144.083 89.9573 143.801 90.0427 143.534 90.16C143.278 90.2667 143.038 90.4053 142.814 90.576C142.59 90.7467 142.387 90.9493 142.206 91.184C142.035 91.408 141.886 91.664 141.758 91.952C141.641 92.24 141.55 92.5547 141.486 92.896C141.422 93.2373 141.39 93.6053 141.39 94C141.39 94.3947 141.422 94.7627 141.486 95.104C141.55 95.4453 141.641 95.76 141.758 96.048C141.886 96.336 142.035 96.5973 142.206 96.832C142.387 97.056 142.59 97.2533 142.814 97.424C143.038 97.5947 143.278 97.7387 143.534 97.856C143.801 97.9627 144.083 98.0427 144.382 98.096C144.681 98.16 144.995 98.192 145.326 98.192C146.435 98.192 147.315 97.8987 147.966 97.312C148.617 96.7253 148.974 95.9093 149.038 94.864H147.054C147.011 95.4187 146.841 95.856 146.542 96.176C146.254 96.496 145.849 96.656 145.326 96.656C144.75 96.656 144.281 96.4373 143.918 96C143.555 95.552 143.374 94.8853 143.374 94ZM154.558 92.784C154.344 93.392 154.158 93.9413 153.998 94.432C153.838 94.912 153.699 95.408 153.582 95.92C153.454 95.408 153.31 94.912 153.15 94.432C153 93.9413 152.819 93.392 152.606 92.784L151.614 90H149.63L152.638 97.856L152.334 98.672C152.184 99.088 152.019 99.3547 151.838 99.472C151.656 99.6 151.4 99.664 151.07 99.664H150.302V101.2H151.342C151.512 101.2 151.672 101.195 151.822 101.184C151.971 101.173 152.11 101.152 152.238 101.12C152.376 101.099 152.504 101.061 152.622 101.008C152.739 100.965 152.846 100.907 152.942 100.832C153.048 100.757 153.15 100.661 153.246 100.544C153.342 100.437 153.432 100.309 153.518 100.16C153.614 100.021 153.704 99.856 153.79 99.664C153.886 99.4827 153.976 99.2747 154.062 99.04L157.534 90H155.55L154.558 92.784ZM163.582 90H161.742V98H163.662V93.28C163.662 92.6613 163.801 92.192 164.078 91.872C164.356 91.552 164.724 91.392 165.182 91.392C165.609 91.392 165.94 91.5253 166.174 91.792C166.42 92.0587 166.542 92.4747 166.542 93.04V98H168.462V93.28C168.462 92.6613 168.596 92.192 168.862 91.872C169.14 91.552 169.508 91.392 169.966 91.392C170.404 91.392 170.74 91.5253 170.974 91.792C171.209 92.0587 171.326 92.4747 171.326 93.04V98H173.246V92.768C173.246 91.7547 173.012 91.008 172.542 90.528C172.084 90.048 171.486 89.808 170.75 89.808C170.185 89.808 169.684 89.9413 169.246 90.208C168.82 90.4747 168.489 90.864 168.254 91.376C168.084 90.8427 167.801 90.448 167.406 90.192C167.012 89.936 166.542 89.808 165.998 89.808C165.454 89.808 164.969 89.936 164.542 90.192C164.126 90.448 163.806 90.8213 163.582 91.312V90ZM182.38 98C182.326 97.8827 182.278 97.776 182.236 97.68C182.193 97.5733 182.156 97.4827 182.124 97.408C182.102 97.3227 182.076 97.2427 182.044 97.168C182.022 97.0933 182.001 97.024 181.98 96.96C181.969 96.896 181.958 96.832 181.948 96.768C181.937 96.6933 181.926 96.624 181.916 96.56C181.916 96.4853 181.91 96.4107 181.9 96.336C181.9 96.2507 181.9 96.1653 181.9 96.08C181.9 95.984 181.9 95.8773 181.9 95.76V92.352C181.9 91.52 181.59 90.8907 180.972 90.464C180.364 90.0267 179.532 89.808 178.476 89.808C177.409 89.808 176.566 90.016 175.948 90.432C175.34 90.848 175.036 91.472 175.036 92.304H176.972C176.982 91.9733 177.121 91.7227 177.388 91.552C177.654 91.3813 178.017 91.296 178.476 91.296C178.956 91.296 179.324 91.3813 179.58 91.552C179.846 91.712 179.98 91.968 179.98 92.32C179.98 92.4267 179.964 92.528 179.932 92.624C179.9 92.7093 179.846 92.784 179.772 92.848C179.708 92.912 179.633 92.9707 179.548 93.024C179.462 93.0773 179.361 93.1253 179.244 93.168C179.137 93.2 179.02 93.232 178.891 93.264C178.764 93.2853 178.625 93.3067 178.476 93.328C178.337 93.3493 178.193 93.3707 178.044 93.392C177.894 93.4133 177.74 93.4347 177.58 93.456C177.43 93.4773 177.281 93.504 177.132 93.536C176.982 93.568 176.833 93.6 176.684 93.632C176.534 93.664 176.385 93.7067 176.236 93.76C176.097 93.8133 175.964 93.872 175.836 93.936C175.708 94 175.585 94.0747 175.468 94.16C175.361 94.2453 175.265 94.3413 175.18 94.448C175.094 94.5547 175.014 94.6773 174.94 94.816C174.876 94.9547 174.828 95.1093 174.796 95.28C174.764 95.44 174.748 95.6213 174.748 95.824C174.748 96.592 174.993 97.1733 175.484 97.568C175.985 97.9627 176.598 98.16 177.324 98.16C177.921 98.16 178.449 98.032 178.908 97.776C179.377 97.5093 179.734 97.1413 179.98 96.672L180.444 98H182.38ZM176.716 95.6C176.716 95.4827 176.732 95.376 176.764 95.28C176.796 95.1733 176.844 95.0827 176.908 95.008C176.972 94.9227 177.041 94.848 177.116 94.784C177.201 94.72 177.297 94.6613 177.404 94.608C177.51 94.5547 177.622 94.5067 177.74 94.464C177.857 94.4213 177.98 94.3787 178.108 94.336C178.236 94.2933 178.364 94.256 178.492 94.224C178.62 94.1813 178.748 94.144 178.876 94.112C179.014 94.0693 179.148 94.0267 179.276 93.984C179.404 93.9307 179.526 93.8773 179.644 93.824C179.761 93.7707 179.873 93.712 179.98 93.648V94.656C179.98 95.3173 179.782 95.824 179.388 96.176C179.004 96.528 178.566 96.704 178.076 96.704C177.649 96.704 177.313 96.6187 177.068 96.448C176.833 96.2667 176.716 95.984 176.716 95.6ZM186.205 95.328V91.536H188.205V90H186.205V87.92H184.301V90H183.053V91.536H184.301V95.68C184.301 96.544 184.498 97.1467 184.893 97.488C185.298 97.8293 185.874 98 186.621 98H188.205V96.464H187.245C186.893 96.464 186.631 96.384 186.461 96.224C186.29 96.0533 186.205 95.7547 186.205 95.328ZM192.001 95.328V91.536H194.001V90H192.001V87.92H190.097V90H188.849V91.536H190.097V95.68C190.097 96.544 190.295 97.1467 190.689 97.488C191.095 97.8293 191.671 98 192.417 98H194.001V96.464H193.041C192.689 96.464 192.428 96.384 192.257 96.224C192.087 96.0533 192.001 95.7547 192.001 95.328ZM202.63 95.568H200.662C200.588 95.8987 200.412 96.1707 200.134 96.384C199.868 96.5973 199.484 96.704 198.982 96.704C198.406 96.704 197.932 96.5227 197.558 96.16C197.185 95.7973 196.982 95.2533 196.95 94.528H202.758C202.769 94.4427 202.774 94.3573 202.774 94.272C202.774 94.1867 202.774 94.096 202.774 94C202.774 93.648 202.748 93.3227 202.694 93.024C202.652 92.7147 202.582 92.432 202.486 92.176C202.39 91.9093 202.273 91.6693 202.134 91.456C202.006 91.232 201.857 91.0347 201.686 90.864C201.526 90.6827 201.345 90.528 201.142 90.4C200.94 90.272 200.721 90.1653 200.486 90.08C200.262 89.984 200.022 89.9147 199.766 89.872C199.521 89.8293 199.26 89.808 198.982 89.808C198.652 89.808 198.337 89.84 198.038 89.904C197.74 89.9573 197.457 90.0427 197.19 90.16C196.934 90.2667 196.694 90.4053 196.47 90.576C196.246 90.7467 196.044 90.9493 195.862 91.184C195.692 91.408 195.542 91.664 195.414 91.952C195.297 92.2293 195.206 92.5387 195.142 92.88C195.078 93.2213 195.046 93.5947 195.046 94C195.046 94.4053 195.078 94.7787 195.142 95.12C195.206 95.4613 195.297 95.776 195.414 96.064C195.542 96.3413 195.692 96.5973 195.862 96.832C196.044 97.056 196.246 97.2533 196.47 97.424C196.694 97.5947 196.934 97.7387 197.19 97.856C197.457 97.9627 197.74 98.0427 198.038 98.096C198.337 98.16 198.652 98.192 198.982 98.192C199.974 98.192 200.801 97.9573 201.462 97.488C202.134 97.008 202.524 96.368 202.63 95.568ZM198.982 91.296C199.494 91.296 199.916 91.456 200.246 91.776C200.588 92.0853 200.79 92.5547 200.854 93.184H196.982C197.057 92.5547 197.27 92.0853 197.622 91.776C197.985 91.456 198.438 91.296 198.982 91.296ZM208.51 91.68C208.649 91.68 208.771 91.6907 208.878 91.712C208.995 91.7227 209.097 91.7387 209.182 91.76V90C209.097 89.9787 209.001 89.9627 208.894 89.952C208.798 89.9307 208.686 89.92 208.558 89.92C208.003 89.92 207.518 90.08 207.102 90.4C206.686 90.7093 206.382 91.1947 206.19 91.856V90H204.43V98H206.35V93.904C206.35 93.1467 206.547 92.5867 206.942 92.224C207.347 91.8613 207.87 91.68 208.51 91.68ZM210.222 92.224C210.222 92.416 210.238 92.592 210.27 92.752C210.302 92.912 210.345 93.0613 210.398 93.2C210.462 93.328 210.531 93.4453 210.606 93.552C210.691 93.6587 210.782 93.7547 210.878 93.84C210.985 93.9253 211.097 94.0053 211.214 94.08C211.331 94.144 211.454 94.208 211.582 94.272C211.71 94.3253 211.838 94.3733 211.966 94.416C212.105 94.4587 212.243 94.5013 212.382 94.544C212.521 94.576 212.659 94.608 212.798 94.64C212.937 94.6613 213.07 94.688 213.198 94.72C213.337 94.7413 213.47 94.768 213.598 94.8C213.726 94.8213 213.849 94.8533 213.966 94.896C214.083 94.928 214.19 94.9653 214.286 95.008C214.393 95.04 214.483 95.0827 214.558 95.136C214.643 95.1787 214.713 95.232 214.766 95.296C214.83 95.36 214.878 95.4347 214.91 95.52C214.942 95.5947 214.958 95.68 214.958 95.776C214.958 96.0747 214.825 96.3093 214.558 96.48C214.291 96.6507 213.945 96.736 213.518 96.736C213.006 96.736 212.601 96.6293 212.302 96.416C212.014 96.2027 211.854 95.92 211.822 95.568H209.982C209.993 96.3573 210.318 96.992 210.958 97.472C211.598 97.952 212.451 98.192 213.518 98.192C214.478 98.192 215.257 97.9787 215.854 97.552C216.462 97.1253 216.766 96.5013 216.766 95.68C216.766 95.488 216.75 95.312 216.718 95.152C216.686 94.992 216.638 94.848 216.574 94.72C216.521 94.592 216.451 94.4747 216.366 94.368C216.291 94.2507 216.201 94.1493 216.094 94.064C215.998 93.9787 215.891 93.904 215.774 93.84C215.667 93.7653 215.55 93.7013 215.422 93.648C215.294 93.584 215.161 93.5307 215.022 93.488C214.894 93.4453 214.761 93.408 214.622 93.376C214.483 93.3333 214.339 93.3013 214.19 93.28C214.051 93.248 213.913 93.2213 213.774 93.2C213.646 93.168 213.518 93.136 213.39 93.104C213.262 93.072 213.139 93.04 213.022 93.008C212.915 92.976 212.809 92.944 212.702 92.912C212.606 92.8693 212.515 92.8267 212.43 92.784C212.355 92.7307 212.286 92.672 212.222 92.608C212.169 92.544 212.126 92.4747 212.094 92.4C212.062 92.3147 212.046 92.224 212.046 92.128C212.046 91.8613 212.163 91.6533 212.398 91.504C212.633 91.344 212.937 91.264 213.31 91.264C213.758 91.264 214.11 91.36 214.366 91.552C214.622 91.7333 214.761 91.984 214.782 92.304H216.622C216.611 91.568 216.318 90.9707 215.742 90.512C215.177 90.0427 214.366 89.808 213.31 89.808C212.382 89.808 211.635 90.0213 211.07 90.448C210.505 90.864 210.222 91.456 210.222 92.224Z" fill="white"/>
<path d="M68 119H265" stroke="white" stroke-opacity="0.3" stroke-width="6" stroke-linecap="round" stroke-linejoin="round"/>
<path d="M68 135H280" stroke="white" stroke-opacity="0.3" stroke-width="6" stroke-linecap="round" stroke-linejoin="round"/>
<path d="M68 151H280" stroke="white" stroke-opacity="0.3" stroke-width="6" stroke-linecap="round" stroke-linejoin="round"/>
<path d="M68 167H280" stroke="white" stroke-opacity="0.3" stroke-width="6" stroke-linecap="round" stroke-linejoin="round"/>
<path d="M68 184L265.139 183" stroke="white" stroke-opacity="0.3" stroke-width="6" stroke-linecap="round" stroke-linejoin="round"/>
</g>
<g filter="url(#filter1_d_684_120129)">
<rect x="210" y="156" width="175" height="222" rx="8" fill="#101614" shape-rendering="crispEdges"/>
<rect x="226" y="172" width="143" height="40" rx="20" fill="#1679B7"/>
<path d="M275.684 196H277.208L273.992 187.6H272.36L269.144 196H270.668L271.376 194.08H274.976L275.684 196ZM271.952 192.508C272.492 191.056 272.888 189.916 273.176 188.824C273.464 189.916 273.872 191.056 274.4 192.508L274.52 192.82H271.832L271.952 192.508ZM279.288 193C279.288 191.668 279.876 191.008 280.752 191.008C281.532 191.008 281.988 191.512 282.048 192.352H283.536C283.44 190.78 282.42 189.856 280.752 189.856C279.036 189.856 277.8 190.912 277.8 193C277.8 195.088 279.036 196.144 280.752 196.144C282.42 196.144 283.44 195.22 283.536 193.648H282.048C281.988 194.488 281.532 194.992 280.752 194.992C279.876 194.992 279.288 194.332 279.288 193ZM285.933 193C285.933 191.668 286.521 191.008 287.397 191.008C288.177 191.008 288.633 191.512 288.693 192.352H290.181C290.085 190.78 289.065 189.856 287.397 189.856C285.681 189.856 284.445 190.912 284.445 193C284.445 195.088 285.681 196.144 287.397 196.144C289.065 196.144 290.085 195.22 290.181 193.648H288.693C288.633 194.488 288.177 194.992 287.397 194.992C286.521 194.992 285.933 194.332 285.933 193ZM296.777 194.176H295.301C295.181 194.668 294.797 195.028 294.041 195.028C293.165 195.028 292.565 194.488 292.517 193.396H296.873C296.885 193.264 296.885 193.144 296.885 193C296.885 190.912 295.673 189.856 294.041 189.856C292.325 189.856 291.089 190.9 291.089 193C291.089 195.1 292.325 196.144 294.041 196.144C295.529 196.144 296.609 195.388 296.777 194.176ZM294.041 190.972C294.809 190.972 295.349 191.44 295.445 192.388H292.541C292.649 191.44 293.225 190.972 294.041 190.972ZM301.607 196.144C303.023 196.144 304.031 195.076 304.031 193C304.031 190.924 303.023 189.856 301.607 189.856C300.683 189.856 299.915 190.312 299.507 191.224V190H298.127V198.4H299.567V194.908C299.987 195.724 300.719 196.144 301.607 196.144ZM301.055 194.992C300.143 194.992 299.567 194.332 299.567 193C299.567 191.668 300.143 191.008 301.055 191.008C301.967 191.008 302.543 191.668 302.543 193C302.543 194.332 301.967 194.992 301.055 194.992ZM307.075 193.996V191.152H308.575V190H307.075V188.44H305.647V190H304.711V191.152H305.647V194.26C305.647 195.556 306.259 196 307.387 196H308.575V194.848H307.855C307.327 194.848 307.075 194.644 307.075 193.996ZM317.848 196H319.372L316.156 187.6H314.524L311.308 196H312.832L313.54 194.08H317.14L317.848 196ZM314.116 192.508C314.656 191.056 315.052 189.916 315.34 188.824C315.628 189.916 316.036 191.056 316.564 192.508L316.684 192.82H313.996L314.116 192.508ZM321.716 187.6H320.276V196H321.716V187.6ZM324.669 187.6H323.229V196H324.669V187.6Z" fill="white"/>
<path d="M277.324 246C277.06 245.676 276.964 245.22 276.964 244.5V243.588C276.964 242.436 276.424 241.836 275.452 241.704C276.448 241.464 277.084 240.864 277.084 239.784C277.084 238.368 275.896 237.6 274.096 237.6H270.364V246H271.84V242.652H274.396C275.164 242.652 275.476 243.036 275.476 243.816V245.1C275.476 245.472 275.524 245.784 275.668 246H277.324ZM273.976 238.848C274.984 238.848 275.536 239.232 275.536 240.132C275.536 241.02 274.984 241.416 273.976 241.416H271.84V238.848H273.976ZM284 244.176H282.524C282.404 244.668 282.02 245.028 281.264 245.028C280.388 245.028 279.788 244.488 279.74 243.396H284.096C284.108 243.264 284.108 243.144 284.108 243C284.108 240.912 282.896 239.856 281.264 239.856C279.548 239.856 278.312 240.9 278.312 243C278.312 245.1 279.548 246.144 281.264 246.144C282.752 246.144 283.832 245.388 284 244.176ZM281.264 240.972C282.032 240.972 282.572 241.44 282.668 242.388H279.764C279.872 241.44 280.448 240.972 281.264 240.972ZM284.762 241.152H285.698V246H287.126V241.152H288.626V240H287.126V239.556C287.126 238.932 287.378 238.728 287.906 238.728H288.746V237.6H287.486C286.334 237.6 285.698 238.068 285.698 239.412V240H284.762V241.152ZM289.626 243.876C289.626 245.424 290.418 246.144 291.582 246.144C292.446 246.144 293.13 245.748 293.478 244.992V246H294.87V240H293.43V243.492C293.43 244.464 292.938 244.956 292.194 244.956C291.474 244.956 291.066 244.548 291.066 243.672V240H289.626V243.876ZM296.209 241.668C296.209 244.092 299.761 243.072 299.761 244.332C299.761 244.776 299.329 245.052 298.681 245.052C297.913 245.052 297.457 244.704 297.409 244.176H296.029C296.053 245.364 297.073 246.144 298.681 246.144C300.121 246.144 301.117 245.496 301.117 244.26C301.117 241.848 297.577 242.844 297.577 241.596C297.577 241.2 297.961 240.948 298.525 240.948C299.197 240.948 299.593 241.248 299.629 241.728H301.009C300.997 240.624 300.109 239.856 298.525 239.856C297.133 239.856 296.209 240.516 296.209 241.668ZM307.707 244.176H306.231C306.111 244.668 305.727 245.028 304.971 245.028C304.095 245.028 303.495 244.488 303.447 243.396H307.803C307.815 243.264 307.815 243.144 307.815 243C307.815 240.912 306.603 239.856 304.971 239.856C303.255 239.856 302.019 240.9 302.019 243C302.019 245.1 303.255 246.144 304.971 246.144C306.459 246.144 307.539 245.388 307.707 244.176ZM304.971 240.972C305.739 240.972 306.279 241.44 306.375 242.388H303.471C303.579 241.44 304.155 240.972 304.971 240.972ZM317.27 246H318.794L315.578 237.6H313.946L310.73 246H312.254L312.962 244.08H316.562L317.27 246ZM313.538 242.508C314.078 241.056 314.474 239.916 314.762 238.824C315.05 239.916 315.458 241.056 315.986 242.508L316.106 242.82H313.418L313.538 242.508ZM321.137 237.6H319.697V246H321.137V237.6ZM324.091 237.6H322.651V246H324.091V237.6Z" fill="white"/>
<rect x="227" y="223" width="141" height="38" rx="19" stroke="#1679B7" stroke-width="2"/>
<path d="M253.364 296H254.84V293.336H256.928C258.848 293.336 260.168 292.412 260.168 290.468C260.168 288.524 258.848 287.6 256.928 287.6H253.364V296ZM256.76 288.848C257.948 288.848 258.644 289.256 258.644 290.468C258.644 291.668 257.948 292.088 256.76 292.088H254.84V288.848H256.76ZM264.461 291.26C264.677 291.26 264.833 291.284 264.965 291.32V290C264.833 289.964 264.689 289.94 264.497 289.94C263.657 289.94 263.009 290.396 262.721 291.392V290H261.401V296H262.841V292.928C262.841 291.788 263.489 291.26 264.461 291.26ZM267.434 287.6H265.994V288.944H267.434V287.6ZM267.434 290H265.994V296H267.434V290ZM270.627 296H271.971L274.263 290H272.775L272.031 292.088C271.707 293 271.479 293.672 271.299 294.44C271.107 293.672 270.891 293 270.567 292.088L269.823 290H268.335L270.627 296ZM280.441 296C280.093 295.196 280.081 295.088 280.081 294.32V291.764C280.081 290.504 279.109 289.856 277.513 289.856C275.905 289.856 274.933 290.48 274.933 291.728H276.385C276.397 291.224 276.829 290.972 277.513 290.972C278.233 290.972 278.641 291.212 278.641 291.74C278.641 293.156 274.717 291.8 274.717 294.368C274.717 295.52 275.557 296.12 276.649 296.12C277.549 296.12 278.269 295.712 278.641 295.004L278.989 296H280.441ZM276.193 294.2C276.193 293.204 277.777 293.276 278.641 292.736V293.492C278.641 294.488 277.945 295.028 277.213 295.028C276.565 295.028 276.193 294.776 276.193 294.2ZM282.745 293C282.745 291.668 283.333 291.008 284.209 291.008C284.989 291.008 285.445 291.512 285.505 292.352H286.993C286.897 290.78 285.877 289.856 284.209 289.856C282.493 289.856 281.257 290.912 281.257 293C281.257 295.088 282.493 296.144 284.209 296.144C285.877 296.144 286.897 295.22 286.993 293.648H285.505C285.445 294.488 284.989 294.992 284.209 294.992C283.333 294.992 282.745 294.332 282.745 293ZM291.133 292.088C290.809 293 290.581 293.672 290.401 294.44C290.209 293.672 289.993 293 289.669 292.088L288.925 290H287.437L289.693 295.892L289.465 296.504C289.237 297.128 289.009 297.248 288.517 297.248H287.941V298.4H288.721C289.741 298.4 290.233 298.196 290.761 296.78L293.365 290H291.877L291.133 292.088ZM296.57 289.916C296.57 293.264 301.562 291.644 301.562 293.648C301.562 294.416 300.878 294.92 299.834 294.92C298.61 294.92 297.878 294.32 297.794 293.42H296.294C296.33 295.04 297.722 296.144 299.834 296.144C301.67 296.144 303.05 295.244 303.05 293.564C303.05 290.216 298.046 291.848 298.046 289.844C298.046 289.148 298.658 288.68 299.594 288.68C300.674 288.68 301.298 289.196 301.382 290.024H302.882C302.846 288.512 301.622 287.456 299.594 287.456C297.806 287.456 296.57 288.356 296.57 289.916ZM309.75 294.176H308.274C308.154 294.668 307.77 295.028 307.014 295.028C306.138 295.028 305.538 294.488 305.49 293.396H309.846C309.858 293.264 309.858 293.144 309.858 293C309.858 290.912 308.646 289.856 307.014 289.856C305.298 289.856 304.062 290.9 304.062 293C304.062 295.1 305.298 296.144 307.014 296.144C308.502 296.144 309.582 295.388 309.75 294.176ZM307.014 290.972C307.782 290.972 308.322 291.44 308.418 292.388H305.514C305.622 291.44 306.198 290.972 307.014 290.972ZM312.876 293.996V291.152H314.376V290H312.876V288.44H311.448V290H310.512V291.152H311.448V294.26C311.448 295.556 312.06 296 313.188 296H314.376V294.848H313.656C313.128 294.848 312.876 294.644 312.876 293.996ZM317.224 293.996V291.152H318.724V290H317.224V288.44H315.796V290H314.86V291.152H315.796V294.26C315.796 295.556 316.408 296 317.536 296H318.724V294.848H318.004C317.476 294.848 317.224 294.644 317.224 293.996ZM321.223 287.6H319.783V288.944H321.223V287.6ZM321.223 290H319.783V296H321.223V290ZM324.116 290H322.736V296H324.176V292.556C324.176 291.548 324.68 291.044 325.472 291.044C326.216 291.044 326.648 291.452 326.648 292.376V296H328.088V292.172C328.088 290.588 327.272 289.856 326.084 289.856C325.184 289.856 324.476 290.276 324.116 291.08V290ZM331.729 295.616C332.617 295.616 333.349 295.22 333.769 294.464V295.928C333.769 296.852 333.265 297.416 332.257 297.416C331.249 297.416 330.769 296.828 330.769 296H329.329C329.329 297.56 330.481 298.544 332.257 298.544C334.045 298.544 335.209 297.596 335.209 295.928V290H333.817V291.104C333.397 290.288 332.653 289.856 331.729 289.856C330.313 289.856 329.293 290.876 329.293 292.736C329.293 294.596 330.313 295.616 331.729 295.616ZM332.281 294.512C331.357 294.512 330.781 293.924 330.781 292.736C330.781 291.548 331.357 290.96 332.281 290.96C333.193 290.96 333.769 291.548 333.769 292.736C333.769 293.924 333.193 294.512 332.281 294.512ZM336.561 291.668C336.561 294.092 340.113 293.072 340.113 294.332C340.113 294.776 339.681 295.052 339.033 295.052C338.265 295.052 337.809 294.704 337.761 294.176H336.381C336.405 295.364 337.425 296.144 339.033 296.144C340.473 296.144 341.469 295.496 341.469 294.26C341.469 291.848 337.929 292.844 337.929 291.596C337.929 291.2 338.313 290.948 338.877 290.948C339.549 290.948 339.945 291.248 339.981 291.728H341.361C341.349 290.624 340.461 289.856 338.877 289.856C337.485 289.856 336.561 290.516 336.561 291.668Z" fill="white"/>
<rect x="227" y="273" width="141" height="38" rx="19" stroke="#1679B7" stroke-width="2"/>
<path d="M262.112 344.728H257.84V337.6H256.364V346H262.112V344.728ZM264.505 337.6H263.065V338.944H264.505V337.6ZM264.505 340H263.065V346H264.505V340ZM265.862 341.668C265.862 344.092 269.414 343.072 269.414 344.332C269.414 344.776 268.982 345.052 268.334 345.052C267.566 345.052 267.11 344.704 267.062 344.176H265.682C265.706 345.364 266.726 346.144 268.334 346.144C269.774 346.144 270.77 345.496 270.77 344.26C270.77 341.848 267.23 342.844 267.23 341.596C267.23 341.2 267.614 340.948 268.178 340.948C268.85 340.948 269.246 341.248 269.282 341.728H270.662C270.65 340.624 269.762 339.856 268.178 339.856C266.786 339.856 265.862 340.516 265.862 341.668ZM273.724 343.996V341.152H275.224V340H273.724V338.44H272.296V340H271.36V341.152H272.296V344.26C272.296 345.556 272.908 346 274.036 346H275.224V344.848H274.504C273.976 344.848 273.724 344.644 273.724 343.996ZM281.455 346.144C283.183 346.144 284.407 345.088 284.407 343C284.407 340.912 283.183 339.856 281.455 339.856C279.727 339.856 278.503 340.912 278.503 343C278.503 345.088 279.727 346.144 281.455 346.144ZM281.455 344.992C280.567 344.992 279.991 344.332 279.991 343C279.991 341.668 280.567 341.008 281.455 341.008C282.343 341.008 282.919 341.668 282.919 343C282.919 344.332 282.343 344.992 281.455 344.992ZM285.059 341.152H285.995V346H287.423V341.152H288.923V340H287.423V339.556C287.423 338.932 287.675 338.728 288.203 338.728H289.043V337.6H287.783C286.631 337.6 285.995 338.068 285.995 339.412V340H285.059V341.152ZM292.563 346H294.039V343.336H296.127C298.047 343.336 299.367 342.412 299.367 340.468C299.367 338.524 298.047 337.6 296.127 337.6H292.563V346ZM295.959 338.848C297.147 338.848 297.843 339.256 297.843 340.468C297.843 341.668 297.147 342.088 295.959 342.088H294.039V338.848H295.959ZM305.976 346C305.628 345.196 305.616 345.088 305.616 344.32V341.764C305.616 340.504 304.644 339.856 303.048 339.856C301.44 339.856 300.468 340.48 300.468 341.728H301.92C301.932 341.224 302.364 340.972 303.048 340.972C303.768 340.972 304.176 341.212 304.176 341.74C304.176 343.156 300.252 341.8 300.252 344.368C300.252 345.52 301.092 346.12 302.184 346.12C303.084 346.12 303.804 345.712 304.176 345.004L304.524 346H305.976ZM301.728 344.2C301.728 343.204 303.312 343.276 304.176 342.736V343.492C304.176 344.488 303.48 345.028 302.748 345.028C302.1 345.028 301.728 344.776 301.728 344.2ZM310.129 341.26C310.345 341.26 310.501 341.284 310.633 341.32V340C310.501 339.964 310.357 339.94 310.165 339.94C309.325 339.94 308.677 340.396 308.389 341.392V340H307.069V346H308.509V342.928C308.509 341.788 309.157 341.26 310.129 341.26ZM313.45 343.996V341.152H314.95V340H313.45V338.44H312.022V340H311.086V341.152H312.022V344.26C312.022 345.556 312.634 346 313.762 346H314.95V344.848H314.23C313.702 344.848 313.45 344.644 313.45 343.996ZM317.39 340H316.01V346H317.45V342.556C317.45 341.548 317.954 341.044 318.746 341.044C319.49 341.044 319.922 341.452 319.922 342.376V346H321.362V342.172C321.362 340.588 320.546 339.856 319.358 339.856C318.458 339.856 317.75 340.276 317.39 341.08V340ZM328.23 344.176H326.755C326.635 344.668 326.251 345.028 325.495 345.028C324.619 345.028 324.019 344.488 323.971 343.396H328.327C328.339 343.264 328.339 343.144 328.339 343C328.339 340.912 327.127 339.856 325.495 339.856C323.779 339.856 322.543 340.9 322.543 343C322.543 345.1 323.779 346.144 325.495 346.144C326.983 346.144 328.062 345.388 328.23 344.176ZM325.495 340.972C326.263 340.972 326.803 341.44 326.899 342.388H323.995C324.103 341.44 324.679 340.972 325.495 340.972ZM332.64 341.26C332.856 341.26 333.012 341.284 333.144 341.32V340C333.012 339.964 332.868 339.94 332.676 339.94C331.836 339.94 331.188 340.396 330.9 341.392V340H329.58V346H331.02V342.928C331.02 341.788 331.668 341.26 332.64 341.26ZM333.924 341.668C333.924 344.092 337.476 343.072 337.476 344.332C337.476 344.776 337.044 345.052 336.396 345.052C335.628 345.052 335.172 344.704 335.124 344.176H333.744C333.768 345.364 334.788 346.144 336.396 346.144C337.836 346.144 338.832 345.496 338.832 344.26C338.832 341.848 335.292 342.844 335.292 341.596C335.292 341.2 335.676 340.948 336.24 340.948C336.912 340.948 337.308 341.248 337.344 341.728H338.724C338.712 340.624 337.824 339.856 336.24 339.856C334.848 339.856 333.924 340.516 333.924 341.668Z" fill="white"/>
<rect x="227" y="323" width="141" height="38" rx="19" stroke="#1679B7" stroke-width="2"/>
</g>
</g>
<defs>
<filter id="filter0_d_684_120129" x="-18" y="-2" width="406" height="264" filterUnits="userSpaceOnUse" color-interpolation-filters="sRGB">
<feFlood flood-opacity="0" result="BackgroundImageFix"/>
<feColorMatrix in="SourceAlpha" type="matrix" values="0 0 0 0 0 0 0 0 0 0 0 0 0 0 0 0 0 0 127 0" result="hardAlpha"/>
<feOffset dy="16"/>
<feGaussianBlur stdDeviation="20"/>
<feComposite in2="hardAlpha" operator="out"/>
<feColorMatrix type="matrix" values="0 0 0 0 0 0 0 0 0 0 0 0 0 0 0 0 0 0 0.08 0"/>
<feBlend mode="normal" in2="BackgroundImageFix" result="effect1_dropShadow_684_120129"/>
<feBlend mode="normal" in="SourceGraphic" in2="effect1_dropShadow_684_120129" result="shape"/>
</filter>
<filter id="filter1_d_684_120129" x="170" y="132" width="255" height="302" filterUnits="userSpaceOnUse" color-interpolation-filters="sRGB">
<feFlood flood-opacity="0" result="BackgroundImageFix"/>
<feColorMatrix in="SourceAlpha" type="matrix" values="0 0 0 0 0 0 0 0 0 0 0 0 0 0 0 0 0 0 127 0" result="hardAlpha"/>
<feOffset dy="16"/>
<feGaussianBlur stdDeviation="20"/>
<feComposite in2="hardAlpha" operator="out"/>
<feColorMatrix type="matrix" values="0 0 0 0 0 0 0 0 0 0 0 0 0 0 0 0 0 0 0.08 0"/>
<feBlend mode="normal" in2="BackgroundImageFix" result="effect1_dropShadow_684_120129"/>
<feBlend mode="normal" in="SourceGraphic" in2="effect1_dropShadow_684_120129" result="shape"/>
</filter>
<clipPath id="clip0_684_120129">
<rect width="405" height="400" fill="white"/>
</clipPath>
<clipPath id="clip1_684_120129">
<rect width="121" height="29" fill="white" transform="translate(68 38)"/>
</clipPath>
</defs>
</svg>
