<svg width="405" height="400" viewBox="0 0 405 400" fill="none" xmlns="http://www.w3.org/2000/svg">
<g clip-path="url(#clip0_684_120381)">
<rect width="405" height="400" fill="white"/>
<rect width="405" height="400" fill="#559E5E"/>
<rect x="32" y="28" width="341" height="343" fill="#4E935B"/>
<rect x="64" y="56" width="277" height="287" fill="#458653"/>
<rect x="96" y="84" width="213" height="227" fill="#3B744D"/>
<path d="M57 335.831C57 347.981 66.8497 357.831 79 357.831L210.591 357.831C222.741 357.831 232.591 347.981 232.591 335.831L232.591 44C232.591 31.8497 222.741 22 210.591 22L79 22C66.8497 22 57 31.8497 57 44L57 335.831Z" fill="#686868" stroke="black" stroke-width="4"/>
<path d="M246.615 356L149.35 252.25L59.8652 158.875L59.8652 356L246.615 356Z" fill="#E6E6E6" fill-opacity="0.06"/>
<rect x="123.096" y="33.3474" width="43.3984" height="2.67067" rx="1.33534" fill="black"/>
<g filter="url(#filter0_d_684_120381)">
<rect x="83" y="55" width="272" height="331" rx="8" fill="white" shape-rendering="crispEdges"/>
<path d="M105.56 83H107L109.576 76.36C110.168 74.84 110.472 74.056 110.776 73.048C110.712 74.168 110.68 75.352 110.68 76.664V83H112.28V71.8H109.64L107.672 76.984C106.872 79.08 106.52 80.184 106.28 81.064C106.04 80.184 105.688 79.08 104.888 76.984L102.92 71.8H100.28V83H101.88V76.664C101.88 75.352 101.848 74.168 101.784 73.048C102.088 74.056 102.392 74.84 102.984 76.36L105.56 83ZM121.579 83C121.115 81.928 121.099 81.784 121.099 80.76V77.304C121.099 75.672 119.851 74.84 117.819 74.84C115.787 74.84 114.523 75.64 114.523 77.24H116.139C116.171 76.52 116.811 76.152 117.819 76.152C118.891 76.152 119.499 76.52 119.499 77.304C119.499 79.352 114.203 77.4 114.203 80.84C114.203 82.376 115.371 83.16 116.779 83.16C117.995 83.16 118.939 82.632 119.435 81.672L119.899 83H121.579ZM115.867 80.664C115.867 79.144 118.283 79.352 119.499 78.584V79.64C119.499 81.08 118.475 81.88 117.403 81.88C116.427 81.88 115.867 81.512 115.867 80.664ZM124.829 75H123.261V83H124.861V78.392C124.861 76.904 125.613 76.152 126.781 76.152C127.901 76.152 128.541 76.776 128.541 78.152V83H130.141V77.992C130.141 75.832 129.053 74.84 127.437 74.84C126.269 74.84 125.325 75.384 124.829 76.408V75ZM139.204 83C138.74 81.928 138.724 81.784 138.724 80.76V77.304C138.724 75.672 137.476 74.84 135.444 74.84C133.412 74.84 132.148 75.64 132.148 77.24H133.764C133.796 76.52 134.436 76.152 135.444 76.152C136.516 76.152 137.124 76.52 137.124 77.304C137.124 79.352 131.828 77.4 131.828 80.84C131.828 82.376 132.996 83.16 134.404 83.16C135.62 83.16 136.564 82.632 137.06 81.672L137.524 83H139.204ZM133.492 80.664C133.492 79.144 135.908 79.352 137.124 78.584V79.64C137.124 81.08 136.1 81.88 135.028 81.88C134.052 81.88 133.492 81.512 133.492 80.664ZM143.798 82.52C145.014 82.52 146.022 81.96 146.582 80.92V82.92C146.582 84.264 145.814 85.08 144.358 85.08C142.902 85.08 142.166 84.216 142.166 83H140.566C140.566 85.016 142.086 86.36 144.358 86.36C146.646 86.36 148.182 85.064 148.182 82.92V75H146.614V76.504C146.054 75.416 145.046 74.84 143.798 74.84C141.894 74.84 140.518 76.2 140.518 78.68C140.518 81.16 141.894 82.52 143.798 82.52ZM144.39 81.24C143.062 81.24 142.198 80.392 142.198 78.68C142.198 76.968 143.062 76.12 144.39 76.12C145.718 76.12 146.582 76.968 146.582 78.68C146.582 80.392 145.718 81.24 144.39 81.24ZM157.393 80.6H155.713C155.553 81.32 154.993 81.88 153.857 81.88C152.593 81.88 151.729 81.08 151.665 79.48H157.537V79C157.537 76.232 155.969 74.84 153.857 74.84C151.617 74.84 150.017 76.216 150.017 79C150.017 81.784 151.617 83.16 153.857 83.16C155.777 83.16 157.169 82.184 157.393 80.6ZM153.857 76.12C154.961 76.12 155.745 76.824 155.873 78.2H151.697C151.841 76.824 152.673 76.12 153.857 76.12ZM162.889 83H164.521V79.32H167.465C169.993 79.32 171.721 78.104 171.721 75.56C171.721 73.016 169.993 71.8 167.465 71.8H162.889V83ZM167.305 73.24C169.017 73.24 170.009 73.832 170.009 75.56C170.009 77.288 169.017 77.88 167.305 77.88H164.521V73.24H167.305ZM177.414 76.392C177.67 76.392 177.862 76.424 178.038 76.472V75C177.862 74.952 177.67 74.92 177.414 74.92C176.294 74.92 175.43 75.528 175.046 76.824V75H173.558V83H175.158V78.68C175.158 77.144 176.086 76.392 177.414 76.392ZM186.377 80.6H184.697C184.537 81.32 183.977 81.88 182.841 81.88C181.577 81.88 180.713 81.08 180.649 79.48H186.521V79C186.521 76.232 184.953 74.84 182.841 74.84C180.601 74.84 179.001 76.216 179.001 79C179.001 81.784 180.601 83.16 182.841 83.16C184.761 83.16 186.153 82.184 186.377 80.6ZM182.841 76.12C183.945 76.12 184.729 76.824 184.857 78.2H180.681C180.825 76.824 181.657 76.12 182.841 76.12ZM187.474 76.28H188.754V83H190.354V76.28H192.434V75H190.354V74.28C190.354 73.368 190.706 73.08 191.442 73.08H192.594V71.8H190.978C189.538 71.8 188.754 72.376 188.754 74.056V75H187.474V76.28ZM200.768 80.6H199.088C198.928 81.32 198.368 81.88 197.232 81.88C195.968 81.88 195.104 81.08 195.04 79.48H200.912V79C200.912 76.232 199.344 74.84 197.232 74.84C194.992 74.84 193.392 76.216 193.392 79C193.392 81.784 194.992 83.16 197.232 83.16C199.152 83.16 200.544 82.184 200.768 80.6ZM197.232 76.12C198.336 76.12 199.12 76.824 199.248 78.2H195.072C195.216 76.824 196.048 76.12 197.232 76.12ZM206.601 76.392C206.857 76.392 207.049 76.424 207.225 76.472V75C207.049 74.952 206.857 74.92 206.601 74.92C205.481 74.92 204.617 75.528 204.233 76.824V75H202.745V83H204.345V78.68C204.345 77.144 205.273 76.392 206.601 76.392ZM215.565 80.6H213.885C213.725 81.32 213.165 81.88 212.029 81.88C210.765 81.88 209.901 81.08 209.837 79.48H215.709V79C215.709 76.232 214.141 74.84 212.029 74.84C209.789 74.84 208.189 76.216 208.189 79C208.189 81.784 209.789 83.16 212.029 83.16C213.949 83.16 215.341 82.184 215.565 80.6ZM212.029 76.12C213.133 76.12 213.917 76.824 214.045 78.2H209.869C210.013 76.824 210.845 76.12 212.029 76.12ZM219.11 75H217.542V83H219.142V78.392C219.142 76.904 219.894 76.152 221.062 76.152C222.182 76.152 222.822 76.776 222.822 78.152V83H224.422V77.992C224.422 75.832 223.334 74.84 221.718 74.84C220.55 74.84 219.606 75.384 219.11 76.408V75ZM227.869 79C227.869 77.08 228.733 76.12 230.029 76.12C231.165 76.12 231.853 76.824 231.949 78.04H233.629C233.469 76.024 232.157 74.84 230.029 74.84C227.789 74.84 226.189 76.232 226.189 79C226.189 81.768 227.789 83.16 230.029 83.16C232.157 83.16 233.469 81.976 233.629 79.96H231.949C231.853 81.176 231.165 81.88 230.029 81.88C228.733 81.88 227.869 80.92 227.869 79ZM242.362 80.6H240.682C240.522 81.32 239.962 81.88 238.826 81.88C237.562 81.88 236.698 81.08 236.634 79.48H242.506V79C242.506 76.232 240.938 74.84 238.826 74.84C236.586 74.84 234.986 76.216 234.986 79C234.986 81.784 236.586 83.16 238.826 83.16C240.746 83.16 242.138 82.184 242.362 80.6ZM238.826 76.12C239.93 76.12 240.714 76.824 240.842 78.2H236.666C236.81 76.824 237.642 76.12 238.826 76.12ZM244.131 77.176C244.131 80.312 248.883 79 248.883 80.808C248.883 81.464 248.259 81.88 247.315 81.88C246.195 81.88 245.523 81.368 245.459 80.6H243.859C243.891 82.136 245.251 83.16 247.315 83.16C249.107 83.16 250.451 82.312 250.451 80.728C250.451 77.592 245.699 78.888 245.699 77.096C245.699 76.504 246.259 76.12 247.091 76.12C248.067 76.12 248.643 76.552 248.707 77.24H250.307C250.275 75.816 249.075 74.84 247.091 74.84C245.347 74.84 244.131 75.688 244.131 77.176Z" fill="#1E2D25"/>
<rect x="99.5" y="101.5" width="238" height="218" stroke="#E6E6E6"/>
<path d="M99 189H338" stroke="#E6E6E6"/>
<path d="M99 233H338" stroke="#E6E6E6"/>
<path d="M99 277H338" stroke="#E6E6E6"/>
<path d="M99 145H338" stroke="#E6E6E6"/>
<path d="M328 122.928L320 129.856L320 116L328 122.928Z" fill="black"/>
<rect x="111" y="119" width="128" height="8" rx="4" fill="#D9D9D9"/>
<g filter="url(#filter1_d_684_120381)">
<g clip-path="url(#clip1_684_120381)">
<rect x="262.777" y="111" width="42" height="24" rx="12" fill="#E6E6E6" fill-opacity="0.7" shape-rendering="crispEdges"/>
<path d="M286.377 123C286.377 129.627 281.004 135 274.377 135C267.75 135 262.377 129.627 262.377 123C262.377 116.373 267.75 111 274.377 111C281.004 111 286.377 116.373 286.377 123Z" fill="#616161"/>
</g>
<rect x="262.277" y="110.5" width="43" height="25" rx="12.5" stroke="#686868" stroke-opacity="0.4" shape-rendering="crispEdges"/>
</g>
<g filter="url(#filter2_d_684_120381)">
<g clip-path="url(#clip2_684_120381)">
<rect x="261.777" y="155" width="42" height="24" rx="12" fill="#E6E6E6" fill-opacity="0.7" shape-rendering="crispEdges"/>
<path d="M285.377 167C285.377 173.627 280.004 179 273.377 179C266.75 179 261.377 173.627 261.377 167C261.377 160.373 266.75 155 273.377 155C280.004 155 285.377 160.373 285.377 167Z" fill="#616161"/>
</g>
<rect x="261.277" y="154.5" width="43" height="25" rx="12.5" stroke="#686868" stroke-opacity="0.4" shape-rendering="crispEdges"/>
</g>
<path d="M328 166.928L320 173.856L320 160L328 166.928Z" fill="black"/>
<rect x="110" y="163" width="108" height="8" rx="4" fill="#D9D9D9"/>
<g filter="url(#filter3_d_684_120381)">
<g clip-path="url(#clip3_684_120381)">
<rect x="261.777" y="199" width="42" height="24" rx="12" fill="#E6E6E6" fill-opacity="0.7" shape-rendering="crispEdges"/>
<path d="M285.377 211C285.377 217.627 280.004 223 273.377 223C266.75 223 261.377 217.627 261.377 211C261.377 204.373 266.75 199 273.377 199C280.004 199 285.377 204.373 285.377 211Z" fill="#616161"/>
</g>
<rect x="261.277" y="198.5" width="43" height="25" rx="12.5" stroke="#686868" stroke-opacity="0.4" shape-rendering="crispEdges"/>
</g>
<path d="M328 210.928L320 217.856L320 204L328 210.928Z" fill="black"/>
<rect x="110" y="207" width="108" height="8" rx="4" fill="#D9D9D9"/>
<g filter="url(#filter4_d_684_120381)">
<g clip-path="url(#clip4_684_120381)">
<rect x="261.777" y="243" width="42" height="24" rx="12" fill="#E6E6E6" fill-opacity="0.7" shape-rendering="crispEdges"/>
<path d="M285.377 255C285.377 261.627 280.004 267 273.377 267C266.75 267 261.377 261.627 261.377 255C261.377 248.373 266.75 243 273.377 243C280.004 243 285.377 248.373 285.377 255Z" fill="#616161"/>
</g>
<rect x="261.277" y="242.5" width="43" height="25" rx="12.5" stroke="#686868" stroke-opacity="0.4" shape-rendering="crispEdges"/>
</g>
<path d="M328 254.928L320 261.856L320 248L328 254.928Z" fill="black"/>
<rect x="110" y="251" width="108" height="8" rx="4" fill="#D9D9D9"/>
<g filter="url(#filter5_d_684_120381)">
<g clip-path="url(#clip5_684_120381)">
<rect x="261.777" y="287" width="42" height="24" rx="12" fill="#E6E6E6" fill-opacity="0.7" shape-rendering="crispEdges"/>
<path d="M285.377 299C285.377 305.627 280.004 311 273.377 311C266.75 311 261.377 305.627 261.377 299C261.377 292.373 266.75 287 273.377 287C280.004 287 285.377 292.373 285.377 299Z" fill="#616161"/>
</g>
<rect x="261.277" y="286.5" width="43" height="25" rx="12.5" stroke="#686868" stroke-opacity="0.4" shape-rendering="crispEdges"/>
</g>
<path d="M328 298.928L320 305.856L320 292L328 298.928Z" fill="black"/>
<rect x="110" y="295" width="108" height="8" rx="4" fill="#D9D9D9"/>
<rect x="99" y="331" width="160" height="40" rx="20" fill="#1679B7"/>
<path d="M124.938 348.902C124.938 352.808 130.762 350.918 130.762 353.256C130.762 354.152 129.964 354.74 128.746 354.74C127.318 354.74 126.464 354.04 126.366 352.99H124.616C124.658 354.88 126.282 356.168 128.746 356.168C130.888 356.168 132.498 355.118 132.498 353.158C132.498 349.252 126.66 351.156 126.66 348.818C126.66 348.006 127.374 347.46 128.466 347.46C129.726 347.46 130.454 348.062 130.552 349.028H132.302C132.26 347.264 130.832 346.032 128.466 346.032C126.38 346.032 124.938 347.082 124.938 348.902ZM140.287 356C139.881 355.062 139.867 354.936 139.867 354.04V351.058C139.867 349.588 138.733 348.832 136.871 348.832C134.995 348.832 133.861 349.56 133.861 351.016H135.555C135.569 350.428 136.073 350.134 136.871 350.134C137.711 350.134 138.187 350.414 138.187 351.03C138.187 352.682 133.609 351.1 133.609 354.096C133.609 355.44 134.589 356.14 135.863 356.14C136.913 356.14 137.753 355.664 138.187 354.838L138.593 356H140.287ZM135.331 353.9C135.331 352.738 137.179 352.822 138.187 352.192V353.074C138.187 354.236 137.375 354.866 136.521 354.866C135.765 354.866 135.331 354.572 135.331 353.9ZM143.385 356H144.953L147.627 349H145.891L145.023 351.436C144.645 352.5 144.379 353.284 144.169 354.18C143.945 353.284 143.693 352.5 143.315 351.436L142.447 349H140.711L143.385 356ZM154.835 353.872H153.113C152.973 354.446 152.525 354.866 151.643 354.866C150.621 354.866 149.921 354.236 149.865 352.962H154.947C154.961 352.808 154.961 352.668 154.961 352.5C154.961 350.064 153.547 348.832 151.643 348.832C149.641 348.832 148.199 350.05 148.199 352.5C148.199 354.95 149.641 356.168 151.643 356.168C153.379 356.168 154.639 355.286 154.835 353.872ZM151.643 350.134C152.539 350.134 153.169 350.68 153.281 351.786H149.893C150.019 350.68 150.691 350.134 151.643 350.134ZM164.081 356H165.621L167.665 350.526C168.183 349.154 168.435 348.44 168.701 347.516C168.631 348.538 168.603 349.574 168.603 350.778V356H170.255V346.2H167.553L166.069 350.162C165.411 351.954 165.075 353.06 164.851 354.012C164.627 353.06 164.291 351.954 163.633 350.162L162.149 346.2H159.447V356H161.099V350.778C161.099 349.574 161.071 348.538 161.001 347.516C161.267 348.44 161.519 349.154 162.037 350.526L164.081 356ZM175.744 351.436C175.366 352.5 175.1 353.284 174.89 354.18C174.666 353.284 174.414 352.5 174.036 351.436L173.168 349H171.432L174.064 355.874L173.798 356.588C173.532 357.316 173.266 357.456 172.692 357.456H172.02V358.8H172.93C174.12 358.8 174.694 358.562 175.31 356.91L178.348 349H176.612L175.744 351.436ZM189.408 352.248C189.296 353.802 188.288 354.656 186.678 354.656C184.844 354.656 183.626 353.466 183.626 351.1C183.626 348.734 184.844 347.544 186.678 347.544C188.288 347.544 189.296 348.398 189.408 349.952H191.2C191.046 347.46 189.296 346.032 186.678 346.032C184.004 346.032 181.834 347.656 181.834 351.1C181.834 354.544 184.004 356.168 186.678 356.168C189.296 356.168 191.046 354.74 191.2 352.248H189.408ZM198.939 351.534C198.939 349.686 198.001 348.832 196.615 348.832C195.607 348.832 194.809 349.294 194.375 350.162V346.2H192.695V356H194.375V351.996C194.375 350.82 194.963 350.232 195.887 350.232C196.755 350.232 197.259 350.708 197.259 351.786V356H198.939V351.534ZM203.76 356.168C205.776 356.168 207.204 354.936 207.204 352.5C207.204 350.064 205.776 348.832 203.76 348.832C201.744 348.832 200.316 350.064 200.316 352.5C200.316 354.936 201.744 356.168 203.76 356.168ZM203.76 354.824C202.724 354.824 202.052 354.054 202.052 352.5C202.052 350.946 202.724 350.176 203.76 350.176C204.796 350.176 205.468 350.946 205.468 352.5C205.468 354.054 204.796 354.824 203.76 354.824ZM210.33 346.2H208.65V347.768H210.33V346.2ZM210.33 349H208.65V356H210.33V349ZM213.509 352.5C213.509 350.946 214.195 350.176 215.217 350.176C216.127 350.176 216.659 350.764 216.729 351.744H218.465C218.353 349.91 217.163 348.832 215.217 348.832C213.215 348.832 211.773 350.064 211.773 352.5C211.773 354.936 213.215 356.168 215.217 356.168C217.163 356.168 218.353 355.09 218.465 353.256H216.729C216.659 354.236 216.127 354.824 215.217 354.824C214.195 354.824 213.509 354.054 213.509 352.5ZM226.161 353.872H224.439C224.299 354.446 223.851 354.866 222.969 354.866C221.947 354.866 221.247 354.236 221.191 352.962H226.273C226.287 352.808 226.287 352.668 226.287 352.5C226.287 350.064 224.873 348.832 222.969 348.832C220.967 348.832 219.525 350.05 219.525 352.5C219.525 354.95 220.967 356.168 222.969 356.168C224.705 356.168 225.965 355.286 226.161 353.872ZM222.969 350.134C223.865 350.134 224.495 350.68 224.607 351.786H221.219C221.345 350.68 222.017 350.134 222.969 350.134ZM227.554 350.946C227.554 353.774 231.698 352.584 231.698 354.054C231.698 354.572 231.194 354.894 230.438 354.894C229.542 354.894 229.01 354.488 228.954 353.872H227.344C227.372 355.258 228.562 356.168 230.438 356.168C232.118 356.168 233.28 355.412 233.28 353.97C233.28 351.156 229.15 352.318 229.15 350.862C229.15 350.4 229.598 350.106 230.256 350.106C231.04 350.106 231.502 350.456 231.544 351.016H233.154C233.14 349.728 232.104 348.832 230.256 348.832C228.632 348.832 227.554 349.602 227.554 350.946Z" fill="white"/>
</g>
</g>
<defs>
<filter id="filter0_d_684_120381" x="43" y="31" width="376" height="411" filterUnits="userSpaceOnUse" color-interpolation-filters="sRGB">
<feFlood flood-opacity="0" result="BackgroundImageFix"/>
<feColorMatrix in="SourceAlpha" type="matrix" values="0 0 0 0 0 0 0 0 0 0 0 0 0 0 0 0 0 0 127 0" result="hardAlpha"/>
<feOffset dy="16"/>
<feGaussianBlur stdDeviation="20"/>
<feComposite in2="hardAlpha" operator="out"/>
<feColorMatrix type="matrix" values="0 0 0 0 0 0 0 0 0 0 0 0 0 0 0 0 0 0 0.08 0"/>
<feBlend mode="normal" in2="BackgroundImageFix" result="effect1_dropShadow_684_120381"/>
<feBlend mode="normal" in="SourceGraphic" in2="effect1_dropShadow_684_120381" result="shape"/>
</filter>
<filter id="filter1_d_684_120381" x="221.777" y="86" width="124" height="106" filterUnits="userSpaceOnUse" color-interpolation-filters="sRGB">
<feFlood flood-opacity="0" result="BackgroundImageFix"/>
<feColorMatrix in="SourceAlpha" type="matrix" values="0 0 0 0 0 0 0 0 0 0 0 0 0 0 0 0 0 0 127 0" result="hardAlpha"/>
<feOffset dy="16"/>
<feGaussianBlur stdDeviation="20"/>
<feComposite in2="hardAlpha" operator="out"/>
<feColorMatrix type="matrix" values="0 0 0 0 0 0 0 0 0 0 0 0 0 0 0 0 0 0 0.08 0"/>
<feBlend mode="normal" in2="BackgroundImageFix" result="effect1_dropShadow_684_120381"/>
<feBlend mode="normal" in="SourceGraphic" in2="effect1_dropShadow_684_120381" result="shape"/>
</filter>
<filter id="filter2_d_684_120381" x="220.777" y="130" width="124" height="106" filterUnits="userSpaceOnUse" color-interpolation-filters="sRGB">
<feFlood flood-opacity="0" result="BackgroundImageFix"/>
<feColorMatrix in="SourceAlpha" type="matrix" values="0 0 0 0 0 0 0 0 0 0 0 0 0 0 0 0 0 0 127 0" result="hardAlpha"/>
<feOffset dy="16"/>
<feGaussianBlur stdDeviation="20"/>
<feComposite in2="hardAlpha" operator="out"/>
<feColorMatrix type="matrix" values="0 0 0 0 0 0 0 0 0 0 0 0 0 0 0 0 0 0 0.08 0"/>
<feBlend mode="normal" in2="BackgroundImageFix" result="effect1_dropShadow_684_120381"/>
<feBlend mode="normal" in="SourceGraphic" in2="effect1_dropShadow_684_120381" result="shape"/>
</filter>
<filter id="filter3_d_684_120381" x="220.777" y="174" width="124" height="106" filterUnits="userSpaceOnUse" color-interpolation-filters="sRGB">
<feFlood flood-opacity="0" result="BackgroundImageFix"/>
<feColorMatrix in="SourceAlpha" type="matrix" values="0 0 0 0 0 0 0 0 0 0 0 0 0 0 0 0 0 0 127 0" result="hardAlpha"/>
<feOffset dy="16"/>
<feGaussianBlur stdDeviation="20"/>
<feComposite in2="hardAlpha" operator="out"/>
<feColorMatrix type="matrix" values="0 0 0 0 0 0 0 0 0 0 0 0 0 0 0 0 0 0 0.08 0"/>
<feBlend mode="normal" in2="BackgroundImageFix" result="effect1_dropShadow_684_120381"/>
<feBlend mode="normal" in="SourceGraphic" in2="effect1_dropShadow_684_120381" result="shape"/>
</filter>
<filter id="filter4_d_684_120381" x="220.777" y="218" width="124" height="106" filterUnits="userSpaceOnUse" color-interpolation-filters="sRGB">
<feFlood flood-opacity="0" result="BackgroundImageFix"/>
<feColorMatrix in="SourceAlpha" type="matrix" values="0 0 0 0 0 0 0 0 0 0 0 0 0 0 0 0 0 0 127 0" result="hardAlpha"/>
<feOffset dy="16"/>
<feGaussianBlur stdDeviation="20"/>
<feComposite in2="hardAlpha" operator="out"/>
<feColorMatrix type="matrix" values="0 0 0 0 0 0 0 0 0 0 0 0 0 0 0 0 0 0 0.08 0"/>
<feBlend mode="normal" in2="BackgroundImageFix" result="effect1_dropShadow_684_120381"/>
<feBlend mode="normal" in="SourceGraphic" in2="effect1_dropShadow_684_120381" result="shape"/>
</filter>
<filter id="filter5_d_684_120381" x="220.777" y="262" width="124" height="106" filterUnits="userSpaceOnUse" color-interpolation-filters="sRGB">
<feFlood flood-opacity="0" result="BackgroundImageFix"/>
<feColorMatrix in="SourceAlpha" type="matrix" values="0 0 0 0 0 0 0 0 0 0 0 0 0 0 0 0 0 0 127 0" result="hardAlpha"/>
<feOffset dy="16"/>
<feGaussianBlur stdDeviation="20"/>
<feComposite in2="hardAlpha" operator="out"/>
<feColorMatrix type="matrix" values="0 0 0 0 0 0 0 0 0 0 0 0 0 0 0 0 0 0 0.08 0"/>
<feBlend mode="normal" in2="BackgroundImageFix" result="effect1_dropShadow_684_120381"/>
<feBlend mode="normal" in="SourceGraphic" in2="effect1_dropShadow_684_120381" result="shape"/>
</filter>
<clipPath id="clip0_684_120381">
<rect width="405" height="400" fill="white"/>
</clipPath>
<clipPath id="clip1_684_120381">
<rect x="262.777" y="111" width="42" height="24" rx="12" fill="white"/>
</clipPath>
<clipPath id="clip2_684_120381">
<rect x="261.777" y="155" width="42" height="24" rx="12" fill="white"/>
</clipPath>
<clipPath id="clip3_684_120381">
<rect x="261.777" y="199" width="42" height="24" rx="12" fill="white"/>
</clipPath>
<clipPath id="clip4_684_120381">
<rect x="261.777" y="243" width="42" height="24" rx="12" fill="white"/>
</clipPath>
<clipPath id="clip5_684_120381">
<rect x="261.777" y="287" width="42" height="24" rx="12" fill="white"/>
</clipPath>
</defs>
</svg>
