<svg width="90" height="90" fill="none" xmlns="http://www.w3.org/2000/svg"><path d="M39.87 71.4c16.966 0 30.72-13.754 30.72-30.72S56.836 9.96 39.87 9.96 9.15 23.714 9.15 40.68 22.904 71.4 39.87 71.4z" fill="#5D9948"/><path d="M40.98 65.07c-6.66 0-12.68-2.7-17.04-7.06a24.035 24.035 0 0 1-7.06-17.04c0-13.31 10.79-24.1 24.1-24.1 6.66 0 12.68 2.7 17.04 7.06a24.035 24.035 0 0 1 7.06 17.04c0 13.31-10.79 24.1-24.1 24.1z" fill="#81B64C"/><path d="M52.41 19.74a23.97 23.97 0 0 0-11.44-2.88c-13.31 0-24.11 10.79-24.1 24.1 0 4.37 1.17 8.47 3.2 12 15.5-5.09 27.66-17.54 32.34-33.23v.01z" fill="#B2E068"/><path d="M39.87 23.64c-.58 0-1.1.36-1.31.9l-3.94 10.22-10.94.59c-.58.03-1.08.41-1.26.97-.18.55 0 1.16.45 1.52l8.5 6.91-2.82 10.58a1.406 1.406 0 0 0 1.36 1.77c.26 0 .53-.07.76-.23l9.2-5.95 9.19 5.95c.23.15.5.23.76.23a1.406 1.406 0 0 0 1.36-1.77l-2.82-10.58 8.5-6.91c.45-.37.63-.97.45-1.52s-.68-.94-1.26-.97l-10.94-.59-3.94-10.22c-.21-.54-.73-.9-1.31-.9h.01z" fill="#45753C"/><path d="M39.87 22.15c-.58 0-1.1.36-1.31.9l-3.94 10.22-10.94.59c-.58.03-1.08.41-1.26.97-.18.55 0 1.16.45 1.52l8.5 6.91-2.82 10.58a1.406 1.406 0 0 0 1.36 1.77c.26 0 .53-.07.76-.23l9.2-5.95 9.19 5.95c.23.15.5.23.76.23a1.406 1.406 0 0 0 1.36-1.77l-2.82-10.58 8.5-6.91c.45-.37.63-.97.45-1.52s-.68-.94-1.26-.97l-10.94-.59-3.94-10.22c-.21-.54-.73-.9-1.31-.9h.01z" fill="#fff"/><path d="M58.95 69.31 74.6 84.96c1.09 1.14 2.17 1.63 3.27 1.63 1.79 0 3.61-1.29 5.51-3.2 3.08-3.08 4.55-5.94 1.57-8.79L69.3 58.95" fill="#4A4743"/><path d="m67.9 60.36 15.68 15.68c1 .96 1.01 1.6 1.01 1.81.01.99-.87 2.38-2.61 4.12-1.73 1.73-3.11 2.61-4.1 2.61-.21 0-.87 0-1.86-1.04L60.37 67.89" fill="#807B76"/><path d="m74.3 63.93-4.98-4.98-10.36 10.36 4.98 4.98c4.03-2.82 7.54-6.33 10.36-10.36z" fill="#4A4743"/><path d="M39.87 3.41c-20.13 0-36.46 16.33-36.46 36.46 0 20.13 16.32 36.46 36.46 36.46s36.46-16.32 36.46-36.46S60.01 3.41 39.87 3.41zm0 65.49c-16.03 0-29.03-13-29.03-29.03s13-29.03 29.03-29.03 29.03 13 29.03 29.03-13 29.03-29.03 29.03z" fill="#B3ACA8"/><path d="M39.87 5.41c-19.03 0-34.46 15.43-34.46 34.46s15.43 34.46 34.46 34.46S74.33 58.9 74.33 39.87 58.9 5.41 39.87 5.41zm0 61.65c-15.02 0-27.2-12.18-27.2-27.2s12.18-27.2 27.2-27.2 27.2 12.18 27.2 27.2-12.18 27.2-27.2 27.2z" fill="#D1CCC5"/><path d="M12.68 39.87c0-15.02 12.18-27.2 27.2-27.2 4.88 0 9.46 1.29 13.42 3.54.55-2.51.92-5.05 1.08-7.61-4.41-2.05-9.32-3.2-14.5-3.2-19.04.01-34.47 15.44-34.47 34.47 0 5.47 1.28 10.63 3.55 15.23 2.55-.22 5.09-.63 7.58-1.25a27.121 27.121 0 0 1-3.87-13.98h.01z" fill="#E8E6E1"/></svg>